SplineFontDB: 3.2
FontName: Pretension-MediumItalic
FullName: Pretension Medium Italic
FamilyName: Pretension Medium
Weight: Medium
Copyright: Copyright 2016 The Inter Project Authors
Version: 4.000;git-a52131595
ItalicAngle: -9.39999
UnderlinePosition: -342
UnderlineWidth: 159
Ascent: 1638
Descent: 410
InvalidEm: 0
sfntRevision: 0x00040000
LayerCount: 2
Layer: 0 1 "Back" 1
Layer: 1 1 "Fore" 0
XUID: [1021 89 -1234937351 11177370]
StyleMap: 0x0001
FSType: 0
OS2Version: 4
OS2_WeightWidthSlopeOnly: 0
OS2_UseTypoMetrics: 1
CreationTime: 1700438797
ModificationTime: 1707762411
PfmFamily: 17
TTFWeight: 500
TTFWidth: 5
LineGap: 0
VLineGap: 0
Panose: 2 0 5 3 0 0 0 2 0 4
OS2TypoAscent: 1984
OS2TypoAOffset: 0
OS2TypoDescent: -494
OS2TypoDOffset: 0
OS2TypoLinegap: 0
OS2WinAscent: 1984
OS2WinAOffset: 0
OS2WinDescent: 494
OS2WinDOffset: 0
HheadAscent: 1984
HheadAOffset: 0
HheadDescent: -494
HheadDOffset: 0
OS2SubXSize: 1331
OS2SubYSize: 1229
OS2SubXOff: -25
OS2SubYOff: 154
OS2SupXSize: 1331
OS2SupYSize: 1229
OS2SupXOff: 119
OS2SupYOff: 717
OS2StrikeYSize: 159
OS2StrikeYPos: 653
OS2CapHeight: 1490
OS2XHeight: 1087
OS2Vendor: 'RSMS'
OS2CodePages: 0000019f.00000000
OS2UnicodeRanges: e0000aff.5200a1ff.00000021.00000000
Lookup: 1 0 0 "'aalt' Access All Alternates in Latin lookup 0" { "'aalt' Access All Alternates in Latin lookup 0 subtable"  } ['aalt' ('DFLT' <'dflt' > 'latn' <'CAT ' 'MOL ' 'ROM ' 'dflt' > ) ]
Lookup: 3 0 0 "'aalt' Access All Alternates in Latin lookup 1" { "'aalt' Access All Alternates in Latin lookup 1 subtable"  } ['aalt' ('DFLT' <'dflt' > 'latn' <'CAT ' 'MOL ' 'ROM ' 'dflt' > ) ]
Lookup: 1 0 0 "Single Substitution lookup 2" { "Single Substitution lookup 2 subtable"  } []
Lookup: 4 0 0 "'ccmp' Glyph Composition/Decomposition in Latin lookup 3" { "'ccmp' Glyph Composition/Decomposition in Latin lookup 3 subtable"  } ['ccmp' ('DFLT' <'dflt' > 'latn' <'CAT ' 'MOL ' 'ROM ' 'dflt' > ) ]

StartChar: .notdef
Encoding: 1114112 -1 0
Width: 1344
Flags: W
LayerCount: 2
Fore
SplineSet
858 -416 m 1,0,-1
 170 -416 l 1,1,-1
 546 1856 l 1,2,-1
 1234 1856 l 1,3,-1
 858 -416 l 1,0,-1
391 -192 m 1,4,-1
 381 -256 l 1,5,-1
 701 -256 l 1,6,-1
 711 -192 l 1,7,-1
 496 -192 l 1,8,-1
 732 -65 l 1,9,-1
 743 0 l 1,10,-1
 423 0 l 1,11,-1
 412 -64 l 1,12,-1
 628 -64 l 1,13,-1
 391 -192 l 1,4,-1
476 320 m 1,14,-1
 434 64 l 1,15,-1
 754 64 l 1,16,-1
 796 320 l 1,17,-1
 476 320 l 1,14,-1
700 128 m 1,18,-1
 508 128 l 1,19,-1
 529 256 l 1,20,-1
 721 256 l 1,21,-1
 700 128 l 1,18,-1
540 704 m 1,22,-1
 497 448 l 1,23,-1
 817 448 l 1,24,-1
 860 704 l 1,25,-1
 668 704 l 1,26,-1
 646 576 l 1,27,-1
 710 576 l 1,28,-1
 721 640 l 1,29,-1
 785 640 l 1,30,-1
 764 512 l 1,31,-1
 572 512 l 1,32,-1
 604 704 l 1,33,-1
 540 704 l 1,22,-1
561 832 m 1,34,-1
 550 768 l 1,35,-1
 870 768 l 1,36,-1
 907 992 l 1,37,-1
 843 992 l 1,38,-1
 817 832 l 1,39,-1
 561 832 l 1,34,-1
582 960 m 1,40,-1
 571 896 l 1,41,-1
 763 896 l 1,42,-1
 790 1056 l 1,43,-1
 918 1056 l 1,44,-1
 928 1120 l 1,45,-1
 608 1120 l 1,46,-1
 598 1056 l 1,47,-1
 726 1056 l 1,48,-1
 710 960 l 1,49,-1
 582 960 l 1,40,-1
758 1248 m 1,50,-1
 694 1248 l 1,51,-1
 709 1344 l 1,52,-1
 773 1344 l 1,53,-1
 758 1248 l 1,50,-1
656 1408 m 1,54,-1
 619 1184 l 1,55,-1
 939 1184 l 1,56,-1
 950 1248 l 1,57,-1
 822 1248 l 1,58,-1
 848 1408 l 1,59,-1
 656 1408 l 1,54,-1
677 1536 m 1,60,-1
 667 1472 l 1,61,-1
 987 1472 l 1,62,-1
 997 1536 l 1,63,-1
 853 1536 l 1,64,-1
 869 1632 l 1,65,-1
 1013 1632 l 1,66,-1
 1024 1696 l 1,67,-1
 704 1696 l 1,68,-1
 693 1632 l 1,69,-1
 805 1632 l 1,70,-1
 789 1536 l 1,71,-1
 677 1536 l 1,60,-1
EndSplineSet
EndChar

StartChar: A
Encoding: 65 65 2
Width: 1416
GlyphClass: 2
Flags: W
AnchorPoint: "Anchor-4" 1292 0 basechar 0
AnchorPoint: "Anchor-1" 865 1490 basechar 0
AnchorPoint: "Anchor-0" 618 0 basechar 0
LayerCount: 2
Fore
SplineSet
-56 0 m 1,0,-1
 727 1490 l 1,1,-1
 1001 1490 l 1,2,-1
 1292 0 l 1,3,-1
 1057 0 l 1,4,-1
 907 835 l 2,5,6
 891 934 891 934 871.5 1068.5 c 128,-1,7
 852 1203 852 1203 828 1393 c 1,8,-1
 883 1393 l 1,9,10
 799 1206 799 1206 736 1072.5 c 128,-1,11
 673 939 673 939 622 835 c 2,12,-1
 194 0 l 1,13,-1
 -56 0 l 1,0,-1
302 390 m 1,14,-1
 333 579 l 1,15,-1
 1094 579 l 1,16,-1
 1063 390 l 1,17,-1
 302 390 l 1,14,-1
EndSplineSet
Substitution2: "'c2sc' Capitals to Small Capitals in Latin lookup 67 subtable" a.sc
Substitution2: "'ss06' Style Set 6 in Latin lookup 52 subtable" A.squared
Substitution2: "'ss05' Style Set 5 in Latin lookup 51 subtable" uni24B6
Substitution2: "Single Substitution lookup 44 subtable" ordfeminine
AlternateSubs2: "'aalt' Access All Alternates in Latin lookup 1 subtable" ordfeminine a.sc
Position2: "'cpsp' Capital Spacing in Latin lookup 0 subtable" dx=0 dy=0 dh=0 dv=0
EndChar

StartChar: uni023A
Encoding: 570 570 46
Width: 1416
GlyphClass: 2
Flags: W
AnchorPoint: "Anchor-4" 1292 0 basechar 0
AnchorPoint: "Anchor-1" 865 1490 basechar 0
AnchorPoint: "Anchor-0" 618 0 basechar 0
LayerCount: 2
Fore
SplineSet
1320 1678 m 1,0,-1
 365 -190 l 1,1,-1
 215 -190 l 1,2,-1
 1170 1678 l 1,3,-1
 1320 1678 l 1,0,-1
-56 0 m 1,4,-1
 727 1490 l 1,5,-1
 1001 1490 l 1,6,-1
 1292 0 l 1,7,-1
 1057 0 l 1,8,-1
 907 835 l 2,9,10
 891 934 891 934 871.5 1068.5 c 128,-1,11
 852 1203 852 1203 828 1393 c 1,12,-1
 883 1393 l 1,13,14
 799 1206 799 1206 736 1072.5 c 128,-1,15
 673 939 673 939 622 835 c 2,16,-1
 194 0 l 1,17,-1
 -56 0 l 1,4,-1
302 390 m 1,18,-1
 333 579 l 1,19,-1
 1094 579 l 1,20,-1
 1063 390 l 1,21,-1
 302 390 l 1,18,-1
EndSplineSet
Position2: "'cpsp' Capital Spacing in Latin lookup 0 subtable" dx=0 dy=0 dh=0 dv=0
EndChar

StartChar: Lambda
Encoding: 923 923 60
Width: 1416
GlyphClass: 2
Flags: W
AnchorPoint: "Anchor-1" 865 1490 basechar 0
AnchorPoint: "Anchor-0" 618 0 basechar 0
LayerCount: 2
Fore
SplineSet
-56 0 m 1,0,-1
 727 1490 l 1,1,-1
 1001 1490 l 1,2,-1
 1292 0 l 1,3,-1
 1057 0 l 1,4,-1
 907 835 l 2,5,6
 890 934 890 934 871 1068.5 c 128,-1,7
 852 1203 852 1203 828 1393 c 1,8,-1
 883 1393 l 1,9,10
 799 1206 799 1206 736 1072.5 c 128,-1,11
 673 939 673 939 622 835 c 2,12,-1
 194 0 l 1,13,-1
 -56 0 l 1,0,-1
EndSplineSet
Position2: "'cpsp' Capital Spacing in Latin lookup 0 subtable" dx=0 dy=0 dh=0 dv=0
EndChar

StartChar: AE
Encoding: 198 198 61
Width: 2005
GlyphClass: 2
Flags: W
AnchorPoint: "Anchor-1" 1469 1490 basechar 0
LayerCount: 2
Fore
SplineSet
-56 0 m 1,0,-1
 866 1490 l 1,1,-1
 2057 1490 l 1,2,-1
 2025 1296 l 1,3,-1
 1315 1296 l 1,4,-1
 1240 844 l 1,5,-1
 1897 844 l 1,6,-1
 1865 652 l 1,7,-1
 1208 652 l 1,8,-1
 1132 195 l 1,9,-1
 1850 195 l 1,10,-1
 1818 0 l 1,11,-1
 876 0 l 1,12,-1
 1090 1287 l 1,13,-1
 968 1287 l 1,14,-1
 185 0 l 1,15,-1
 -56 0 l 1,0,-1
352 407 m 1,16,-1
 383 595 l 1,17,-1
 1083 595 l 1,18,-1
 1052 407 l 1,19,-1
 352 407 l 1,16,-1
EndSplineSet
Position2: "'cpsp' Capital Spacing in Latin lookup 0 subtable" dx=0 dy=0 dh=0 dv=0
EndChar

StartChar: B
Encoding: 66 66 65
Width: 1329
GlyphClass: 2
Flags: W
AnchorPoint: "Anchor-1" 796 1490 basechar 0
AnchorPoint: "Anchor-0" 556 0 basechar 0
LayerCount: 2
Fore
SplineSet
60 0 m 1,0,-1
 307 1490 l 1,1,-1
 854 1490 l 2,2,3
 1010 1490 1010 1490 1109.5 1438.5 c 128,-1,4
 1209 1387 1209 1387 1250.5 1295.5 c 128,-1,5
 1292 1204 1292 1204 1272 1086 c 0,6,7
 1258 1001 1258 1001 1215 939.5 c 128,-1,8
 1172 878 1172 878 1108 838 c 128,-1,9
 1044 798 1044 798 967 776 c 1,10,-1
 967 771 l 1,11,12
 1046 763 1046 763 1109.5 717 c 128,-1,13
 1173 671 1173 671 1204 590.5 c 128,-1,14
 1235 510 1235 510 1217 398 c 0,15,16
 1198 279 1198 279 1128 189.5 c 128,-1,17
 1058 100 1058 100 937 50 c 128,-1,18
 816 0 816 0 641 0 c 2,19,-1
 60 0 l 1,0,-1
316 192 m 1,20,-1
 642 192 l 2,21,22
 800 192 800 192 888.5 257.5 c 128,-1,23
 977 323 977 323 995 429 c 0,24,25
 1007 500 1007 500 980.5 554 c 128,-1,26
 954 608 954 608 893 637.5 c 128,-1,27
 832 667 832 667 740 667 c 2,28,-1
 396 667 l 1,29,-1
 316 192 l 1,20,-1
426 846 m 1,30,-1
 737 846 l 2,31,32
 816 846 816 846 882.5 876 c 128,-1,33
 949 906 949 906 993.5 961 c 128,-1,34
 1038 1016 1038 1016 1050 1089 c 0,35,36
 1066 1183 1066 1183 1010.5 1241.5 c 128,-1,37
 955 1300 955 1300 825 1300 c 2,38,-1
 500 1300 l 1,39,-1
 426 846 l 1,30,-1
EndSplineSet
Substitution2: "'ss06' Style Set 6 in Latin lookup 52 subtable" B.squared
Substitution2: "'ss05' Style Set 5 in Latin lookup 51 subtable" uni24B7
Position2: "'cpsp' Capital Spacing in Latin lookup 0 subtable" dx=0 dy=0 dh=0 dv=0
EndChar

StartChar: uni0181
Encoding: 385 385 70
Width: 1645
GlyphClass: 2
Flags: W
AnchorPoint: "Anchor-1" 1112 1490 basechar 0
AnchorPoint: "Anchor-0" 872 0 basechar 0
LayerCount: 2
Fore
SplineSet
136 1071 m 1,0,-1
 156 1194 l 2,1,2
 180 1340 180 1340 270.5 1415 c 128,-1,3
 361 1490 361 1490 521 1490 c 2,4,-1
 623 1490 l 1,5,-1
 590 1297 l 1,6,-1
 501 1297 l 2,7,8
 439 1297 439 1297 405.5 1270 c 128,-1,9
 372 1243 372 1243 363 1183 c 2,10,-1
 344 1071 l 1,11,-1
 136 1071 l 1,0,-1
376 0 m 1,12,-1
 623 1490 l 1,13,-1
 1170 1490 l 2,14,15
 1326 1490 1326 1490 1425.5 1438.5 c 128,-1,16
 1525 1387 1525 1387 1566.5 1295.5 c 128,-1,17
 1608 1204 1608 1204 1588 1086 c 0,18,19
 1574 1001 1574 1001 1531 939.5 c 128,-1,20
 1488 878 1488 878 1424 838 c 128,-1,21
 1360 798 1360 798 1283 776 c 1,22,-1
 1283 771 l 1,23,24
 1362 763 1362 763 1425.5 717 c 128,-1,25
 1489 671 1489 671 1520 590.5 c 128,-1,26
 1551 510 1551 510 1533 398 c 0,27,28
 1514 279 1514 279 1444 189.5 c 128,-1,29
 1374 100 1374 100 1253 50 c 128,-1,30
 1132 0 1132 0 957 0 c 2,31,-1
 376 0 l 1,12,-1
632 192 m 1,32,-1
 958 192 l 2,33,34
 1116 192 1116 192 1204.5 257.5 c 128,-1,35
 1293 323 1293 323 1311 429 c 0,36,37
 1323 500 1323 500 1296.5 554 c 128,-1,38
 1270 608 1270 608 1209 637.5 c 128,-1,39
 1148 667 1148 667 1056 667 c 2,40,-1
 712 667 l 1,41,-1
 632 192 l 1,32,-1
742 846 m 1,42,-1
 1053 846 l 2,43,44
 1132 846 1132 846 1198.5 876 c 128,-1,45
 1265 906 1265 906 1309.5 961 c 128,-1,46
 1354 1016 1354 1016 1366 1089 c 0,47,48
 1382 1183 1382 1183 1326.5 1241.5 c 128,-1,49
 1271 1300 1271 1300 1141 1300 c 2,50,-1
 816 1300 l 1,51,-1
 742 846 l 1,42,-1
EndSplineSet
Position2: "'cpsp' Capital Spacing in Latin lookup 0 subtable" dx=0 dy=0 dh=0 dv=0
EndChar

StartChar: C
Encoding: 67 67 73
Width: 1493
GlyphClass: 2
Flags: W
AnchorPoint: "Anchor-3" 679 -3 basechar 0
AnchorPoint: "Anchor-1" 928 1490 basechar 0
LayerCount: 2
Fore
SplineSet
699 -22 m 0,0,1
 523 -22 523 -22 392 52.5 c 128,-1,2
 261 127 261 127 189.5 263 c 128,-1,3
 118 399 118 399 118 587 c 0,4,5
 118 766 118 766 175 932 c 128,-1,6
 232 1098 232 1098 339 1229 c 128,-1,7
 446 1360 446 1360 595 1436 c 128,-1,8
 744 1512 744 1512 929 1512 c 0,9,10
 1050 1512 1050 1512 1150.5 1477 c 128,-1,11
 1251 1442 1251 1442 1324.5 1376 c 128,-1,12
 1398 1310 1398 1310 1437.5 1215.5 c 128,-1,13
 1477 1121 1477 1121 1477 1001 c 1,14,-1
 1251 1001 l 1,15,16
 1247 1074 1247 1074 1222 1131 c 128,-1,17
 1197 1188 1197 1188 1154 1227.5 c 128,-1,18
 1111 1267 1111 1267 1052 1287 c 128,-1,19
 993 1307 993 1307 921 1307 c 0,20,21
 785 1307 785 1307 677.5 1246 c 128,-1,22
 570 1185 570 1185 495 1081.5 c 128,-1,23
 420 978 420 978 380.5 850 c 128,-1,24
 341 722 341 722 341 590 c 0,25,26
 341 462 341 462 386 370.5 c 128,-1,27
 431 279 431 279 513.5 231 c 128,-1,28
 596 183 596 183 710 183 c 0,29,30
 786 183 786 183 855.5 203.5 c 128,-1,31
 925 224 925 224 985 263 c 128,-1,32
 1045 302 1045 302 1091 358.5 c 128,-1,33
 1137 415 1137 415 1166 489 c 1,34,-1
 1393 489 l 1,35,36
 1356 374 1356 374 1288.5 280.5 c 128,-1,37
 1221 187 1221 187 1129 119 c 128,-1,38
 1037 51 1037 51 928.5 14.5 c 128,-1,39
 820 -22 820 -22 699 -22 c 0,0,1
EndSplineSet
Substitution2: "'ss06' Style Set 6 in Latin lookup 52 subtable" C.squared
Substitution2: "'ss05' Style Set 5 in Latin lookup 51 subtable" uni24B8
Position2: "'cpsp' Capital Spacing in Latin lookup 0 subtable" dx=0 dy=0 dh=0 dv=0
EndChar

StartChar: uni0187
Encoding: 391 391 74
Width: 1493
GlyphClass: 2
Flags: W
AnchorPoint: "Anchor-3" 679 -3 basechar 0
AnchorPoint: "Anchor-1" 928 1490 basechar 0
LayerCount: 2
Fore
SplineSet
1267 1001 m 1,0,-1
 1334 1408 l 2,1,2
 1357 1545 1357 1545 1447.5 1613.5 c 128,-1,3
 1538 1682 1538 1682 1689 1682 c 0,4,5
 1727 1682 1727 1682 1757 1680.5 c 128,-1,6
 1787 1679 1787 1679 1809 1676 c 1,7,-1
 1780 1502 l 1,8,9
 1763 1503 1763 1503 1736.5 1503.5 c 128,-1,10
 1710 1504 1710 1504 1693 1504 c 0,11,12
 1622 1504 1622 1504 1587 1480.5 c 128,-1,13
 1552 1457 1552 1457 1545 1406 c 2,14,-1
 1478 1001 l 1,15,-1
 1267 1001 l 1,0,-1
699 -22 m 0,16,17
 523 -22 523 -22 392 52.5 c 128,-1,18
 261 127 261 127 189.5 263 c 128,-1,19
 118 399 118 399 118 587 c 0,20,21
 118 766 118 766 175 932 c 128,-1,22
 232 1098 232 1098 339 1229 c 128,-1,23
 446 1360 446 1360 595 1436 c 128,-1,24
 744 1512 744 1512 929 1512 c 0,25,26
 1050 1512 1050 1512 1150.5 1477 c 128,-1,27
 1251 1442 1251 1442 1324.5 1376 c 128,-1,28
 1398 1310 1398 1310 1437.5 1215.5 c 128,-1,29
 1477 1121 1477 1121 1477 1001 c 1,30,-1
 1251 1001 l 1,31,32
 1247 1074 1247 1074 1222 1131 c 128,-1,33
 1197 1188 1197 1188 1154 1227.5 c 128,-1,34
 1111 1267 1111 1267 1052 1287 c 128,-1,35
 993 1307 993 1307 921 1307 c 0,36,37
 785 1307 785 1307 677.5 1246 c 128,-1,38
 570 1185 570 1185 495 1081.5 c 128,-1,39
 420 978 420 978 380.5 850 c 128,-1,40
 341 722 341 722 341 590 c 0,41,42
 341 462 341 462 386 370.5 c 128,-1,43
 431 279 431 279 513.5 231 c 128,-1,44
 596 183 596 183 710 183 c 0,45,46
 786 183 786 183 855.5 203.5 c 128,-1,47
 925 224 925 224 985 263 c 128,-1,48
 1045 302 1045 302 1091 358.5 c 128,-1,49
 1137 415 1137 415 1166 489 c 1,50,-1
 1393 489 l 1,51,52
 1356 374 1356 374 1288.5 280.5 c 128,-1,53
 1221 187 1221 187 1129 119 c 128,-1,54
 1037 51 1037 51 928.5 14.5 c 128,-1,55
 820 -22 820 -22 699 -22 c 0,16,17
EndSplineSet
Position2: "'cpsp' Capital Spacing in Latin lookup 0 subtable" dx=0 dy=0 dh=0 dv=0
EndChar

StartChar: uni023B
Encoding: 571 571 81
Width: 1493
GlyphClass: 2
Flags: W
AnchorPoint: "Anchor-3" 679 -3 basechar 0
AnchorPoint: "Anchor-1" 928 1490 basechar 0
LayerCount: 2
Fore
SplineSet
214 -190 m 1,0,-1
 1168 1678 l 1,1,-1
 1341 1678 l 1,2,-1
 388 -190 l 1,3,-1
 214 -190 l 1,0,-1
699 -22 m 0,4,5
 523 -22 523 -22 392 52.5 c 128,-1,6
 261 127 261 127 189.5 263 c 128,-1,7
 118 399 118 399 118 587 c 0,8,9
 118 766 118 766 175 932 c 128,-1,10
 232 1098 232 1098 339 1229 c 128,-1,11
 446 1360 446 1360 595 1436 c 128,-1,12
 744 1512 744 1512 929 1512 c 0,13,14
 1050 1512 1050 1512 1150.5 1477 c 128,-1,15
 1251 1442 1251 1442 1324.5 1376 c 128,-1,16
 1398 1310 1398 1310 1437.5 1215.5 c 128,-1,17
 1477 1121 1477 1121 1477 1001 c 1,18,-1
 1251 1001 l 1,19,20
 1247 1074 1247 1074 1222 1131 c 128,-1,21
 1197 1188 1197 1188 1154 1227.5 c 128,-1,22
 1111 1267 1111 1267 1052 1287 c 128,-1,23
 993 1307 993 1307 921 1307 c 0,24,25
 785 1307 785 1307 677.5 1246 c 128,-1,26
 570 1185 570 1185 495 1081.5 c 128,-1,27
 420 978 420 978 380.5 850 c 128,-1,28
 341 722 341 722 341 590 c 0,29,30
 341 462 341 462 386 370.5 c 128,-1,31
 431 279 431 279 513.5 231 c 128,-1,32
 596 183 596 183 710 183 c 0,33,34
 786 183 786 183 855.5 203.5 c 128,-1,35
 925 224 925 224 985 263 c 128,-1,36
 1045 302 1045 302 1091 358.5 c 128,-1,37
 1137 415 1137 415 1166 489 c 1,38,-1
 1393 489 l 1,39,40
 1356 374 1356 374 1288.5 280.5 c 128,-1,41
 1221 187 1221 187 1129 119 c 128,-1,42
 1037 51 1037 51 928.5 14.5 c 128,-1,43
 820 -22 820 -22 699 -22 c 0,4,5
EndSplineSet
Ligature2: "'ccmp' Glyph Composition/Decomposition in Latin lookup 6 subtable" C uni0338
Position2: "'cpsp' Capital Spacing in Latin lookup 0 subtable" dx=0 dy=0 dh=0 dv=0
EndChar

StartChar: uni0186
Encoding: 390 390 82
Width: 1493
GlyphClass: 2
Flags: W
AnchorPoint: "Anchor-3" 881 1494 basechar 0
AnchorPoint: "Anchor-1" 632 0 basechar 0
LayerCount: 2
Fore
SplineSet
861 1512 m 0,0,1
 1038 1512 1038 1512 1169 1438 c 128,-1,2
 1300 1364 1300 1364 1371.5 1227.5 c 128,-1,3
 1443 1091 1443 1091 1443 904 c 0,4,5
 1443 725 1443 725 1385.5 559 c 128,-1,6
 1328 393 1328 393 1221.5 261.5 c 128,-1,7
 1115 130 1115 130 965.5 54 c 128,-1,8
 816 -22 816 -22 632 -22 c 0,9,10
 511 -22 511 -22 410.5 13 c 128,-1,11
 310 48 310 48 236.5 114.5 c 128,-1,12
 163 181 163 181 123.5 275.5 c 128,-1,13
 84 370 84 370 83 490 c 1,14,-1
 311 490 l 1,15,16
 314 416 314 416 338.5 359 c 128,-1,17
 363 302 363 302 406.5 263 c 128,-1,18
 450 224 450 224 509 203.5 c 128,-1,19
 568 183 568 183 640 183 c 0,20,21
 776 183 776 183 884 244.5 c 128,-1,22
 992 306 992 306 1066.5 409.5 c 128,-1,23
 1141 513 1141 513 1180.5 640.5 c 128,-1,24
 1220 768 1220 768 1220 900 c 0,25,26
 1220 1029 1220 1029 1175.5 1120 c 128,-1,27
 1131 1211 1131 1211 1048.5 1259 c 128,-1,28
 966 1307 966 1307 850 1307 c 0,29,30
 775 1307 775 1307 705.5 1287 c 128,-1,31
 636 1267 636 1267 576 1228 c 128,-1,32
 516 1189 516 1189 469.5 1132 c 128,-1,33
 423 1075 423 1075 395 1002 c 1,34,-1
 168 1002 l 1,35,36
 205 1117 205 1117 272.5 1210.5 c 128,-1,37
 340 1304 340 1304 431.5 1372 c 128,-1,38
 523 1440 523 1440 632.5 1476 c 128,-1,39
 742 1512 742 1512 861 1512 c 0,0,1
EndSplineSet
Position2: "'cpsp' Capital Spacing in Latin lookup 0 subtable" dx=0 dy=0 dh=0 dv=0
EndChar

StartChar: D
Encoding: 68 68 84
Width: 1449
GlyphClass: 2
Flags: W
AnchorPoint: "Anchor-1" 757 1490 basechar 0
AnchorPoint: "Anchor-0" 530 0 basechar 0
LayerCount: 2
Fore
SplineSet
578 0 m 2,0,-1
 176 0 l 1,1,-1
 208 196 l 1,2,-1
 563 196 l 2,3,4
 734 196 734 196 858 261 c 128,-1,5
 982 326 982 326 1058.5 450 c 128,-1,6
 1135 574 1135 574 1163 747 c 0,7,8
 1192 921 1192 921 1160.5 1043 c 128,-1,9
 1129 1165 1129 1165 1034.5 1229.5 c 128,-1,10
 940 1294 940 1294 775 1294 c 2,11,-1
 382 1294 l 1,12,-1
 416 1490 l 1,13,-1
 789 1490 l 2,14,15
 1009 1490 1009 1490 1155.5 1400.5 c 128,-1,16
 1302 1311 1302 1311 1363.5 1144.5 c 128,-1,17
 1425 978 1425 978 1386 746 c 0,18,19
 1348 513 1348 513 1243.5 346 c 128,-1,20
 1139 179 1139 179 972 89.5 c 128,-1,21
 805 0 805 0 578 0 c 2,0,-1
533 1490 m 1,22,-1
 286 0 l 1,23,-1
 60 0 l 1,24,-1
 307 1490 l 1,25,-1
 533 1490 l 1,22,-1
EndSplineSet
Substitution2: "'ss06' Style Set 6 in Latin lookup 52 subtable" D.squared
Substitution2: "'ss05' Style Set 5 in Latin lookup 51 subtable" uni24B9
Position2: "'cpsp' Capital Spacing in Latin lookup 0 subtable" dx=0 dy=0 dh=0 dv=0
EndChar

StartChar: uni018A
Encoding: 394 394 85
Width: 1765
GlyphClass: 2
Flags: W
AnchorPoint: "Anchor-1" 1073 1490 basechar 0
AnchorPoint: "Anchor-0" 846 0 basechar 0
LayerCount: 2
Fore
SplineSet
136 1071 m 1,0,-1
 156 1194 l 2,1,2
 180 1340 180 1340 270.5 1415 c 128,-1,3
 361 1490 361 1490 522 1490 c 2,4,-1
 623 1490 l 1,5,-1
 591 1297 l 1,6,-1
 502 1297 l 2,7,8
 439 1297 439 1297 405.5 1270 c 128,-1,9
 372 1243 372 1243 363 1183 c 2,10,-1
 344 1071 l 1,11,-1
 136 1071 l 1,0,-1
894 0 m 2,12,-1
 492 0 l 1,13,-1
 524 196 l 1,14,-1
 879 196 l 2,15,16
 1050 196 1050 196 1174 261 c 128,-1,17
 1298 326 1298 326 1374.5 450 c 128,-1,18
 1451 574 1451 574 1479 747 c 0,19,20
 1508 921 1508 921 1476.5 1043 c 128,-1,21
 1445 1165 1445 1165 1350.5 1229.5 c 128,-1,22
 1256 1294 1256 1294 1091 1294 c 2,23,-1
 698 1294 l 1,24,-1
 732 1490 l 1,25,-1
 1105 1490 l 2,26,27
 1325 1490 1325 1490 1471.5 1400.5 c 128,-1,28
 1618 1311 1618 1311 1679.5 1144.5 c 128,-1,29
 1741 978 1741 978 1702 746 c 0,30,31
 1664 513 1664 513 1559.5 346 c 128,-1,32
 1455 179 1455 179 1288 89.5 c 128,-1,33
 1121 0 1121 0 894 0 c 2,12,-1
849 1490 m 1,34,-1
 602 0 l 1,35,-1
 376 0 l 1,36,-1
 623 1490 l 1,37,-1
 849 1490 l 1,34,-1
EndSplineSet
Position2: "'cpsp' Capital Spacing in Latin lookup 0 subtable" dx=0 dy=0 dh=0 dv=0
EndChar

StartChar: E
Encoding: 69 69 95
Width: 1221
GlyphClass: 2
Flags: W
AnchorPoint: "Anchor-4" 1034 0 basechar 0
AnchorPoint: "Anchor-3" 552 0 basechar 0
AnchorPoint: "Anchor-1" 795 1490 basechar 0
AnchorPoint: "Anchor-0" 548 0 basechar 0
LayerCount: 2
Fore
SplineSet
60 0 m 1,0,-1
 307 1490 l 1,1,-1
 1278 1490 l 1,2,-1
 1245 1296 l 1,3,-1
 501 1296 l 1,4,-1
 428 853 l 1,5,-1
 1118 853 l 1,6,-1
 1086 659 l 1,7,-1
 395 659 l 1,8,-1
 318 196 l 1,9,-1
 1066 196 l 1,10,-1
 1034 0 l 1,11,-1
 60 0 l 1,0,-1
EndSplineSet
Substitution2: "'ss06' Style Set 6 in Latin lookup 52 subtable" E.squared
Substitution2: "'ss05' Style Set 5 in Latin lookup 51 subtable" uni24BA
Position2: "'cpsp' Capital Spacing in Latin lookup 0 subtable" dx=0 dy=0 dh=0 dv=0
EndChar

StartChar: uni0246
Encoding: 582 582 121
Width: 1221
GlyphClass: 2
Flags: W
AnchorPoint: "Anchor-4" 1034 0 basechar 0
AnchorPoint: "Anchor-3" 552 0 basechar 0
AnchorPoint: "Anchor-1" 795 1490 basechar 0
AnchorPoint: "Anchor-0" 548 0 basechar 0
LayerCount: 2
Fore
SplineSet
186 -190 m 1,0,-1
 1035 1678 l 1,1,-1
 1200 1678 l 1,2,-1
 352 -190 l 1,3,-1
 186 -190 l 1,0,-1
60 0 m 1,4,-1
 307 1490 l 1,5,-1
 1278 1490 l 1,6,-1
 1245 1296 l 1,7,-1
 501 1296 l 1,8,-1
 428 853 l 1,9,-1
 1118 853 l 1,10,-1
 1086 659 l 1,11,-1
 395 659 l 1,12,-1
 318 196 l 1,13,-1
 1066 196 l 1,14,-1
 1034 0 l 1,15,-1
 60 0 l 1,4,-1
EndSplineSet
Position2: "'cpsp' Capital Spacing in Latin lookup 0 subtable" dx=0 dy=0 dh=0 dv=0
EndChar

StartChar: Eturn
Encoding: 398 398 122
Width: 1221
GlyphClass: 2
Flags: W
AnchorPoint: "Anchor-4" 255 1490 basechar 0
AnchorPoint: "Anchor-3" 479 0 basechar 0
AnchorPoint: "Anchor-1" 729 1490 basechar 0
AnchorPoint: "Anchor-0" 476 0 basechar 0
LayerCount: 2
Fore
SplineSet
1228 1490 m 1,0,-1
 981 0 l 1,1,-1
 11 0 l 1,2,-1
 44 196 l 1,3,-1
 788 196 l 1,4,-1
 861 638 l 1,5,-1
 170 638 l 1,6,-1
 203 831 l 1,7,-1
 893 831 l 1,8,-1
 970 1296 l 1,9,-1
 222 1296 l 1,10,-1
 255 1490 l 1,11,-1
 1228 1490 l 1,0,-1
EndSplineSet
Position2: "'cpsp' Capital Spacing in Latin lookup 0 subtable" dx=0 dy=0 dh=0 dv=0
EndChar

StartChar: F
Encoding: 70 70 137
Width: 1181
GlyphClass: 2
Flags: W
AnchorPoint: "Anchor-1" 782 1490 basechar 0
AnchorPoint: "Anchor-0" 174 0 basechar 0
LayerCount: 2
Fore
SplineSet
60 0 m 1,0,-1
 307 1490 l 1,1,-1
 1256 1490 l 1,2,-1
 1224 1296 l 1,3,-1
 501 1296 l 1,4,-1
 424 831 l 1,5,-1
 1085 831 l 1,6,-1
 1053 639 l 1,7,-1
 392 639 l 1,8,-1
 286 0 l 1,9,-1
 60 0 l 1,0,-1
EndSplineSet
Substitution2: "'ss06' Style Set 6 in Latin lookup 52 subtable" F.squared
Substitution2: "'ss05' Style Set 5 in Latin lookup 51 subtable" uni24BB
Position2: "'cpsp' Capital Spacing in Latin lookup 0 subtable" dx=0 dy=0 dh=0 dv=0
EndChar

StartChar: uni0191
Encoding: 401 401 138
Width: 1181
GlyphClass: 2
Flags: W
AnchorPoint: "Anchor-1" 782 1490 basechar 0
AnchorPoint: "Anchor-0" 174 0 basechar 0
LayerCount: 2
Fore
SplineSet
-219 -418 m 1,0,-1
 -189 -233 l 1,1,2
 -172 -235 -172 -235 -145.5 -235.5 c 128,-1,3
 -119 -236 -119 -236 -102 -236 c 0,4,5
 -31 -236 -31 -236 -1 -212.5 c 128,-1,6
 29 -189 29 -189 37 -139 c 2,7,-1
 81 127 l 1,8,-1
 307 127 l 1,9,-1
 261 -149 l 2,10,11
 238 -284 238 -284 147.5 -353.5 c 128,-1,12
 57 -423 57 -423 -95 -423 c 0,13,14
 -135 -423 -135 -423 -167 -422 c 128,-1,15
 -199 -421 -199 -421 -219 -418 c 1,0,-1
60 0 m 1,16,-1
 307 1490 l 1,17,-1
 1256 1490 l 1,18,-1
 1224 1296 l 1,19,-1
 501 1296 l 1,20,-1
 424 831 l 1,21,-1
 1085 831 l 1,22,-1
 1053 639 l 1,23,-1
 392 639 l 1,24,-1
 286 0 l 1,25,-1
 60 0 l 1,16,-1
EndSplineSet
Position2: "'cpsp' Capital Spacing in Latin lookup 0 subtable" dx=0 dy=0 dh=0 dv=0
EndChar

StartChar: Fturn
Encoding: 8498 8498 140
Width: 1181
GlyphClass: 2
Flags: W
AnchorPoint: "Anchor-1" 1075 1490 basechar 0
AnchorPoint: "Anchor-0" 464 0 basechar 0
LayerCount: 2
Fore
SplineSet
1188 1490 m 1,0,-1
 941 0 l 1,1,-1
 -8 0 l 1,2,-1
 24 196 l 1,3,-1
 748 196 l 1,4,-1
 825 659 l 1,5,-1
 163 659 l 1,6,-1
 195 852 l 1,7,-1
 857 852 l 1,8,-1
 962 1490 l 1,9,-1
 1188 1490 l 1,0,-1
EndSplineSet
Position2: "'cpsp' Capital Spacing in Latin lookup 0 subtable" dx=0 dy=0 dh=0 dv=0
EndChar

StartChar: G
Encoding: 1114113 -1 141
Width: 1516
GlyphClass: 2
Flags: W
AnchorPoint: "Anchor-1" 926 1490 basechar 0
AnchorPoint: "Anchor-0" 677 0 basechar 0
LayerCount: 2
Fore
SplineSet
700 -22 m 0,0,1
 521 -22 521 -22 390.5 53 c 128,-1,2
 260 128 260 128 189 264.5 c 128,-1,3
 118 401 118 401 118 586 c 0,4,5
 118 765 118 765 175.5 931 c 128,-1,6
 233 1097 233 1097 339 1228 c 128,-1,7
 445 1359 445 1359 593.5 1435.5 c 128,-1,8
 742 1512 742 1512 924 1512 c 0,9,10
 1045 1512 1045 1512 1147 1476 c 128,-1,11
 1249 1440 1249 1440 1323.5 1373.5 c 128,-1,12
 1398 1307 1398 1307 1438.5 1215 c 128,-1,13
 1479 1123 1479 1123 1478 1011 c 1,14,-1
 1248 1011 l 1,15,16
 1243 1078 1243 1078 1218.5 1132.5 c 128,-1,17
 1194 1187 1194 1187 1151.5 1226 c 128,-1,18
 1109 1265 1109 1265 1050 1286 c 128,-1,19
 991 1307 991 1307 917 1307 c 0,20,21
 783 1307 783 1307 676.5 1245.5 c 128,-1,22
 570 1184 570 1184 495 1081 c 128,-1,23
 420 978 420 978 380.5 850.5 c 128,-1,24
 341 723 341 723 341 593 c 0,25,26
 341 399 341 399 440.5 291 c 128,-1,27
 540 183 540 183 711 183 c 0,28,29
 833 183 833 183 936.5 235 c 128,-1,30
 1040 287 1040 287 1109.5 378.5 c 128,-1,31
 1179 470 1179 470 1199 591 c 1,32,-1
 1258 576 l 1,33,-1
 829 576 l 1,34,-1
 861 762 l 1,35,-1
 1448 762 l 1,36,-1
 1419 584 l 2,37,38
 1396 448 1396 448 1331.5 336.5 c 128,-1,39
 1267 225 1267 225 1171 145 c 128,-1,40
 1075 65 1075 65 955 21.5 c 128,-1,41
 835 -22 835 -22 700 -22 c 0,0,1
EndSplineSet
Substitution2: "'c2sc' Capitals to Small Capitals in Latin lookup 67 subtable" g.sc
Substitution2: "'cv10' Character Variants 10 in Latin lookup 64 subtable" G.1
Substitution2: "'ss06' Style Set 6 in Latin lookup 52 subtable" G.squared
Substitution2: "'ss05' Style Set 5 in Latin lookup 51 subtable" uni24BC
Substitution2: "'salt' Stylistic Alternatives in Latin lookup 46 subtable" G.1
Substitution2: "'aalt' Access All Alternates in Latin lookup 0 subtable" g.sc
Position2: "'cpsp' Capital Spacing in Latin lookup 0 subtable" dx=0 dy=0 dh=0 dv=0
EndChar

StartChar: uni0193
Encoding: 1114115 -1 143
Width: 1516
GlyphClass: 2
Flags: W
AnchorPoint: "Anchor-1" 926 1490 basechar 0
AnchorPoint: "Anchor-0" 677 0 basechar 0
LayerCount: 2
Fore
SplineSet
1318 1036 m 1,0,-1
 1346 1411 l 2,1,2
 1352 1504 1352 1504 1396 1563.5 c 128,-1,3
 1440 1623 1440 1623 1515 1651.5 c 128,-1,4
 1590 1680 1590 1680 1688 1680 c 0,5,6
 1727 1680 1727 1680 1757 1678.5 c 128,-1,7
 1787 1677 1787 1677 1808 1675 c 1,8,-1
 1779 1500 l 1,9,10
 1763 1501 1763 1501 1736 1501.5 c 128,-1,11
 1709 1502 1709 1502 1692 1502 c 0,12,13
 1622 1502 1622 1502 1587 1479 c 128,-1,14
 1552 1456 1552 1456 1543 1405 c 2,15,-1
 1479 1011 l 1,16,-1
 1318 1036 l 1,0,-1
700 -22 m 0,17,18
 521 -22 521 -22 390.5 53 c 128,-1,19
 260 128 260 128 189 264.5 c 128,-1,20
 118 401 118 401 118 586 c 0,21,22
 118 765 118 765 175.5 931 c 128,-1,23
 233 1097 233 1097 339 1228 c 128,-1,24
 445 1359 445 1359 593.5 1435.5 c 128,-1,25
 742 1512 742 1512 924 1512 c 0,26,27
 1045 1512 1045 1512 1147 1476 c 128,-1,28
 1249 1440 1249 1440 1323.5 1373.5 c 128,-1,29
 1398 1307 1398 1307 1438.5 1215 c 128,-1,30
 1479 1123 1479 1123 1478 1011 c 1,31,-1
 1248 1011 l 1,32,33
 1243 1078 1243 1078 1218.5 1132.5 c 128,-1,34
 1194 1187 1194 1187 1151.5 1226 c 128,-1,35
 1109 1265 1109 1265 1050 1286 c 128,-1,36
 991 1307 991 1307 917 1307 c 0,37,38
 783 1307 783 1307 676.5 1245.5 c 128,-1,39
 570 1184 570 1184 495 1081 c 128,-1,40
 420 978 420 978 380.5 850.5 c 128,-1,41
 341 723 341 723 341 593 c 0,42,43
 341 399 341 399 440.5 291 c 128,-1,44
 540 183 540 183 711 183 c 0,45,46
 833 183 833 183 936.5 235 c 128,-1,47
 1040 287 1040 287 1109.5 378.5 c 128,-1,48
 1179 470 1179 470 1199 591 c 1,49,-1
 1258 576 l 1,50,-1
 829 576 l 1,51,-1
 861 762 l 1,52,-1
 1448 762 l 1,53,-1
 1419 584 l 2,54,55
 1396 448 1396 448 1331.5 336.5 c 128,-1,56
 1267 225 1267 225 1171 145 c 128,-1,57
 1075 65 1075 65 955 21.5 c 128,-1,58
 835 -22 835 -22 700 -22 c 0,17,18
EndSplineSet
Substitution2: "'c2sc' Capitals to Small Capitals in Latin lookup 67 subtable" uni0260.sc
Substitution2: "'cv10' Character Variants 10 in Latin lookup 64 subtable" uni0193.1
Substitution2: "'salt' Stylistic Alternatives in Latin lookup 46 subtable" uni0193.1
Substitution2: "'aalt' Access All Alternates in Latin lookup 0 subtable" uni0260.sc
Position2: "'cpsp' Capital Spacing in Latin lookup 0 subtable" dx=0 dy=0 dh=0 dv=0
EndChar

StartChar: G.1
Encoding: 57346 57346 151
AltUni2: 000047.ffffffff.0
Width: 1515
GlyphClass: 2
Flags: W
AnchorPoint: "Anchor-1" 932 1490 basechar 0
AnchorPoint: "Anchor-0" 668 1 basechar 0
LayerCount: 2
Fore
SplineSet
671 -22 m 0,0,1
 479 -22 479 -22 344 73.5 c 128,-1,2
 209 169 209 169 150.5 341.5 c 128,-1,3
 92 514 92 514 130 744 c 0,4,5
 159 919 159 919 233 1061 c 128,-1,6
 307 1203 307 1203 414.5 1304 c 128,-1,7
 522 1405 522 1405 655 1458.5 c 128,-1,8
 788 1512 788 1512 936 1512 c 0,9,10
 1058 1512 1058 1512 1157.5 1475.5 c 128,-1,11
 1257 1439 1257 1439 1329.5 1372 c 128,-1,12
 1402 1305 1402 1305 1440.5 1213 c 128,-1,13
 1479 1121 1479 1121 1479 1011 c 1,14,-1
 1249 1011 l 1,15,16
 1242 1078 1242 1078 1216 1132.5 c 128,-1,17
 1190 1187 1190 1187 1145.5 1226 c 128,-1,18
 1101 1265 1101 1265 1040.5 1286 c 128,-1,19
 980 1307 980 1307 904 1307 c 0,20,21
 772 1307 772 1307 657.5 1240 c 128,-1,22
 543 1173 543 1173 464 1046.5 c 128,-1,23
 385 920 385 920 355 745 c 0,24,25
 326 571 326 571 364 445 c 128,-1,26
 402 319 402 319 495 251 c 128,-1,27
 588 183 588 183 725 183 c 0,28,29
 845 183 845 183 945.5 234 c 128,-1,30
 1046 285 1046 285 1114 379 c 128,-1,31
 1182 473 1182 473 1204 603 c 1,32,-1
 1306 603 l 1,33,-1
 1286 482 l 2,34,35
 1270 385 1270 385 1221.5 294.5 c 128,-1,36
 1173 204 1173 204 1093.5 133 c 128,-1,37
 1014 62 1014 62 908 20 c 128,-1,38
 802 -22 802 -22 671 -22 c 0,0,1
1157 0 m 1,39,-1
 1171 291 l 1,40,-1
 1218 576 l 1,41,-1
 829 576 l 1,42,-1
 860 762 l 1,43,-1
 1448 762 l 1,44,-1
 1323 0 l 1,45,-1
 1157 0 l 1,39,-1
EndSplineSet
Substitution2: "'ss06' Style Set 6 in Latin lookup 52 subtable" G.1.squared
EndChar

StartChar: uni0193.1
Encoding: 57348 57348 153
AltUni2: 000193.ffffffff.0
Width: 1515
GlyphClass: 2
Flags: W
AnchorPoint: "Anchor-1" 932 1490 basechar 0
AnchorPoint: "Anchor-0" 668 1 basechar 0
LayerCount: 2
Fore
SplineSet
1317 1036 m 1,0,-1
 1346 1411 l 2,1,2
 1352 1504 1352 1504 1396 1563.5 c 128,-1,3
 1440 1623 1440 1623 1515 1651.5 c 128,-1,4
 1590 1680 1590 1680 1688 1680 c 0,5,6
 1727 1680 1727 1680 1757 1678.5 c 128,-1,7
 1787 1677 1787 1677 1807 1675 c 1,8,-1
 1779 1500 l 1,9,10
 1762 1501 1762 1501 1735.5 1501.5 c 128,-1,11
 1709 1502 1709 1502 1692 1502 c 0,12,13
 1622 1502 1622 1502 1587 1479 c 128,-1,14
 1552 1456 1552 1456 1543 1405 c 2,15,-1
 1479 1011 l 1,16,-1
 1317 1036 l 1,0,-1
671 -22 m 0,17,18
 479 -22 479 -22 344 73.5 c 128,-1,19
 209 169 209 169 150.5 341.5 c 128,-1,20
 92 514 92 514 130 744 c 0,21,22
 159 919 159 919 233 1061 c 128,-1,23
 307 1203 307 1203 414.5 1304 c 128,-1,24
 522 1405 522 1405 655 1458.5 c 128,-1,25
 788 1512 788 1512 936 1512 c 0,26,27
 1058 1512 1058 1512 1157.5 1475.5 c 128,-1,28
 1257 1439 1257 1439 1329.5 1372 c 128,-1,29
 1402 1305 1402 1305 1440.5 1213 c 128,-1,30
 1479 1121 1479 1121 1479 1011 c 1,31,-1
 1249 1011 l 1,32,33
 1242 1078 1242 1078 1216 1132.5 c 128,-1,34
 1190 1187 1190 1187 1145.5 1226 c 128,-1,35
 1101 1265 1101 1265 1040.5 1286 c 128,-1,36
 980 1307 980 1307 904 1307 c 0,37,38
 772 1307 772 1307 657.5 1240 c 128,-1,39
 543 1173 543 1173 464 1046.5 c 128,-1,40
 385 920 385 920 355 745 c 0,41,42
 326 571 326 571 364 445 c 128,-1,43
 402 319 402 319 495 251 c 128,-1,44
 588 183 588 183 725 183 c 0,45,46
 845 183 845 183 945.5 234 c 128,-1,47
 1046 285 1046 285 1114 379 c 128,-1,48
 1182 473 1182 473 1204 603 c 1,49,-1
 1306 603 l 1,50,-1
 1286 482 l 2,51,52
 1270 385 1270 385 1221.5 294.5 c 128,-1,53
 1173 204 1173 204 1093.5 133 c 128,-1,54
 1014 62 1014 62 908 20 c 128,-1,55
 802 -22 802 -22 671 -22 c 0,17,18
1157 0 m 1,56,-1
 1171 291 l 1,57,-1
 1218 576 l 1,58,-1
 829 576 l 1,59,-1
 860 762 l 1,60,-1
 1448 762 l 1,61,-1
 1323 0 l 1,62,-1
 1157 0 l 1,56,-1
EndSplineSet
EndChar

StartChar: H
Encoding: 72 72 161
Width: 1492
GlyphClass: 2
Flags: W
AnchorPoint: "Anchor-3" 175 0 basechar 0
AnchorPoint: "Anchor-1" 903 1490 basechar 0
AnchorPoint: "Anchor-0" 656 0 basechar 0
LayerCount: 2
Fore
SplineSet
60 0 m 1,0,-1
 307 1490 l 1,1,-1
 533 1490 l 1,2,-1
 428 860 l 1,3,-1
 1167 860 l 1,4,-1
 1272 1490 l 1,5,-1
 1497 1490 l 1,6,-1
 1250 0 l 1,7,-1
 1025 0 l 1,8,-1
 1135 665 l 1,9,-1
 396 665 l 1,10,-1
 286 0 l 1,11,-1
 60 0 l 1,0,-1
EndSplineSet
Substitution2: "'c2sc' Capitals to Small Capitals in Latin lookup 67 subtable" h.sc
Substitution2: "'ss06' Style Set 6 in Latin lookup 52 subtable" H.squared
Substitution2: "'ss05' Style Set 5 in Latin lookup 51 subtable" uni24BD
Substitution2: "'aalt' Access All Alternates in Latin lookup 0 subtable" h.sc
Position2: "'cpsp' Capital Spacing in Latin lookup 0 subtable" dx=0 dy=0 dh=0 dv=0
EndChar

StartChar: Hbar
Encoding: 294 294 169
Width: 1570
GlyphClass: 2
Flags: W
AnchorPoint: "Anchor-3" 216 0 basechar 0
AnchorPoint: "Anchor-1" 943 1490 basechar 0
AnchorPoint: "Anchor-0" 696 0 basechar 0
LayerCount: 2
Fore
SplineSet
1608 1193 m 1,0,-1
 1582 1033 l 1,1,-1
 153 1033 l 1,2,-1
 178 1193 l 1,3,-1
 1608 1193 l 1,0,-1
101 0 m 1,4,-1
 348 1490 l 1,5,-1
 573 1490 l 1,6,-1
 469 860 l 1,7,-1
 1208 860 l 1,8,-1
 1312 1490 l 1,9,-1
 1538 1490 l 1,10,-1
 1291 0 l 1,11,-1
 1065 0 l 1,12,-1
 1176 665 l 1,13,-1
 437 665 l 1,14,-1
 326 0 l 1,15,-1
 101 0 l 1,4,-1
EndSplineSet
Position2: "'cpsp' Capital Spacing in Latin lookup 0 subtable" dx=0 dy=0 dh=0 dv=0
EndChar

StartChar: uni04C7
Encoding: 1223 1223 170
Width: 1492
GlyphClass: 2
Flags: W
AnchorPoint: "Anchor-3" 175 0 basechar 0
AnchorPoint: "Anchor-1" 903 1490 basechar 0
AnchorPoint: "Anchor-0" 656 0 basechar 0
LayerCount: 2
Fore
SplineSet
745 -418 m 1,0,-1
 776 -233 l 1,1,2
 793 -235 793 -235 819.5 -235.5 c 128,-1,3
 846 -236 846 -236 863 -236 c 0,4,5
 934 -236 934 -236 964 -212.5 c 128,-1,6
 994 -189 994 -189 1002 -139 c 2,7,-1
 1046 127 l 1,8,-1
 1271 127 l 1,9,-1
 1226 -149 l 2,10,11
 1203 -284 1203 -284 1112.5 -353.5 c 128,-1,12
 1022 -423 1022 -423 869 -423 c 0,13,14
 830 -423 830 -423 798 -422 c 128,-1,15
 766 -421 766 -421 745 -418 c 1,0,-1
60 0 m 1,16,-1
 307 1490 l 1,17,-1
 533 1490 l 1,18,-1
 428 860 l 1,19,-1
 1167 860 l 1,20,-1
 1272 1490 l 1,21,-1
 1497 1490 l 1,22,-1
 1250 0 l 1,23,-1
 1025 0 l 1,24,-1
 1135 665 l 1,25,-1
 396 665 l 1,26,-1
 286 0 l 1,27,-1
 60 0 l 1,16,-1
EndSplineSet
Position2: "'cpsp' Capital Spacing in Latin lookup 0 subtable" dx=0 dy=0 dh=0 dv=0
EndChar

StartChar: uni04A4
Encoding: 1188 1188 173
Width: 1995
GlyphClass: 2
Flags: W
AnchorPoint: "Anchor-3" 175 0 basechar 0
AnchorPoint: "Anchor-1" 903 1490 basechar 0
AnchorPoint: "Anchor-0" 656 0 basechar 0
LayerCount: 2
Fore
SplineSet
2083 1490 m 1,0,-1
 2052 1300 l 1,1,-1
 1414 1300 l 1,2,-1
 1278 1490 l 1,3,-1
 2083 1490 l 1,0,-1
60 0 m 1,4,-1
 307 1490 l 1,5,-1
 533 1490 l 1,6,-1
 428 860 l 1,7,-1
 1167 860 l 1,8,-1
 1272 1490 l 1,9,-1
 1497 1490 l 1,10,-1
 1250 0 l 1,11,-1
 1025 0 l 1,12,-1
 1135 665 l 1,13,-1
 396 665 l 1,14,-1
 286 0 l 1,15,-1
 60 0 l 1,4,-1
EndSplineSet
Position2: "'cpsp' Capital Spacing in Latin lookup 0 subtable" dx=0 dy=0 dh=0 dv=0
EndChar

StartChar: uni01F6
Encoding: 502 502 174
Width: 2217
Flags: W
LayerCount: 2
Fore
SplineSet
1522 -20 m 0,0,1
 1372 -20 1372 -20 1268.5 37.5 c 128,-1,2
 1165 95 1165 95 1120.5 200.5 c 128,-1,3
 1076 306 1076 306 1100 453 c 2,4,-1
 1134 657 l 1,5,-1
 395 657 l 1,6,-1
 286 0 l 1,7,-1
 60 0 l 1,8,-1
 307 1490 l 1,9,-1
 533 1490 l 1,10,-1
 427 852 l 1,11,-1
 1166 852 l 1,12,-1
 1272 1490 l 1,13,-1
 1498 1490 l 1,14,-1
 1325 444 l 2,15,16
 1302 306 1302 306 1355 240 c 128,-1,17
 1408 174 1408 174 1529 174 c 0,18,19
 1616 174 1616 174 1682 206.5 c 128,-1,20
 1748 239 1748 239 1791.5 303 c 128,-1,21
 1835 367 1835 367 1849 458 c 2,22,-1
 1953 1082 l 1,23,-1
 2173 1082 l 1,24,-1
 2067 438 l 2,25,26
 2043 291 2043 291 1967.5 189 c 128,-1,27
 1892 87 1892 87 1777.5 33.5 c 128,-1,28
 1663 -20 1663 -20 1522 -20 c 0,0,1
EndSplineSet
Position2: "'cpsp' Capital Spacing in Latin lookup 0 subtable" dx=0 dy=0 dh=0 dv=0
EndChar

StartChar: I
Encoding: 73 73 197
Width: 527
GlyphClass: 2
Flags: W
AnchorPoint: "Anchor-4" 286 0 basechar 0
AnchorPoint: "Anchor-1" 421 1490 basechar 0
AnchorPoint: "Anchor-0" 173 0 basechar 0
LayerCount: 2
Fore
SplineSet
533 1490 m 1,0,-1
 286 0 l 1,1,-1
 60 0 l 1,2,-1
 307 1490 l 1,3,-1
 533 1490 l 1,0,-1
EndSplineSet
Substitution2: "'c2sc' Capitals to Small Capitals in Latin lookup 67 subtable" i.sc
Substitution2: "'cv08' Character Variants 08 in Latin lookup 62 subtable" I.1
Substitution2: "'ss06' Style Set 6 in Latin lookup 52 subtable" I.squared
Substitution2: "'ss05' Style Set 5 in Latin lookup 51 subtable" uni24BE
Substitution2: "'ss04' Style Set 4 in Latin lookup 50 subtable" I.1
Substitution2: "'ss02' Style Set 2 in Latin lookup 48 subtable" I.1
Substitution2: "'salt' Stylistic Alternatives in Latin lookup 46 subtable" I.1
Substitution2: "'aalt' Access All Alternates in Latin lookup 0 subtable" i.sc
Position2: "'cpsp' Capital Spacing in Latin lookup 0 subtable" dx=0 dy=0 dh=0 dv=0
EndChar

StartChar: I.1
Encoding: 57356 57356 235
Width: 829
GlyphClass: 2
Flags: W
AnchorPoint: "Anchor-4" 659 0 basechar 0
AnchorPoint: "Anchor-1" 572 1490 basechar 0
AnchorPoint: "Anchor-0" 325 0 basechar 0
LayerCount: 2
Fore
SplineSet
-10 0 m 1,0,-1
 22 193 l 1,1,-1
 244 193 l 1,2,-1
 427 1297 l 1,3,-1
 206 1297 l 1,4,-1
 237 1490 l 1,5,-1
 906 1490 l 1,6,-1
 873 1297 l 1,7,-1
 653 1297 l 1,8,-1
 469 193 l 1,9,-1
 691 193 l 1,10,-1
 659 0 l 1,11,-1
 -10 0 l 1,0,-1
EndSplineSet
EndChar

StartChar: J
Encoding: 74 74 267
Width: 1147
GlyphClass: 2
Flags: W
AnchorPoint: "Anchor-1" 1044 1490 basechar 0
LayerCount: 2
Fore
SplineSet
460 -20 m 0,0,1
 276 -20 276 -20 164.5 73 c 128,-1,2
 53 166 53 166 53 340 c 0,3,4
 53 354 53 354 54.5 373 c 128,-1,5
 56 392 56 392 61 426 c 128,-1,6
 66 460 66 460 75 518 c 1,7,-1
 298 518 l 1,8,9
 289 464 289 464 284.5 434.5 c 128,-1,10
 280 405 280 405 279 391 c 128,-1,11
 278 377 278 377 278 367 c 0,12,13
 278 272 278 272 330.5 223 c 128,-1,14
 383 174 383 174 476 174 c 0,15,16
 581 174 581 174 658 239 c 128,-1,17
 735 304 735 304 756 432 c 2,18,-1
 932 1490 l 1,19,-1
 1157 1490 l 1,20,-1
 981 432 l 2,21,22
 945 215 945 215 806 97.5 c 128,-1,23
 667 -20 667 -20 460 -20 c 0,0,1
EndSplineSet
Substitution2: "'ss06' Style Set 6 in Latin lookup 52 subtable" J.squared
Substitution2: "'ss05' Style Set 5 in Latin lookup 51 subtable" uni24BF
Position2: "'cpsp' Capital Spacing in Latin lookup 0 subtable" dx=0 dy=0 dh=0 dv=0
EndChar

StartChar: K
Encoding: 75 75 272
Width: 1371
GlyphClass: 2
Flags: W
AnchorPoint: "Anchor-1" 851 1490 basechar 0
AnchorPoint: "Anchor-0" 604 0 basechar 0
LayerCount: 2
Fore
SplineSet
284 392 m 1,0,-1
 318 649 l 1,1,2
 379 716 379 716 440 777.5 c 128,-1,3
 501 839 501 839 563 900 c 128,-1,4
 625 961 625 961 691 1025 c 2,5,-1
 1190 1490 l 1,6,-1
 1485 1490 l 1,7,-1
 736 794 l 1,8,-1
 721 797 l 1,9,-1
 284 392 l 1,0,-1
60 0 m 1,10,-1
 307 1490 l 1,11,-1
 535 1490 l 1,12,-1
 455 1011 l 1,13,-1
 396 672 l 1,14,-1
 380 563 l 1,15,-1
 288 0 l 1,16,-1
 60 0 l 1,10,-1
994 0 m 1,17,-1
 606 733 l 1,18,-1
 757 906 l 1,19,-1
 1244 0 l 1,20,-1
 994 0 l 1,17,-1
EndSplineSet
Substitution2: "'ss06' Style Set 6 in Latin lookup 52 subtable" K.squared
Substitution2: "'ss05' Style Set 5 in Latin lookup 51 subtable" uni24C0
Position2: "'cpsp' Capital Spacing in Latin lookup 0 subtable" dx=0 dy=0 dh=0 dv=0
EndChar

StartChar: uni04A0
Encoding: 1184 1184 278
Width: 1712
GlyphClass: 2
Flags: W
AnchorPoint: "Anchor-1" 1172 1490 basechar 0
LayerCount: 2
Fore
SplineSet
757 1490 m 1,0,-1
 725 1298 l 1,1,-1
 196 1298 l 1,2,-1
 228 1490 l 1,3,-1
 757 1490 l 1,0,-1
401 0 m 1,4,-1
 648 1490 l 1,5,-1
 874 1490 l 1,6,-1
 769 857 l 1,7,-1
 956 857 l 1,8,-1
 1534 1490 l 1,9,-1
 1807 1490 l 1,10,-1
 1135 767 l 1,11,-1
 1585 0 l 1,12,-1
 1326 0 l 1,13,-1
 943 661 l 1,14,-1
 736 661 l 1,15,-1
 627 0 l 1,16,-1
 401 0 l 1,4,-1
EndSplineSet
Position2: "'cpsp' Capital Spacing in Latin lookup 0 subtable" dx=0 dy=0 dh=0 dv=0
EndChar

StartChar: uni0198
Encoding: 408 408 280
Width: 1388
Flags: W
LayerCount: 2
Fore
SplineSet
61 0 m 1,0,-1
 307 1490 l 1,1,-1
 532 1490 l 1,2,-1
 414 783 l 1,3,-1
 433 783 l 1,4,-1
 1091 1391 l 2,5,6
 1165 1458 1165 1458 1243.5 1486.5 c 128,-1,7
 1322 1515 1322 1515 1396.5 1506 c 128,-1,8
 1471 1497 1471 1497 1535 1449 c 1,9,-1
 1426 1286 l 1,10,11
 1380 1316 1380 1316 1330.5 1306 c 128,-1,12
 1281 1296 1281 1296 1217 1239 c 2,13,-1
 746 814 l 1,14,-1
 1233 0 l 1,15,-1
 962 0 l 1,16,-1
 579 655 l 1,17,-1
 361 450 l 1,18,-1
 286 0 l 1,19,-1
 61 0 l 1,0,-1
EndSplineSet
Position2: "'cpsp' Capital Spacing in Latin lookup 0 subtable" dx=0 dy=0 dh=0 dv=0
EndChar

StartChar: L
Encoding: 76 76 282
Width: 1134
GlyphClass: 2
Flags: W
AnchorPoint: "Anchor-1" 420 1490 basechar 0
AnchorPoint: "Anchor-0" 511 0 basechar 0
LayerCount: 2
Fore
SplineSet
60 0 m 1,0,-1
 307 1490 l 1,1,-1
 533 1490 l 1,2,-1
 318 196 l 1,3,-1
 1007 196 l 1,4,-1
 975 0 l 1,5,-1
 60 0 l 1,0,-1
EndSplineSet
Substitution2: "'c2sc' Capitals to Small Capitals in Latin lookup 67 subtable" l.sc
Substitution2: "'ss06' Style Set 6 in Latin lookup 52 subtable" L.squared
Substitution2: "'ss05' Style Set 5 in Latin lookup 51 subtable" uni24C1
Substitution2: "'aalt' Access All Alternates in Latin lookup 0 subtable" l.sc
Position2: "'cpsp' Capital Spacing in Latin lookup 0 subtable" dx=0 dy=0 dh=0 dv=0
EndChar

StartChar: M
Encoding: 77 77 293
Width: 1825
GlyphClass: 2
Flags: W
AnchorPoint: "Anchor-1" 1068 1490 basechar 0
AnchorPoint: "Anchor-0" 822 0 basechar 0
LayerCount: 2
Fore
SplineSet
60 0 m 1,0,-1
 308 1490 l 1,1,-1
 631 1490 l 1,2,-1
 817 625 l 2,3,4
 825 587 825 587 833.5 530 c 128,-1,5
 842 473 842 473 851.5 409.5 c 128,-1,6
 861 346 861 346 868 286.5 c 128,-1,7
 875 227 875 227 880 184 c 1,8,-1
 830 189 l 1,9,10
 850 234 850 234 877 293.5 c 128,-1,11
 904 353 904 353 934 416.5 c 128,-1,12
 964 480 964 480 990.5 536 c 128,-1,13
 1017 592 1017 592 1037 629 c 2,14,-1
 1506 1490 l 1,15,-1
 1832 1490 l 1,16,-1
 1585 0 l 1,17,-1
 1362 0 l 1,18,-1
 1496 810 l 2,19,20
 1504 859 1504 859 1515.5 922 c 128,-1,21
 1527 985 1527 985 1540 1053.5 c 128,-1,22
 1553 1122 1553 1122 1566 1190.5 c 128,-1,23
 1579 1259 1579 1259 1590 1320 c 1,24,-1
 1614 1315 l 1,25,26
 1579 1242 1579 1242 1542.5 1167.5 c 128,-1,27
 1506 1093 1506 1093 1472.5 1024.5 c 128,-1,28
 1439 956 1439 956 1410.5 899.5 c 128,-1,29
 1382 843 1382 843 1361 805 c 2,30,-1
 917 0 l 1,31,-1
 729 0 l 1,32,-1
 550 809 l 2,33,34
 540 860 540 860 525.5 941.5 c 128,-1,35
 511 1023 511 1023 494.5 1121.5 c 128,-1,36
 478 1220 478 1220 461 1320 c 1,37,-1
 489 1315 l 1,38,39
 480 1252 480 1252 470 1183 c 128,-1,40
 460 1114 460 1114 450 1046 c 128,-1,41
 440 978 440 978 431 916 c 128,-1,42
 422 854 422 854 414 805 c 2,43,-1
 282 0 l 1,44,-1
 60 0 l 1,0,-1
EndSplineSet
Substitution2: "'c2sc' Capitals to Small Capitals in Latin lookup 67 subtable" m.sc
Substitution2: "'ss06' Style Set 6 in Latin lookup 52 subtable" M.squared
Substitution2: "'ss05' Style Set 5 in Latin lookup 51 subtable" uni24C2
Substitution2: "'aalt' Access All Alternates in Latin lookup 0 subtable" m.sc
Position2: "'cpsp' Capital Spacing in Latin lookup 0 subtable" dx=0 dy=0 dh=0 dv=0
EndChar

StartChar: N
Encoding: 78 78 301
Width: 1507
GlyphClass: 2
Flags: W
AnchorPoint: "Anchor-1" 911 1490 basechar 0
AnchorPoint: "Anchor-0" 664 0 basechar 0
LayerCount: 2
Fore
SplineSet
60 0 m 1,0,-1
 307 1490 l 1,1,-1
 555 1490 l 1,2,-1
 973 597 l 2,3,4
 990 561 990 561 1014.5 504.5 c 128,-1,5
 1039 448 1039 448 1065.5 377.5 c 128,-1,6
 1092 307 1092 307 1115 231 c 1,7,-1
 1090 205 l 1,8,9
 1096 276 1096 276 1105.5 356 c 128,-1,10
 1115 436 1115 436 1125.5 507.5 c 128,-1,11
 1136 579 1136 579 1143 623 c 2,12,-1
 1287 1490 l 1,13,-1
 1514 1490 l 1,14,-1
 1267 0 l 1,15,-1
 1020 0 l 1,16,-1
 644 799 l 2,17,18
 622 849 622 849 594 913 c 128,-1,19
 566 977 566 977 531.5 1063.5 c 128,-1,20
 497 1150 497 1150 453 1263 c 1,21,-1
 484 1285 l 1,22,23
 470 1169 470 1169 458 1075 c 128,-1,24
 446 981 446 981 436.5 911.5 c 128,-1,25
 427 842 427 842 420 801 c 2,26,-1
 288 0 l 1,27,-1
 60 0 l 1,0,-1
EndSplineSet
Substitution2: "'c2sc' Capitals to Small Capitals in Latin lookup 67 subtable" n.sc
Substitution2: "'ss06' Style Set 6 in Latin lookup 52 subtable" N.squared
Substitution2: "'ss05' Style Set 5 in Latin lookup 51 subtable" uni24C3
Substitution2: "'aalt' Access All Alternates in Latin lookup 0 subtable" n.sc
Position2: "'cpsp' Capital Spacing in Latin lookup 0 subtable" dx=0 dy=0 dh=0 dv=0
EndChar

StartChar: Nhook
Encoding: 413 413 311
Width: 1507
GlyphClass: 2
Flags: W
AnchorPoint: "Anchor-1" 911 1490 basechar 0
AnchorPoint: "Anchor-0" 664 0 basechar 0
LayerCount: 2
Fore
SplineSet
-219 -418 m 1,0,-1
 -189 -233 l 1,1,2
 -172 -235 -172 -235 -145.5 -235.5 c 128,-1,3
 -119 -236 -119 -236 -102 -236 c 0,4,5
 -31 -236 -31 -236 -1 -212.5 c 128,-1,6
 29 -189 29 -189 37 -139 c 2,7,-1
 81 127 l 1,8,-1
 307 127 l 1,9,-1
 261 -149 l 2,10,11
 238 -284 238 -284 147.5 -353.5 c 128,-1,12
 57 -423 57 -423 -95 -423 c 0,13,14
 -135 -423 -135 -423 -167 -422 c 128,-1,15
 -199 -421 -199 -421 -219 -418 c 1,0,-1
60 0 m 1,16,-1
 307 1490 l 1,17,-1
 555 1490 l 1,18,-1
 973 597 l 2,19,20
 990 561 990 561 1014.5 504.5 c 128,-1,21
 1039 448 1039 448 1065.5 377.5 c 128,-1,22
 1092 307 1092 307 1115 231 c 1,23,-1
 1090 205 l 1,24,25
 1096 276 1096 276 1105.5 356 c 128,-1,26
 1115 436 1115 436 1125.5 507.5 c 128,-1,27
 1136 579 1136 579 1143 623 c 2,28,-1
 1287 1490 l 1,29,-1
 1514 1490 l 1,30,-1
 1267 0 l 1,31,-1
 1020 0 l 1,32,-1
 644 799 l 2,33,34
 622 849 622 849 594 913 c 128,-1,35
 566 977 566 977 531.5 1063.5 c 128,-1,36
 497 1150 497 1150 453 1263 c 1,37,-1
 484 1285 l 1,38,39
 470 1169 470 1169 458 1075 c 128,-1,40
 446 981 446 981 436.5 911.5 c 128,-1,41
 427 842 427 842 420 801 c 2,42,-1
 288 0 l 1,43,-1
 60 0 l 1,16,-1
EndSplineSet
Position2: "'cpsp' Capital Spacing in Latin lookup 0 subtable" dx=0 dy=0 dh=0 dv=0
EndChar

StartChar: Eng
Encoding: 330 330 312
Width: 1507
GlyphClass: 2
Flags: W
AnchorPoint: "Anchor-1" 911 1490 basechar 0
AnchorPoint: "Anchor-0" 664 0 basechar 0
LayerCount: 2
Fore
SplineSet
766 -418 m 1,0,-1
 796 -233 l 1,1,2
 814 -235 814 -235 840 -235.5 c 128,-1,3
 866 -236 866 -236 884 -236 c 0,4,5
 954 -236 954 -236 984.5 -212.5 c 128,-1,6
 1015 -189 1015 -189 1022 -139 c 2,7,-1
 1066 127 l 1,8,-1
 1292 127 l 1,9,-1
 1246 -149 l 2,10,11
 1223 -284 1223 -284 1132.5 -353.5 c 128,-1,12
 1042 -423 1042 -423 890 -423 c 0,13,14
 851 -423 851 -423 818.5 -422 c 128,-1,15
 786 -421 786 -421 766 -418 c 1,0,-1
60 0 m 1,16,-1
 307 1490 l 1,17,-1
 555 1490 l 1,18,-1
 973 597 l 2,19,20
 990 561 990 561 1014.5 504.5 c 128,-1,21
 1039 448 1039 448 1065.5 377.5 c 128,-1,22
 1092 307 1092 307 1115 231 c 1,23,-1
 1090 205 l 1,24,25
 1096 276 1096 276 1105.5 356 c 128,-1,26
 1115 436 1115 436 1125.5 507.5 c 128,-1,27
 1136 579 1136 579 1143 623 c 2,28,-1
 1287 1490 l 1,29,-1
 1514 1490 l 1,30,-1
 1267 0 l 1,31,-1
 1020 0 l 1,32,-1
 644 799 l 2,33,34
 622 849 622 849 594 913 c 128,-1,35
 566 977 566 977 531.5 1063.5 c 128,-1,36
 497 1150 497 1150 453 1263 c 1,37,-1
 484 1285 l 1,38,39
 470 1169 470 1169 458 1075 c 128,-1,40
 446 981 446 981 436.5 911.5 c 128,-1,41
 427 842 427 842 420 801 c 2,42,-1
 288 0 l 1,43,-1
 60 0 l 1,16,-1
EndSplineSet
Position2: "'cpsp' Capital Spacing in Latin lookup 0 subtable" dx=0 dy=0 dh=0 dv=0
EndChar

StartChar: uni0418
Encoding: 1048 1048 313
Width: 1507
GlyphClass: 2
Flags: W
AnchorPoint: "Anchor-1" 911 1490 basechar 0
AnchorPoint: "Anchor-0" 664 0 basechar 0
LayerCount: 2
Fore
SplineSet
1267 0 m 1,0,-1
 1040 0 l 1,1,-1
 1173 801 l 2,2,3
 1180 842 1180 842 1193.5 912.5 c 128,-1,4
 1207 983 1207 983 1226 1077 c 128,-1,5
 1245 1171 1245 1171 1269 1285 c 1,6,-1
 1301 1257 l 1,7,8
 1220 1144 1220 1144 1157 1057.5 c 128,-1,9
 1094 971 1094 971 1045 906.5 c 128,-1,10
 996 842 996 842 957 792 c 2,11,-1
 318 0 l 1,12,-1
 60 0 l 1,13,-1
 307 1490 l 1,14,-1
 535 1490 l 1,15,-1
 391 623 l 2,16,17
 383 577 383 577 370 506 c 128,-1,18
 357 435 357 435 340 355.5 c 128,-1,19
 323 276 323 276 306 205 c 1,20,-1
 284 243 l 1,21,22
 332 317 332 317 380.5 385.5 c 128,-1,23
 429 454 429 454 472 510 c 128,-1,24
 515 566 515 566 546 603 c 2,25,-1
 1258 1490 l 1,26,-1
 1514 1490 l 1,27,-1
 1267 0 l 1,0,-1
EndSplineSet
Position2: "'cpsp' Capital Spacing in Latin lookup 0 subtable" dx=0 dy=0 dh=0 dv=0
EndChar

StartChar: O
Encoding: 79 79 322
Width: 1553
GlyphClass: 2
Flags: W
AnchorPoint: "Anchor-4" 1500 902 basechar 0
AnchorPoint: "Anchor-1" 933 1490 basechar 0
AnchorPoint: "Anchor-0" 687 0 basechar 0
LayerCount: 2
Fore
SplineSet
696 -22 m 0,0,1
 522 -22 522 -22 391.5 52.5 c 128,-1,2
 261 127 261 127 189.5 263.5 c 128,-1,3
 118 400 118 400 118 588 c 0,4,5
 118 766 118 766 175 932 c 128,-1,6
 232 1098 232 1098 339 1228.5 c 128,-1,7
 446 1359 446 1359 594.5 1435.5 c 128,-1,8
 743 1512 743 1512 924 1512 c 0,9,10
 1098 1512 1098 1512 1227.5 1437.5 c 128,-1,11
 1357 1363 1357 1363 1428.5 1227 c 128,-1,12
 1500 1091 1500 1091 1500 902 c 0,13,14
 1500 723 1500 723 1442.5 557.5 c 128,-1,15
 1385 392 1385 392 1279 261 c 128,-1,16
 1173 130 1173 130 1025 54 c 128,-1,17
 877 -22 877 -22 696 -22 c 0,0,1
705 183 m 0,18,19
 839 183 839 183 945 245 c 128,-1,20
 1051 307 1051 307 1125.5 410 c 128,-1,21
 1200 513 1200 513 1239 640.5 c 128,-1,22
 1278 768 1278 768 1278 901 c 0,23,24
 1278 1033 1278 1033 1232 1123.5 c 128,-1,25
 1186 1214 1186 1214 1104.5 1260.5 c 128,-1,26
 1023 1307 1023 1307 915 1307 c 0,27,28
 781 1307 781 1307 674.5 1245.5 c 128,-1,29
 568 1184 568 1184 494 1080.5 c 128,-1,30
 420 977 420 977 380.5 849.5 c 128,-1,31
 341 722 341 722 341 590 c 256,32,33
 341 458 341 458 387 367.5 c 128,-1,34
 433 277 433 277 515 230 c 128,-1,35
 597 183 597 183 705 183 c 0,18,19
EndSplineSet
Substitution2: "'ss06' Style Set 6 in Latin lookup 52 subtable" O.squared
Substitution2: "'ss05' Style Set 5 in Latin lookup 51 subtable" uni24C4
Substitution2: "Single Substitution lookup 44 subtable" ordmasculine
Substitution2: "'aalt' Access All Alternates in Latin lookup 0 subtable" ordmasculine
Position2: "'cpsp' Capital Spacing in Latin lookup 0 subtable" dx=0 dy=0 dh=0 dv=0
EndChar

StartChar: Ohorn
Encoding: 416 416 326
Width: 1553
GlyphClass: 2
Flags: W
AnchorPoint: "Anchor-4" 1500 902 basechar 0
AnchorPoint: "Anchor-1" 933 1490 basechar 0
AnchorPoint: "Anchor-0" 687 0 basechar 0
LayerCount: 2
Fore
SplineSet
911 1358 m 1,0,-1
 937 1512 l 1,1,2
 983 1512 983 1512 1015 1510 c 128,-1,3
 1047 1508 1047 1508 1077 1504.5 c 128,-1,4
 1107 1501 1107 1501 1146 1498 c 128,-1,5
 1185 1495 1185 1495 1243 1492.5 c 128,-1,6
 1301 1490 1301 1490 1388 1490 c 0,7,8
 1409 1490 1409 1490 1412 1511 c 2,9,-1
 1445 1714 l 1,10,-1
 1647 1714 l 1,11,-1
 1614 1511 l 2,12,13
 1599 1420 1599 1420 1544 1376.5 c 128,-1,14
 1489 1333 1489 1333 1399 1333 c 0,15,16
 1355 1333 1355 1333 1317 1337 c 128,-1,17
 1279 1341 1279 1341 1229.5 1346 c 128,-1,18
 1180 1351 1180 1351 1105 1354.5 c 128,-1,19
 1030 1358 1030 1358 911 1358 c 1,0,-1
696 -22 m 0,20,21
 522 -22 522 -22 391.5 52.5 c 128,-1,22
 261 127 261 127 189.5 263.5 c 128,-1,23
 118 400 118 400 118 588 c 0,24,25
 118 766 118 766 175 932 c 128,-1,26
 232 1098 232 1098 339 1228.5 c 128,-1,27
 446 1359 446 1359 594.5 1435.5 c 128,-1,28
 743 1512 743 1512 924 1512 c 0,29,30
 1098 1512 1098 1512 1227.5 1437.5 c 128,-1,31
 1357 1363 1357 1363 1428.5 1227 c 128,-1,32
 1500 1091 1500 1091 1500 902 c 0,33,34
 1500 723 1500 723 1442.5 557.5 c 128,-1,35
 1385 392 1385 392 1279 261 c 128,-1,36
 1173 130 1173 130 1025 54 c 128,-1,37
 877 -22 877 -22 696 -22 c 0,20,21
705 183 m 0,38,39
 839 183 839 183 945 245 c 128,-1,40
 1051 307 1051 307 1125.5 410 c 128,-1,41
 1200 513 1200 513 1239 640.5 c 128,-1,42
 1278 768 1278 768 1278 901 c 0,43,44
 1278 1033 1278 1033 1232 1123.5 c 128,-1,45
 1186 1214 1186 1214 1104.5 1260.5 c 128,-1,46
 1023 1307 1023 1307 915 1307 c 0,47,48
 781 1307 781 1307 674.5 1245.5 c 128,-1,49
 568 1184 568 1184 494 1080.5 c 128,-1,50
 420 977 420 977 380.5 849.5 c 128,-1,51
 341 722 341 722 341 590 c 256,52,53
 341 458 341 458 387 367.5 c 128,-1,54
 433 277 433 277 515 230 c 128,-1,55
 597 183 597 183 705 183 c 0,38,39
EndSplineSet
Position2: "'cpsp' Capital Spacing in Latin lookup 0 subtable" dx=0 dy=0 dh=0 dv=0
EndChar

StartChar: uni03F4
Encoding: 1012 1012 368
Width: 1553
GlyphClass: 2
Flags: W
AnchorPoint: "Anchor-4" 1500 902 basechar 0
AnchorPoint: "Anchor-1" 933 1490 basechar 0
AnchorPoint: "Anchor-0" 687 0 basechar 0
LayerCount: 2
Fore
SplineSet
1315 831 m 1,0,-1
 1298 658 l 1,1,-1
 294 658 l 1,2,-1
 311 831 l 1,3,-1
 1315 831 l 1,0,-1
696 -22 m 0,4,5
 522 -22 522 -22 391.5 52.5 c 128,-1,6
 261 127 261 127 189.5 263.5 c 128,-1,7
 118 400 118 400 118 588 c 0,8,9
 118 766 118 766 175 932 c 128,-1,10
 232 1098 232 1098 339 1228.5 c 128,-1,11
 446 1359 446 1359 594.5 1435.5 c 128,-1,12
 743 1512 743 1512 924 1512 c 0,13,14
 1098 1512 1098 1512 1227.5 1437.5 c 128,-1,15
 1357 1363 1357 1363 1428.5 1227 c 128,-1,16
 1500 1091 1500 1091 1500 902 c 0,17,18
 1500 723 1500 723 1442.5 557.5 c 128,-1,19
 1385 392 1385 392 1279 261 c 128,-1,20
 1173 130 1173 130 1025 54 c 128,-1,21
 877 -22 877 -22 696 -22 c 0,4,5
705 183 m 0,22,23
 839 183 839 183 945 245 c 128,-1,24
 1051 307 1051 307 1125.5 410 c 128,-1,25
 1200 513 1200 513 1239 640.5 c 128,-1,26
 1278 768 1278 768 1278 901 c 0,27,28
 1278 1033 1278 1033 1232 1123.5 c 128,-1,29
 1186 1214 1186 1214 1104.5 1260.5 c 128,-1,30
 1023 1307 1023 1307 915 1307 c 0,31,32
 781 1307 781 1307 674.5 1245.5 c 128,-1,33
 568 1184 568 1184 494 1080.5 c 128,-1,34
 420 977 420 977 380.5 849.5 c 128,-1,35
 341 722 341 722 341 590 c 256,36,37
 341 458 341 458 387 367.5 c 128,-1,38
 433 277 433 277 515 230 c 128,-1,39
 597 183 597 183 705 183 c 0,22,23
EndSplineSet
Position2: "'cpsp' Capital Spacing in Latin lookup 0 subtable" dx=0 dy=0 dh=0 dv=0
EndChar

StartChar: OE
Encoding: 338 338 375
Width: 2019
GlyphClass: 2
Flags: W
AnchorPoint: "Anchor-4" 1832 0 basechar 0
AnchorPoint: "Anchor-3" 1350 0 basechar 0
AnchorPoint: "Anchor-1" 1593 1490 basechar 0
AnchorPoint: "Anchor-0" 1346 0 basechar 0
LayerCount: 2
Fore
SplineSet
697 0 m 2,0,1
 485 0 485 0 345 91 c 128,-1,2
 205 182 205 182 148.5 349 c 128,-1,3
 92 516 92 516 130 745 c 0,4,5
 168 976 168 976 280 1143 c 128,-1,6
 392 1310 392 1310 560 1400 c 128,-1,7
 728 1490 728 1490 935 1490 c 2,8,-1
 1207 1490 l 1,9,-1
 1176 1299 l 1,10,-1
 911 1299 l 2,11,12
 762 1299 762 1299 645.5 1233 c 128,-1,13
 529 1167 529 1167 452.5 1043 c 128,-1,14
 376 919 376 919 347 745 c 0,15,16
 319 573 319 573 354.5 449 c 128,-1,17
 390 325 390 325 486 258 c 128,-1,18
 582 191 582 191 736 191 c 2,19,-1
 989 191 l 1,20,-1
 956 0 l 1,21,-1
 697 0 l 2,0,1
858 0 m 1,22,-1
 1105 1490 l 1,23,-1
 2076 1490 l 1,24,-1
 2043 1296 l 1,25,-1
 1299 1296 l 1,26,-1
 1226 853 l 1,27,-1
 1916 853 l 1,28,-1
 1884 659 l 1,29,-1
 1193 659 l 1,30,-1
 1116 196 l 1,31,-1
 1864 196 l 1,32,-1
 1832 0 l 1,33,-1
 858 0 l 1,22,-1
EndSplineSet
Substitution2: "'c2sc' Capitals to Small Capitals in Latin lookup 67 subtable" oe.sc
Substitution2: "'aalt' Access All Alternates in Latin lookup 0 subtable" oe.sc
Position2: "'cpsp' Capital Spacing in Latin lookup 0 subtable" dx=0 dy=0 dh=0 dv=0
EndChar

StartChar: P
Encoding: 80 80 376
Width: 1291
GlyphClass: 2
Flags: W
AnchorPoint: "Anchor-1" 795 1490 basechar 0
LayerCount: 2
Fore
SplineSet
60 0 m 1,0,-1
 307 1490 l 1,1,-1
 847 1490 l 2,2,3
 1013 1490 1013 1490 1119.5 1429.5 c 128,-1,4
 1226 1369 1226 1369 1269.5 1261.5 c 128,-1,5
 1313 1154 1313 1154 1290 1014 c 0,6,7
 1267 873 1267 873 1188 767 c 128,-1,8
 1109 661 1109 661 982 601 c 128,-1,9
 855 541 855 541 689 541 c 2,10,-1
 293 541 l 1,11,-1
 325 735 l 1,12,-1
 707 735 l 2,13,14
 812 735 812 735 886.5 770.5 c 128,-1,15
 961 806 961 806 1006 870 c 128,-1,16
 1051 934 1051 934 1064 1017 c 0,17,18
 1079 1101 1079 1101 1054.5 1163.5 c 128,-1,19
 1030 1226 1030 1226 967 1261.5 c 128,-1,20
 904 1297 904 1297 800 1297 c 2,21,-1
 501 1297 l 1,22,-1
 286 0 l 1,23,-1
 60 0 l 1,0,-1
EndSplineSet
Substitution2: "'ss06' Style Set 6 in Latin lookup 52 subtable" P.squared
Substitution2: "'ss05' Style Set 5 in Latin lookup 51 subtable" uni24C5
Position2: "'cpsp' Capital Spacing in Latin lookup 0 subtable" dx=0 dy=0 dh=0 dv=0
EndChar

StartChar: uni048E
Encoding: 1166 1166 379
Width: 1286
GlyphClass: 2
Flags: W
AnchorPoint: "Anchor-1" 797 1490 basechar 0
LayerCount: 2
Fore
SplineSet
853 964 m 1,0,-1
 1112 468 l 1,1,-1
 968 383 l 1,2,-1
 709 878 l 1,3,-1
 853 964 l 1,0,-1
62 0 m 1,4,-1
 309 1490 l 1,5,-1
 849 1490 l 2,6,7
 1015 1490 1015 1490 1121 1429.5 c 128,-1,8
 1227 1369 1227 1369 1271 1261.5 c 128,-1,9
 1315 1154 1315 1154 1292 1014 c 0,10,11
 1269 873 1269 873 1190 767 c 128,-1,12
 1111 661 1111 661 984 601 c 128,-1,13
 857 541 857 541 691 541 c 2,14,-1
 294 541 l 1,15,-1
 326 735 l 1,16,-1
 709 735 l 2,17,18
 814 735 814 735 888.5 770.5 c 128,-1,19
 963 806 963 806 1008 870 c 128,-1,20
 1053 934 1053 934 1066 1017 c 0,21,22
 1081 1101 1081 1101 1056.5 1163.5 c 128,-1,23
 1032 1226 1032 1226 969 1261.5 c 128,-1,24
 906 1297 906 1297 802 1297 c 2,25,-1
 503 1297 l 1,26,-1
 288 0 l 1,27,-1
 62 0 l 1,4,-1
EndSplineSet
Position2: "'cpsp' Capital Spacing in Latin lookup 0 subtable" dx=0 dy=0 dh=0 dv=0
EndChar

StartChar: uni01A4
Encoding: 420 420 380
Width: 1607
GlyphClass: 2
Flags: W
AnchorPoint: "Anchor-1" 1111 1490 basechar 0
LayerCount: 2
Fore
SplineSet
136 1071 m 1,0,-1
 156 1194 l 2,1,2
 180 1340 180 1340 270.5 1415 c 128,-1,3
 361 1490 361 1490 523 1490 c 2,4,-1
 624 1490 l 1,5,-1
 592 1297 l 1,6,-1
 503 1297 l 2,7,8
 439 1297 439 1297 406 1270 c 128,-1,9
 373 1243 373 1243 363 1183 c 2,10,-1
 345 1071 l 1,11,-1
 136 1071 l 1,0,-1
376 0 m 1,12,-1
 623 1490 l 1,13,-1
 1163 1490 l 2,14,15
 1329 1490 1329 1490 1435.5 1429.5 c 128,-1,16
 1542 1369 1542 1369 1585.5 1261.5 c 128,-1,17
 1629 1154 1629 1154 1606 1014 c 0,18,19
 1583 873 1583 873 1504 767 c 128,-1,20
 1425 661 1425 661 1298 601 c 128,-1,21
 1171 541 1171 541 1005 541 c 2,22,-1
 609 541 l 1,23,-1
 641 735 l 1,24,-1
 1023 735 l 2,25,26
 1128 735 1128 735 1202.5 770.5 c 128,-1,27
 1277 806 1277 806 1322 870 c 128,-1,28
 1367 934 1367 934 1380 1017 c 0,29,30
 1395 1101 1395 1101 1370.5 1163.5 c 128,-1,31
 1346 1226 1346 1226 1283 1261.5 c 128,-1,32
 1220 1297 1220 1297 1116 1297 c 2,33,-1
 817 1297 l 1,34,-1
 602 0 l 1,35,-1
 376 0 l 1,12,-1
EndSplineSet
Position2: "'cpsp' Capital Spacing in Latin lookup 0 subtable" dx=0 dy=0 dh=0 dv=0
EndChar

StartChar: Q
Encoding: 81 81 383
Width: 1553
GlyphClass: 2
Flags: W
AnchorPoint: "Anchor-4" 1500 902 basechar 0
AnchorPoint: "Anchor-1" 933 1490 basechar 0
AnchorPoint: "Anchor-0" 687 0 basechar 0
LayerCount: 2
Fore
SplineSet
714 481 m 1,0,-1
 915 481 l 1,1,-1
 1038 277 l 1,2,-1
 1092 190 l 1,3,-1
 1288 -135 l 1,4,-1
 1080 -135 l 1,5,-1
 952 81 l 1,6,-1
 906 158 l 1,7,-1
 714 481 l 1,0,-1
696 -22 m 0,8,9
 522 -22 522 -22 391.5 52.5 c 128,-1,10
 261 127 261 127 189.5 263.5 c 128,-1,11
 118 400 118 400 118 588 c 0,12,13
 118 766 118 766 175 932 c 128,-1,14
 232 1098 232 1098 339 1228.5 c 128,-1,15
 446 1359 446 1359 594.5 1435.5 c 128,-1,16
 743 1512 743 1512 924 1512 c 0,17,18
 1098 1512 1098 1512 1227.5 1437.5 c 128,-1,19
 1357 1363 1357 1363 1428.5 1227 c 128,-1,20
 1500 1091 1500 1091 1500 902 c 0,21,22
 1500 723 1500 723 1442.5 557.5 c 128,-1,23
 1385 392 1385 392 1279 261 c 128,-1,24
 1173 130 1173 130 1025 54 c 128,-1,25
 877 -22 877 -22 696 -22 c 0,8,9
705 183 m 0,26,27
 839 183 839 183 945 245 c 128,-1,28
 1051 307 1051 307 1125.5 410 c 128,-1,29
 1200 513 1200 513 1239 640.5 c 128,-1,30
 1278 768 1278 768 1278 901 c 0,31,32
 1278 1033 1278 1033 1232 1123.5 c 128,-1,33
 1186 1214 1186 1214 1104.5 1260.5 c 128,-1,34
 1023 1307 1023 1307 915 1307 c 0,35,36
 781 1307 781 1307 674.5 1245.5 c 128,-1,37
 568 1184 568 1184 494 1080.5 c 128,-1,38
 420 977 420 977 380.5 849.5 c 128,-1,39
 341 722 341 722 341 590 c 256,40,41
 341 458 341 458 387 367.5 c 128,-1,42
 433 277 433 277 515 230 c 128,-1,43
 597 183 597 183 705 183 c 0,26,27
EndSplineSet
Substitution2: "'ss06' Style Set 6 in Latin lookup 52 subtable" Q.squared
Substitution2: "'ss05' Style Set 5 in Latin lookup 51 subtable" uni24C6
Position2: "'cpsp' Capital Spacing in Latin lookup 0 subtable" dx=0 dy=0 dh=0 dv=0
EndChar

StartChar: Q_rthook
Encoding: 586 586 384
Width: 1555
GlyphClass: 2
Flags: W
LayerCount: 2
Fore
SplineSet
1561 1490 m 1,0,-1
 1314 0 l 1,1,-1
 1098 0 l 1,2,-1
 1136 231 l 1,3,-1
 1130 231 l 1,4,5
 1054 113 1054 113 925 45 c 128,-1,6
 796 -23 796 -23 644 -23 c 0,7,8
 504 -23 504 -23 397 33.5 c 128,-1,9
 290 90 290 90 221 193 c 128,-1,10
 152 296 152 296 127.5 435.5 c 128,-1,11
 103 575 103 575 130 742 c 0,12,13
 157 908 157 908 227 1048.5 c 128,-1,14
 297 1189 297 1189 400 1293 c 128,-1,15
 503 1397 503 1397 630 1454.5 c 128,-1,16
 757 1512 757 1512 898 1512 c 0,17,18
 1051 1512 1051 1512 1157.5 1444.5 c 128,-1,19
 1264 1377 1264 1377 1301 1265 c 1,20,-1
 1308 1265 l 1,21,-1
 1345 1490 l 1,22,-1
 1561 1490 l 1,0,-1
698 183 m 0,23,24
 839 183 839 183 947 254.5 c 128,-1,25
 1055 326 1055 326 1125 452.5 c 128,-1,26
 1195 579 1195 579 1223 746 c 0,27,28
 1251 911 1251 911 1222 1038.5 c 128,-1,29
 1193 1166 1193 1166 1109 1237.5 c 128,-1,30
 1025 1309 1025 1309 886 1309 c 0,31,32
 755 1309 755 1309 645 1237.5 c 128,-1,33
 535 1166 535 1166 459 1039.5 c 128,-1,34
 383 913 383 913 356 745 c 0,35,36
 328 574 328 574 361.5 447.5 c 128,-1,37
 395 321 395 321 481.5 252 c 128,-1,38
 568 183 568 183 698 183 c 0,23,24
1338 -423 m 0,39,40
 1187 -423 1187 -423 1119 -354 c 128,-1,41
 1051 -285 1051 -285 1074 -149 c 2,42,-1
 1098 0 l 1,43,-1
 1314 0 l 1,44,-1
 1290 -147 l 2,45,46
 1281 -199 1281 -199 1306.5 -222 c 128,-1,47
 1332 -245 1332 -245 1401 -245 c 0,48,49
 1419 -245 1419 -245 1445.5 -244.5 c 128,-1,50
 1472 -244 1472 -244 1489 -243 c 1,51,-1
 1460 -418 l 1,52,53
 1438 -421 1438 -421 1407 -422 c 128,-1,54
 1376 -423 1376 -423 1338 -423 c 0,39,40
EndSplineSet
Position2: "'cpsp' Capital Spacing in Latin lookup 0 subtable" dx=0 dy=0 dh=0 dv=0
EndChar

StartChar: R
Encoding: 82 82 385
Width: 1318
GlyphClass: 2
Flags: W
AnchorPoint: "Anchor-1" 806 1490 basechar 0
AnchorPoint: "Anchor-0" 579 0 basechar 0
LayerCount: 2
Fore
SplineSet
60 0 m 1,0,-1
 307 1490 l 1,1,-1
 855 1490 l 2,2,3
 1022 1490 1022 1490 1128.5 1431.5 c 128,-1,4
 1235 1373 1235 1373 1278.5 1268.5 c 128,-1,5
 1322 1164 1322 1164 1298 1024 c 0,6,7
 1276 885 1276 885 1197 781 c 128,-1,8
 1118 677 1118 677 990.5 620.5 c 128,-1,9
 863 564 863 564 696 564 c 2,10,-1
 284 564 l 1,11,-1
 315 755 l 1,12,-1
 720 755 l 2,13,14
 823 755 823 755 897 788.5 c 128,-1,15
 971 822 971 822 1015.5 883 c 128,-1,16
 1060 944 1060 944 1074 1027 c 0,17,18
 1096 1156 1096 1156 1028 1226.5 c 128,-1,19
 960 1297 960 1297 807 1297 c 2,20,-1
 501 1297 l 1,21,-1
 286 0 l 1,22,-1
 60 0 l 1,0,-1
923 0 m 1,23,-1
 677 673 l 1,24,-1
 916 673 l 1,25,-1
 1169 0 l 1,26,-1
 923 0 l 1,23,-1
EndSplineSet
Substitution2: "'c2sc' Capitals to Small Capitals in Latin lookup 67 subtable" r.sc
Substitution2: "'ss06' Style Set 6 in Latin lookup 52 subtable" R.squared
Substitution2: "'ss05' Style Set 5 in Latin lookup 51 subtable" uni24C7
Substitution2: "'aalt' Access All Alternates in Latin lookup 0 subtable" r.sc
Position2: "'cpsp' Capital Spacing in Latin lookup 0 subtable" dx=0 dy=0 dh=0 dv=0
EndChar

StartChar: uni211F
Encoding: 8479 8479 395
Width: 1283
GlyphClass: 2
Flags: W
AnchorPoint: "Anchor-1" 807 1490 basechar 0
AnchorPoint: "Anchor-0" 581 0 basechar 0
LayerCount: 2
Fore
SplineSet
1157 1688 m 1,0,-1
 281 -356 l 1,1,-1
 170 -334 l 1,2,-1
 1009 1616 l 1,3,-1
 707 1705 l 1,4,-1
 763 1813 l 1,5,-1
 1157 1688 l 1,0,-1
62 0 m 1,6,-1
 309 1490 l 1,7,-1
 857 1490 l 2,8,9
 1024 1490 1024 1490 1130 1431.5 c 128,-1,10
 1236 1373 1236 1373 1280 1268.5 c 128,-1,11
 1324 1164 1324 1164 1300 1024 c 0,12,13
 1277 885 1277 885 1198 781 c 128,-1,14
 1119 677 1119 677 991.5 620.5 c 128,-1,15
 864 564 864 564 698 564 c 2,16,-1
 285 564 l 1,17,-1
 317 755 l 1,18,-1
 721 755 l 2,19,20
 824 755 824 755 898 788.5 c 128,-1,21
 972 822 972 822 1016.5 883 c 128,-1,22
 1061 944 1061 944 1075 1027 c 0,23,24
 1097 1156 1097 1156 1029.5 1226.5 c 128,-1,25
 962 1297 962 1297 809 1297 c 2,26,-1
 502 1297 l 1,27,-1
 287 0 l 1,28,-1
 62 0 l 1,6,-1
924 0 m 1,29,-1
 678 673 l 1,30,-1
 918 673 l 1,31,-1
 1170 0 l 1,32,-1
 924 0 l 1,29,-1
EndSplineSet
EndChar

StartChar: Rx
Encoding: 8478 8478 396
Width: 1428
Flags: W
LayerCount: 2
Fore
SplineSet
307 1490 m 1,0,-1
 831 1490 l 2,1,2
 1009 1490 1009 1490 1112.5 1429.5 c 128,-1,3
 1216 1369 1216 1369 1253 1265 c 128,-1,4
 1290 1161 1290 1161 1268 1029 c 0,5,6
 1249 913 1249 913 1193.5 825 c 128,-1,7
 1138 737 1138 737 1052.5 678.5 c 128,-1,8
 967 620 967 620 856 590 c 1,9,-1
 793 570 l 1,10,-1
 316 570 l 1,11,-1
 348 767 l 1,12,-1
 696 767 l 2,13,14
 809 767 809 767 882 800 c 128,-1,15
 955 833 955 833 994.5 892 c 128,-1,16
 1034 951 1034 951 1047 1028 c 0,17,18
 1055 1076 1055 1076 1050 1123 c 128,-1,19
 1045 1170 1045 1170 1020 1209 c 128,-1,20
 995 1248 995 1248 941.5 1272.5 c 128,-1,21
 888 1297 888 1297 799 1297 c 2,22,-1
 500 1298 l 1,23,-1
 286 0 l 1,24,-1
 61 0 l 1,25,-1
 307 1490 l 1,0,-1
1041 0 m 1,26,-1
 671 661 l 1,27,-1
 896 661 l 1,28,-1
 1270 0 l 1,29,-1
 1041 0 l 1,26,-1
781 0 m 1,30,-1
 567 0 l 1,31,-1
 1160 661 l 1,32,-1
 1367 661 l 1,33,-1
 781 0 l 1,30,-1
EndSplineSet
EndChar

StartChar: uni024C
Encoding: 588 588 397
Width: 1303
GlyphClass: 2
Flags: W
AnchorPoint: "Anchor-1" 828 1490 basechar 0
AnchorPoint: "Anchor-0" 602 0 basechar 0
LayerCount: 2
Fore
SplineSet
307 572 m 1,0,-1
 14 572 l 1,1,-1
 43 756 l 1,2,-1
 336 756 l 1,3,-1
 307 572 l 1,0,-1
83 0 m 1,4,-1
 330 1490 l 1,5,-1
 877 1490 l 2,6,7
 1045 1490 1045 1490 1151 1431.5 c 128,-1,8
 1257 1373 1257 1373 1300.5 1268.5 c 128,-1,9
 1344 1164 1344 1164 1321 1024 c 0,10,11
 1298 885 1298 885 1219 781 c 128,-1,12
 1140 677 1140 677 1012.5 620.5 c 128,-1,13
 885 564 885 564 718 564 c 2,14,-1
 306 564 l 1,15,-1
 338 755 l 1,16,-1
 742 755 l 2,17,18
 845 755 845 755 919 788.5 c 128,-1,19
 993 822 993 822 1037.5 883 c 128,-1,20
 1082 944 1082 944 1096 1027 c 0,21,22
 1118 1156 1118 1156 1050 1226.5 c 128,-1,23
 982 1297 982 1297 830 1297 c 2,24,-1
 523 1297 l 1,25,-1
 308 0 l 1,26,-1
 83 0 l 1,4,-1
945 0 m 1,27,-1
 699 673 l 1,28,-1
 939 673 l 1,29,-1
 1191 0 l 1,30,-1
 945 0 l 1,27,-1
EndSplineSet
Position2: "'cpsp' Capital Spacing in Latin lookup 0 subtable" dx=0 dy=0 dh=0 dv=0
EndChar

StartChar: S
Encoding: 83 83 398
Width: 1304
GlyphClass: 2
Flags: W
AnchorPoint: "Anchor-3" 564 0 basechar 0
AnchorPoint: "Anchor-1" 807 1490 basechar 0
AnchorPoint: "Anchor-0" 565 0 basechar 0
LayerCount: 2
Fore
SplineSet
579 -24 m 0,0,1
 405 -24 405 -24 285 33 c 128,-1,2
 165 90 165 90 110 196 c 128,-1,3
 55 302 55 302 75 448 c 1,4,-1
 300 448 l 1,5,6
 289 359 289 359 322 297 c 128,-1,7
 355 235 355 235 424.5 203.5 c 128,-1,8
 494 172 494 172 592 172 c 0,9,10
 691 172 691 172 772 202.5 c 128,-1,11
 853 233 853 233 904.5 288 c 128,-1,12
 956 343 956 343 968 416 c 0,13,14
 978 476 978 476 953 517.5 c 128,-1,15
 928 559 928 559 870.5 588 c 128,-1,16
 813 617 813 617 724 641 c 2,17,-1
 561 685 l 2,18,19
 371 735 371 735 280 831 c 128,-1,20
 189 927 189 927 216 1086 c 0,21,22
 236 1214 236 1214 316.5 1310.5 c 128,-1,23
 397 1407 397 1407 522 1459.5 c 128,-1,24
 647 1512 647 1512 801 1512 c 0,25,26
 958 1512 958 1512 1069.5 1457 c 128,-1,27
 1181 1402 1181 1402 1234.5 1303 c 128,-1,28
 1288 1204 1288 1204 1269 1071 c 1,29,-1
 1053 1071 l 1,30,31
 1061 1187 1061 1187 988.5 1252 c 128,-1,32
 916 1317 916 1317 783 1317 c 0,33,34
 692 1317 692 1317 618.5 1287.5 c 128,-1,35
 545 1258 545 1258 498 1206 c 128,-1,36
 451 1154 451 1154 440 1088 c 0,37,38
 430 1028 430 1028 458 986.5 c 128,-1,39
 486 945 486 945 543.5 918 c 128,-1,40
 601 891 601 891 678 870 c 2,41,-1
 824 831 l 2,42,43
 911 810 911 810 984.5 775 c 128,-1,44
 1058 740 1058 740 1109.5 690 c 128,-1,45
 1161 640 1161 640 1183 570.5 c 128,-1,46
 1205 501 1205 501 1190 410 c 0,47,48
 1170 281 1170 281 1089.5 183 c 128,-1,49
 1009 85 1009 85 879.5 30.5 c 128,-1,50
 750 -24 750 -24 579 -24 c 0,0,1
EndSplineSet
Substitution2: "'ss06' Style Set 6 in Latin lookup 52 subtable" S.squared
Substitution2: "'ss05' Style Set 5 in Latin lookup 51 subtable" uni24C8
Position2: "'cpsp' Capital Spacing in Latin lookup 0 subtable" dx=0 dy=0 dh=0 dv=0
EndChar

StartChar: uni01A7
Encoding: 423 423 410
Width: 1304
GlyphClass: 2
Flags: W
AnchorPoint: "Anchor-3" 559 0 basechar 0
AnchorPoint: "Anchor-1" 811 1490 basechar 0
AnchorPoint: "Anchor-0" 558 0 basechar 0
LayerCount: 2
Fore
SplineSet
559 -24 m 256,0,1
 386 -24 386 -24 269 32 c 128,-1,2
 152 88 152 88 100 187.5 c 128,-1,3
 48 287 48 287 70 416 c 0,4,5
 85 506 85 506 129 574.5 c 128,-1,6
 173 643 173 643 240 692 c 128,-1,7
 307 741 307 741 391.5 775.5 c 128,-1,8
 476 810 476 810 571 832 c 2,9,-1
 730 871 l 2,10,11
 814 891 814 891 881.5 919 c 128,-1,12
 949 947 949 947 991.5 989 c 128,-1,13
 1034 1031 1034 1031 1045 1093 c 0,14,15
 1055 1159 1055 1159 1028 1209.5 c 128,-1,16
 1001 1260 1001 1260 940.5 1288.5 c 128,-1,17
 880 1317 880 1317 791 1317 c 0,18,19
 701 1317 701 1317 625.5 1287 c 128,-1,20
 550 1257 550 1257 498 1202 c 128,-1,21
 446 1147 446 1147 426 1071 c 1,22,-1
 208 1071 l 1,23,24
 234 1203 234 1203 315 1302.5 c 128,-1,25
 396 1402 396 1402 520.5 1457 c 128,-1,26
 645 1512 645 1512 801 1512 c 256,27,28
 957 1512 957 1512 1069.5 1458 c 128,-1,29
 1182 1404 1182 1404 1235.5 1307 c 128,-1,30
 1289 1210 1289 1210 1266 1080 c 0,31,32
 1240 924 1240 924 1120.5 828.5 c 128,-1,33
 1001 733 1001 733 791 682 c 2,34,-1
 614 639 l 2,35,36
 519 616 519 616 450.5 586.5 c 128,-1,37
 382 557 382 557 342.5 515 c 128,-1,38
 303 473 303 473 293 411 c 0,39,40
 275 302 275 302 351.5 237 c 128,-1,41
 428 172 428 172 573 172 c 0,42,43
 673 172 673 172 756.5 203.5 c 128,-1,44
 840 235 840 235 897 297 c 128,-1,45
 954 359 954 359 972 448 c 1,46,-1
 1197 448 l 1,47,48
 1170 303 1170 303 1084.5 196.5 c 128,-1,49
 999 90 999 90 865.5 33 c 128,-1,50
 732 -24 732 -24 559 -24 c 256,0,1
EndSplineSet
Position2: "'cpsp' Capital Spacing in Latin lookup 0 subtable" dx=0 dy=0 dh=0 dv=0
EndChar

StartChar: uni1E9E
Encoding: 7838 7838 411
Width: 1393
Flags: W
LayerCount: 2
Fore
SplineSet
60 0 m 1,0,-1
 224 987 l 2,1,2
 253 1158 253 1158 327.5 1274.5 c 128,-1,3
 402 1391 402 1391 519.5 1450.5 c 128,-1,4
 637 1510 637 1510 795 1510 c 0,5,6
 905 1510 905 1510 998 1478.5 c 128,-1,7
 1091 1447 1091 1447 1167.5 1394 c 128,-1,8
 1244 1341 1244 1341 1307 1275 c 1,9,-1
 906 855 l 1,10,11
 1046 844 1046 844 1137 788.5 c 128,-1,12
 1228 733 1228 733 1265.5 640 c 128,-1,13
 1303 547 1303 547 1282 423 c 0,14,15
 1258 282 1258 282 1176.5 183.5 c 128,-1,16
 1095 85 1095 85 971.5 32.5 c 128,-1,17
 848 -20 848 -20 699 -20 c 0,18,19
 625 -20 625 -20 551.5 -6.5 c 128,-1,20
 478 7 478 7 413 34 c 1,21,-1
 510 218 l 1,22,23
 551 200 551 200 604 185 c 128,-1,24
 657 170 657 170 724 170 c 0,25,26
 857 170 857 170 942 237.5 c 128,-1,27
 1027 305 1027 305 1047 425 c 0,28,29
 1060 499 1060 499 1044 547.5 c 128,-1,30
 1028 596 1028 596 995 624 c 128,-1,31
 962 652 962 652 921.5 666 c 128,-1,32
 881 680 881 680 843.5 684 c 128,-1,33
 806 688 806 688 782 688 c 2,34,-1
 640 688 l 1,35,-1
 667 855 l 1,36,-1
 1016 1230 l 1,37,38
 976 1264 976 1264 917 1292 c 128,-1,39
 858 1320 858 1320 770 1321 c 0,40,41
 666 1321 666 1321 600.5 1274 c 128,-1,42
 535 1227 535 1227 499.5 1151 c 128,-1,43
 464 1075 464 1075 449 986 c 2,44,-1
 285 0 l 1,45,-1
 60 0 l 1,0,-1
EndSplineSet
Position2: "'cpsp' Capital Spacing in Latin lookup 0 subtable" dx=0 dy=0 dh=0 dv=0
EndChar

StartChar: T
Encoding: 84 84 412
Width: 1304
GlyphClass: 2
Flags: W
AnchorPoint: "Anchor-3" 562 0 basechar 0
AnchorPoint: "Anchor-1" 810 1490 basechar 0
AnchorPoint: "Anchor-0" 563 0 basechar 0
LayerCount: 2
Fore
SplineSet
195 1296 m 1,0,-1
 227 1490 l 1,1,-1
 1391 1490 l 1,2,-1
 1358 1296 l 1,3,-1
 890 1296 l 1,4,-1
 676 0 l 1,5,-1
 450 0 l 1,6,-1
 664 1296 l 1,7,-1
 195 1296 l 1,0,-1
EndSplineSet
Substitution2: "'c2sc' Capitals to Small Capitals in Latin lookup 67 subtable" t.sc
Substitution2: "'ss06' Style Set 6 in Latin lookup 52 subtable" T.squared
Substitution2: "'ss05' Style Set 5 in Latin lookup 51 subtable" uni24C9
Substitution2: "'aalt' Access All Alternates in Latin lookup 0 subtable" t.sc
Position2: "'cpsp' Capital Spacing in Latin lookup 0 subtable" dx=0 dy=0 dh=0 dv=0
EndChar

StartChar: uni01AC
Encoding: 428 428 420
Width: 1334
GlyphClass: 2
Flags: W
LayerCount: 2
Fore
SplineSet
154 1071 m 1,0,-1
 174 1194 l 2,1,2
 199 1340 199 1340 289.5 1415 c 128,-1,3
 380 1490 380 1490 540 1490 c 2,4,-1
 642 1490 l 1,5,-1
 609 1297 l 1,6,-1
 520 1297 l 2,7,8
 458 1297 458 1297 424.5 1270 c 128,-1,9
 391 1243 391 1243 382 1183 c 2,10,-1
 363 1071 l 1,11,-1
 154 1071 l 1,0,-1
609 1296 m 1,12,-1
 642 1490 l 1,13,-1
 1421 1490 l 1,14,-1
 1388 1296 l 1,15,-1
 924 1296 l 1,16,-1
 710 0 l 1,17,-1
 485 0 l 1,18,-1
 699 1296 l 1,19,-1
 609 1296 l 1,12,-1
EndSplineSet
Position2: "'cpsp' Capital Spacing in Latin lookup 0 subtable" dx=0 dy=0 dh=0 dv=0
EndChar

StartChar: uni01AC.base
Encoding: 60940 60940 421
Width: 1302
GlyphClass: 2
Flags: W
LayerCount: 2
Fore
SplineSet
577 1296 m 1,0,-1
 610 1490 l 1,1,-1
 1388 1490 l 1,2,-1
 1356 1296 l 1,3,-1
 892 1296 l 1,4,-1
 678 0 l 1,5,-1
 453 0 l 1,6,-1
 666 1296 l 1,7,-1
 577 1296 l 1,0,-1
EndSplineSet
EndChar

StartChar: Trthook
Encoding: 430 430 422
Width: 1304
GlyphClass: 2
Flags: W
AnchorPoint: "Anchor-3" 562 0 basechar 0
AnchorPoint: "Anchor-1" 810 1490 basechar 0
AnchorPoint: "Anchor-0" 563 0 basechar 0
LayerCount: 2
Fore
SplineSet
671 0 m 1,0,-1
 654 -105 l 2,1,2
 640 -185 640 -185 687.5 -209.5 c 128,-1,3
 735 -234 735 -234 802 -233 c 2,4,-1
 859 -233 l 1,5,-1
 829 -418 l 1,6,-1
 716 -418 l 2,7,8
 652 -418 652 -418 594.5 -400.5 c 128,-1,9
 537 -383 537 -383 496 -345 c 128,-1,10
 455 -307 455 -307 437.5 -247.5 c 128,-1,11
 420 -188 420 -188 434 -106 c 2,12,-1
 452 0 l 1,13,-1
 671 0 l 1,0,-1
195 1296 m 1,14,-1
 227 1490 l 1,15,-1
 1391 1490 l 1,16,-1
 1358 1296 l 1,17,-1
 890 1296 l 1,18,-1
 676 0 l 1,19,-1
 450 0 l 1,20,-1
 664 1296 l 1,21,-1
 195 1296 l 1,14,-1
EndSplineSet
Position2: "'cpsp' Capital Spacing in Latin lookup 0 subtable" dx=0 dy=0 dh=0 dv=0
EndChar

StartChar: uni023E
Encoding: 574 574 423
Width: 1304
GlyphClass: 2
Flags: W
AnchorPoint: "Anchor-3" 562 0 basechar 0
AnchorPoint: "Anchor-1" 810 1490 basechar 0
AnchorPoint: "Anchor-0" 563 0 basechar 0
LayerCount: 2
Fore
SplineSet
141 -190 m 1,0,-1
 1097 1678 l 1,1,-1
 1269 1678 l 1,2,-1
 314 -190 l 1,3,-1
 141 -190 l 1,0,-1
195 1296 m 1,4,-1
 227 1490 l 1,5,-1
 1391 1490 l 1,6,-1
 1358 1296 l 1,7,-1
 890 1296 l 1,8,-1
 676 0 l 1,9,-1
 450 0 l 1,10,-1
 664 1296 l 1,11,-1
 195 1296 l 1,4,-1
EndSplineSet
Position2: "'cpsp' Capital Spacing in Latin lookup 0 subtable" dx=0 dy=0 dh=0 dv=0
EndChar

StartChar: U
Encoding: 85 85 425
Width: 1478
GlyphClass: 2
Flags: W
AnchorPoint: "Anchor-4" 1325 505 basechar 0
AnchorPoint: "Anchor-1" 896 1490 basechar 0
AnchorPoint: "Anchor-0" 649 0 basechar 0
LayerCount: 2
Fore
SplineSet
658 -23 m 0,0,1
 476 -23 476 -23 351 47.5 c 128,-1,2
 226 118 226 118 172 240.5 c 128,-1,3
 118 363 118 363 143 519 c 2,4,-1
 304 1490 l 1,5,-1
 528 1490 l 1,6,-1
 369 522 l 2,7,8
 352 420 352 420 382 343.5 c 128,-1,9
 412 267 412 267 485 224 c 128,-1,10
 558 181 558 181 667 181 c 0,11,12
 783 181 783 181 876 227.5 c 128,-1,13
 969 274 969 274 1029 355 c 128,-1,14
 1089 436 1089 436 1105 538 c 2,15,-1
 1263 1490 l 1,16,-1
 1487 1490 l 1,17,-1
 1325 505 l 2,18,19
 1299 348 1299 348 1207.5 229 c 128,-1,20
 1116 110 1116 110 975 43.5 c 128,-1,21
 834 -23 834 -23 658 -23 c 0,0,1
EndSplineSet
Substitution2: "'ss06' Style Set 6 in Latin lookup 52 subtable" U.squared
Substitution2: "'ss05' Style Set 5 in Latin lookup 51 subtable" uni24CA
Position2: "'cpsp' Capital Spacing in Latin lookup 0 subtable" dx=0 dy=0 dh=0 dv=0
EndChar

StartChar: Uhorn
Encoding: 431 431 426
Width: 1476
GlyphClass: 2
Flags: W
AnchorPoint: "Anchor-4" 1325 505 basechar 0
AnchorPoint: "Anchor-1" 896 1490 basechar 0
AnchorPoint: "Anchor-0" 649 0 basechar 0
LayerCount: 2
Fore
SplineSet
1239 1331 m 1,0,-1
 1265 1490 l 1,1,-1
 1444 1490 l 2,2,3
 1464 1490 1464 1490 1468 1511 c 2,4,-1
 1500 1714 l 1,5,-1
 1702 1714 l 1,6,-1
 1669 1511 l 2,7,8
 1654 1420 1654 1420 1599 1375.5 c 128,-1,9
 1544 1331 1544 1331 1454 1331 c 2,10,-1
 1239 1331 l 1,0,-1
658 -23 m 0,11,12
 476 -23 476 -23 351 47.5 c 128,-1,13
 226 118 226 118 172 240.5 c 128,-1,14
 118 363 118 363 143 519 c 2,15,-1
 304 1490 l 1,16,-1
 528 1490 l 1,17,-1
 369 522 l 2,18,19
 352 420 352 420 382 343.5 c 128,-1,20
 412 267 412 267 485 224 c 128,-1,21
 558 181 558 181 667 181 c 0,22,23
 783 181 783 181 876 227.5 c 128,-1,24
 969 274 969 274 1029 355 c 128,-1,25
 1089 436 1089 436 1105 538 c 2,26,-1
 1263 1490 l 1,27,-1
 1487 1490 l 1,28,-1
 1325 505 l 2,29,30
 1299 348 1299 348 1207.5 229 c 128,-1,31
 1116 110 1116 110 975 43.5 c 128,-1,32
 834 -23 834 -23 658 -23 c 0,11,12
EndSplineSet
Position2: "'cpsp' Capital Spacing in Latin lookup 0 subtable" dx=0 dy=0 dh=0 dv=0
EndChar

StartChar: uni0244
Encoding: 580 580 456
Width: 1500
GlyphClass: 2
Flags: W
AnchorPoint: "Anchor-4" 1336 505 basechar 0
AnchorPoint: "Anchor-1" 907 1490 basechar 0
AnchorPoint: "Anchor-0" 660 0 basechar 0
LayerCount: 2
Fore
SplineSet
1574 859 m 1,0,-1
 1552 721 l 1,1,-1
 8 721 l 1,2,-1
 31 859 l 1,3,-1
 1574 859 l 1,0,-1
669 -23 m 0,4,5
 487 -23 487 -23 362.5 47.5 c 128,-1,6
 238 118 238 118 183.5 240.5 c 128,-1,7
 129 363 129 363 154 519 c 2,8,-1
 315 1490 l 1,9,-1
 540 1490 l 1,10,-1
 380 522 l 2,11,12
 363 420 363 420 393 343.5 c 128,-1,13
 423 267 423 267 496 224 c 128,-1,14
 569 181 569 181 678 181 c 0,15,16
 794 181 794 181 887 227.5 c 128,-1,17
 980 274 980 274 1040 355 c 128,-1,18
 1100 436 1100 436 1117 538 c 2,19,-1
 1274 1490 l 1,20,-1
 1499 1490 l 1,21,-1
 1336 505 l 2,22,23
 1311 348 1311 348 1219 229 c 128,-1,24
 1127 110 1127 110 986 43.5 c 128,-1,25
 845 -23 845 -23 669 -23 c 0,4,5
EndSplineSet
Position2: "'cpsp' Capital Spacing in Latin lookup 0 subtable" dx=0 dy=0 dh=0 dv=0
EndChar

StartChar: V
Encoding: 86 86 457
Width: 1413
GlyphClass: 2
Flags: W
AnchorPoint: "Anchor-1" 863 1490 basechar 0
AnchorPoint: "Anchor-0" 616 0 basechar 0
LayerCount: 2
Fore
SplineSet
484 0 m 1,0,-1
 191 1490 l 1,1,-1
 428 1490 l 1,2,-1
 582 655 l 2,3,4
 599 555 599 555 618 421 c 128,-1,5
 637 287 637 287 661 99 c 1,6,-1
 607 99 l 1,7,8
 691 285 691 285 755 422 c 128,-1,9
 819 559 819 559 867 655 c 2,10,-1
 1289 1490 l 1,11,-1
 1536 1490 l 1,12,-1
 756 0 l 1,13,-1
 484 0 l 1,0,-1
EndSplineSet
Substitution2: "'ss06' Style Set 6 in Latin lookup 52 subtable" V.squared
Substitution2: "'ss05' Style Set 5 in Latin lookup 51 subtable" uni24CB
Position2: "'cpsp' Capital Spacing in Latin lookup 0 subtable" dx=0 dy=0 dh=0 dv=0
EndChar

StartChar: W
Encoding: 87 87 460
Width: 2015
GlyphClass: 2
Flags: W
AnchorPoint: "Anchor-1" 1164 1490 basechar 0
AnchorPoint: "Anchor-0" 917 0 basechar 0
LayerCount: 2
Fore
SplineSet
348 0 m 1,0,-1
 191 1490 l 1,1,-1
 423 1490 l 1,2,-1
 497 630 l 2,3,4
 503 551 503 551 507 469 c 128,-1,5
 511 387 511 387 513.5 304.5 c 128,-1,6
 516 222 516 222 518 139 c 1,7,-1
 483 139 l 1,8,9
 514 222 514 222 544.5 304.5 c 128,-1,10
 575 387 575 387 607 469 c 128,-1,11
 639 551 639 551 672 630 c 2,12,-1
 1038 1490 l 1,13,-1
 1284 1490 l 1,14,-1
 1364 630 l 2,15,16
 1371 551 1371 551 1376 469 c 128,-1,17
 1381 387 1381 387 1384.5 304.5 c 128,-1,18
 1388 222 1388 222 1391 139 c 1,19,-1
 1353 139 l 1,20,21
 1383 222 1383 222 1413 304.5 c 128,-1,22
 1443 387 1443 387 1474.5 469 c 128,-1,23
 1506 551 1506 551 1539 630 c 2,24,-1
 1898 1490 l 1,25,-1
 2138 1490 l 1,26,-1
 1486 0 l 1,27,-1
 1226 0 l 1,28,-1
 1135 897 l 2,29,30
 1125 998 1125 998 1121 1109.5 c 128,-1,31
 1117 1221 1117 1221 1114 1352 c 1,32,-1
 1167 1352 l 1,33,34
 1121 1224 1121 1224 1081 1113 c 128,-1,35
 1041 1002 1041 1002 996 897 c 2,36,-1
 608 0 l 1,37,-1
 348 0 l 1,0,-1
EndSplineSet
Substitution2: "'ss06' Style Set 6 in Latin lookup 52 subtable" W.squared
Substitution2: "'ss05' Style Set 5 in Latin lookup 51 subtable" uni24CC
Position2: "'cpsp' Capital Spacing in Latin lookup 0 subtable" dx=0 dy=0 dh=0 dv=0
EndChar

StartChar: X
Encoding: 88 88 467
Width: 1397
GlyphClass: 2
Flags: W
AnchorPoint: "Anchor-1" 855 1490 basechar 0
AnchorPoint: "Anchor-0" 608 -1 basechar 0
LayerCount: 2
Fore
SplineSet
-52 0 m 1,0,-1
 680 845 l 1,1,-1
 652 677 l 1,2,-1
 233 1490 l 1,3,-1
 486 1490 l 1,4,-1
 634 1193 l 2,5,6
 663 1135 663 1135 686 1085.5 c 128,-1,7
 709 1036 709 1036 729 987.5 c 128,-1,8
 749 939 749 939 771 883 c 1,9,-1
 724 883 l 1,10,11
 765 938 765 938 802 987 c 128,-1,12
 839 1036 839 1036 878 1086 c 128,-1,13
 917 1136 917 1136 968 1193 c 2,14,-1
 1223 1490 l 1,15,-1
 1483 1490 l 1,16,-1
 798 689 l 1,17,-1
 825 852 l 1,18,-1
 1269 0 l 1,19,-1
 1015 0 l 1,20,-1
 830 359 l 2,21,22
 803 412 803 412 781.5 456.5 c 128,-1,23
 760 501 760 501 741 544 c 128,-1,24
 722 587 722 587 701 638 c 1,25,-1
 744 638 l 1,26,27
 706 587 706 587 672.5 544 c 128,-1,28
 639 501 639 501 602 456.5 c 128,-1,29
 565 412 565 412 520 359 c 2,30,-1
 213 0 l 1,31,-1
 -52 0 l 1,0,-1
EndSplineSet
Substitution2: "'ss06' Style Set 6 in Latin lookup 52 subtable" X.squared
Substitution2: "'ss05' Style Set 5 in Latin lookup 51 subtable" uni24CD
Position2: "'cpsp' Capital Spacing in Latin lookup 0 subtable" dx=0 dy=0 dh=0 dv=0
EndChar

StartChar: Y
Encoding: 89 89 473
Width: 1387
GlyphClass: 2
Flags: W
AnchorPoint: "Anchor-4" 717 0 basechar 0
AnchorPoint: "Anchor-1" 850 1490 basechar 0
AnchorPoint: "Anchor-0" 604 0 basechar 0
LayerCount: 2
Fore
SplineSet
493 0 m 1,0,-1
 591 594 l 1,1,-1
 191 1490 l 1,2,-1
 437 1490 l 1,3,-1
 641 1018 l 2,4,5
 673 944 673 944 698.5 874 c 128,-1,6
 724 804 724 804 748 717 c 1,7,-1
 675 717 l 1,8,9
 727 805 727 805 776 875.5 c 128,-1,10
 825 946 825 946 879 1018 c 2,11,-1
 1236 1490 l 1,12,-1
 1510 1490 l 1,13,-1
 815 594 l 1,14,-1
 717 0 l 1,15,-1
 493 0 l 1,0,-1
EndSplineSet
Substitution2: "'c2sc' Capitals to Small Capitals in Latin lookup 67 subtable" y.sc
Substitution2: "'ss06' Style Set 6 in Latin lookup 52 subtable" Y.squared
Substitution2: "'ss05' Style Set 5 in Latin lookup 51 subtable" uni24CE
Substitution2: "'aalt' Access All Alternates in Latin lookup 0 subtable" y.sc
Position2: "'cpsp' Capital Spacing in Latin lookup 0 subtable" dx=0 dy=0 dh=0 dv=0
EndChar

StartChar: uni01B3
Encoding: 435 435 474
Width: 1474
Flags: W
LayerCount: 2
Fore
SplineSet
725 778 m 1,0,-1
 731 812 l 1,1,-1
 766 812 l 1,2,-1
 761 778 l 1,3,-1
 725 778 l 1,0,-1
198 1490 m 1,4,-1
 449 1490 l 1,5,-1
 748 798 l 1,6,-1
 1151 1329 l 2,7,8
 1220 1419 1220 1419 1297.5 1462 c 128,-1,9
 1375 1505 1375 1505 1454 1508 c 128,-1,10
 1533 1511 1533 1511 1606 1477 c 1,11,-1
 1522 1301 l 1,12,13
 1468 1323 1468 1323 1418 1308.5 c 128,-1,14
 1368 1294 1368 1294 1317 1228 c 2,15,-1
 825 602 l 1,16,-1
 726 0 l 1,17,-1
 502 0 l 1,18,-1
 602 602 l 1,19,-1
 198 1490 l 1,4,-1
EndSplineSet
Position2: "'cpsp' Capital Spacing in Latin lookup 0 subtable" dx=0 dy=0 dh=0 dv=0
EndChar

StartChar: uni024E
Encoding: 590 590 484
Width: 1375
GlyphClass: 2
Flags: W
AnchorPoint: "Anchor-4" 717 0 basechar 0
AnchorPoint: "Anchor-1" 850 1490 basechar 0
AnchorPoint: "Anchor-0" 604 0 basechar 0
LayerCount: 2
Fore
SplineSet
1486 1183 m 1,0,-1
 1464 1050 l 1,1,-1
 80 1050 l 1,2,-1
 102 1183 l 1,3,-1
 1486 1183 l 1,0,-1
493 0 m 1,4,-1
 591 594 l 1,5,-1
 191 1490 l 1,6,-1
 437 1490 l 1,7,-1
 641 1018 l 2,8,9
 673 944 673 944 698.5 874 c 128,-1,10
 724 804 724 804 748 717 c 1,11,-1
 675 717 l 1,12,13
 727 805 727 805 776 875.5 c 128,-1,14
 825 946 825 946 879 1018 c 2,15,-1
 1236 1490 l 1,16,-1
 1510 1490 l 1,17,-1
 815 594 l 1,18,-1
 717 0 l 1,19,-1
 493 0 l 1,4,-1
EndSplineSet
Position2: "'cpsp' Capital Spacing in Latin lookup 0 subtable" dx=0 dy=0 dh=0 dv=0
EndChar

StartChar: Z
Encoding: 90 90 497
Width: 1281
GlyphClass: 2
Flags: W
AnchorPoint: "Anchor-1" 799 1490 basechar 0
AnchorPoint: "Anchor-0" 549 0 basechar 0
LayerCount: 2
Fore
SplineSet
21 0 m 1,0,-1
 46 149 l 1,1,-1
 1017 1298 l 1,2,-1
 230 1298 l 1,3,-1
 262 1490 l 1,4,-1
 1327 1490 l 1,5,-1
 1303 1340 l 1,6,-1
 331 193 l 1,7,-1
 1118 193 l 1,8,-1
 1087 0 l 1,9,-1
 21 0 l 1,0,-1
EndSplineSet
Substitution2: "'ss06' Style Set 6 in Latin lookup 52 subtable" Z.squared
Substitution2: "'ss05' Style Set 5 in Latin lookup 51 subtable" uni24CF
Position2: "'cpsp' Capital Spacing in Latin lookup 0 subtable" dx=0 dy=0 dh=0 dv=0
EndChar

StartChar: uni0224
Encoding: 548 548 504
Width: 1281
GlyphClass: 2
Flags: W
AnchorPoint: "Anchor-1" 799 1490 basechar 0
AnchorPoint: "Anchor-0" 549 0 basechar 0
LayerCount: 2
Fore
SplineSet
580 -418 m 1,0,-1
 611 -233 l 1,1,2
 628 -235 628 -235 654.5 -235.5 c 128,-1,3
 681 -236 681 -236 698 -236 c 0,4,5
 766 -236 766 -236 797.5 -213.5 c 128,-1,6
 829 -191 829 -191 838 -139 c 2,7,-1
 861 0 l 1,8,-1
 1087 0 l 1,9,-1
 1061 -149 l 2,10,11
 1038 -285 1038 -285 946.5 -354 c 128,-1,12
 855 -423 855 -423 704 -423 c 0,13,14
 666 -423 666 -423 634 -422 c 128,-1,15
 602 -421 602 -421 580 -418 c 1,0,-1
21 0 m 1,16,-1
 46 149 l 1,17,-1
 1017 1298 l 1,18,-1
 230 1298 l 1,19,-1
 262 1490 l 1,20,-1
 1327 1490 l 1,21,-1
 1303 1340 l 1,22,-1
 331 193 l 1,23,-1
 1118 193 l 1,24,-1
 1087 0 l 1,25,-1
 21 0 l 1,16,-1
EndSplineSet
Position2: "'cpsp' Capital Spacing in Latin lookup 0 subtable" dx=0 dy=0 dh=0 dv=0
EndChar

StartChar: uni2C7F
Encoding: 11391 11391 507
Width: 1297
Flags: W
LayerCount: 2
Fore
SplineSet
861 -433 m 0,0,1
 780 -433 780 -433 719 -401.5 c 128,-1,2
 658 -370 658 -370 608.5 -320.5 c 128,-1,3
 559 -271 559 -271 511 -215.5 c 128,-1,4
 463 -160 463 -160 408.5 -111 c 128,-1,5
 354 -62 354 -62 283.5 -31 c 128,-1,6
 213 0 213 0 117 0 c 2,7,-1
 21 0 l 1,8,-1
 45 145 l 1,9,-1
 1018 1299 l 1,10,-1
 230 1299 l 1,11,-1
 262 1490 l 1,12,-1
 1325 1490 l 1,13,-1
 1301 1345 l 1,14,-1
 315 172 l 1,15,16
 416 150 416 150 486.5 101.5 c 128,-1,17
 557 53 557 53 609 -5.5 c 128,-1,18
 661 -64 661 -64 707 -117 c 128,-1,19
 753 -170 753 -170 804 -204 c 128,-1,20
 855 -238 855 -238 925 -238 c 0,21,22
 966 -238 966 -238 999.5 -232.5 c 128,-1,23
 1033 -227 1033 -227 1066 -219 c 1,24,-1
 1035 -409 l 1,25,26
 1006 -419 1006 -419 959.5 -426 c 128,-1,27
 913 -433 913 -433 861 -433 c 0,0,1
EndSplineSet
Position2: "'cpsp' Capital Spacing in Latin lookup 0 subtable" dx=0 dy=0 dh=0 dv=0
EndChar

StartChar: a
Encoding: 97 97 508
Width: 1224
GlyphClass: 2
Flags: W
AnchorPoint: "Anchor-4" 1000 0 basechar 0
AnchorPoint: "Anchor-1" 698 1087 basechar 0
AnchorPoint: "Anchor-0" 512 0 basechar 0
LayerCount: 2
Fore
SplineSet
451 -21 m 0,0,1
 314 -21 314 -21 221 48.5 c 128,-1,2
 128 118 128 118 90.5 244.5 c 128,-1,3
 53 371 53 371 82 543 c 0,4,5
 110 716 110 716 190.5 841.5 c 128,-1,6
 271 967 271 967 387 1035.5 c 128,-1,7
 503 1104 503 1104 638 1104 c 0,8,9
 724 1104 724 1104 782.5 1077.5 c 128,-1,10
 841 1051 841 1051 877 1009 c 128,-1,11
 913 967 913 967 932 921 c 1,12,-1
 939 921 l 1,13,-1
 967 1087 l 1,14,-1
 1180 1087 l 1,15,-1
 1000 0 l 1,16,-1
 790 0 l 1,17,-1
 817 168 l 1,18,-1
 806 168 l 1,19,20
 771 119 771 119 720.5 75.5 c 128,-1,21
 670 32 670 32 603 5.5 c 128,-1,22
 536 -21 536 -21 451 -21 c 0,0,1
528 163 m 0,23,24
 620 163 620 163 693 211 c 128,-1,25
 766 259 766 259 815.5 344.5 c 128,-1,26
 865 430 865 430 884 544 c 0,27,28
 902 658 902 658 881 742.5 c 128,-1,29
 860 827 860 827 802.5 874 c 128,-1,30
 745 921 745 921 653 921 c 0,31,32
 562 921 562 921 489.5 874 c 128,-1,33
 417 827 417 827 368.5 742.5 c 128,-1,34
 320 658 320 658 300 544 c 0,35,36
 282 429 282 429 303 343.5 c 128,-1,37
 324 258 324 258 381 210.5 c 128,-1,38
 438 163 438 163 528 163 c 0,23,24
EndSplineSet
Substitution2: "'smcp' Lowercase to Small Capitals in Latin lookup 68 subtable" a.sc
Substitution2: "'c2sc' Capitals to Small Capitals in Latin lookup 67 subtable" a.sc
Substitution2: "Single Substitution lookup 44 subtable" ordfeminine
Substitution2: "'sups' Superscript in Latin lookup 39 subtable" a.sups
Substitution2: "'subs' Subscript in Latin lookup 38 subtable" a.subs
Substitution2: "'sinf' Scientific Inferiors in Latin lookup 18 subtable" a.subs
AlternateSubs2: "'aalt' Access All Alternates in Latin lookup 1 subtable" ordfeminine a.sups a.subs a.sc
EndChar

StartChar: aturn
Encoding: 592 592 540
Width: 1224
GlyphClass: 2
Flags: W
AnchorPoint: "Anchor-4" 224 1087 basechar 0
AnchorPoint: "Anchor-1" 722 1087 basechar 0
AnchorPoint: "Anchor-0" 541 0 basechar 0
LayerCount: 2
Fore
SplineSet
774 1108 m 0,0,1
 911 1108 911 1108 1003.5 1038.5 c 128,-1,2
 1096 969 1096 969 1134 843 c 128,-1,3
 1172 717 1172 717 1142 545 c 0,4,5
 1114 373 1114 373 1034 246.5 c 128,-1,6
 954 120 954 120 838 51.5 c 128,-1,7
 722 -17 722 -17 586 -17 c 0,8,9
 501 -17 501 -17 442 9.5 c 128,-1,10
 383 36 383 36 347 78.5 c 128,-1,11
 311 121 311 121 293 167 c 1,12,-1
 285 167 l 1,13,-1
 257 0 l 1,14,-1
 44 0 l 1,15,-1
 224 1087 l 1,16,-1
 435 1087 l 1,17,-1
 407 920 l 1,18,-1
 418 920 l 1,19,20
 454 969 454 969 504.5 1012 c 128,-1,21
 555 1055 555 1055 622 1081.5 c 128,-1,22
 689 1108 689 1108 774 1108 c 0,0,1
696 924 m 0,23,24
 604 924 604 924 531 876 c 128,-1,25
 458 828 458 828 409 743 c 128,-1,26
 360 658 360 658 341 544 c 256,27,28
 322 430 322 430 343 345 c 128,-1,29
 364 260 364 260 421.5 213.5 c 128,-1,30
 479 167 479 167 571 167 c 256,31,32
 663 167 663 167 735 213.5 c 128,-1,33
 807 260 807 260 856 345 c 128,-1,34
 905 430 905 430 924 544 c 0,35,36
 942 660 942 660 921.5 745 c 128,-1,37
 901 830 901 830 844 877 c 128,-1,38
 787 924 787 924 696 924 c 0,23,24
EndSplineSet
EndChar

StartChar: ae
Encoding: 230 230 544
Width: 1826
GlyphClass: 2
Flags: W
AnchorPoint: "Anchor-1" 975 1087 basechar 0
LayerCount: 2
Fore
SplineSet
378 -16 m 0,0,1
 200 -16 200 -16 109 74 c 128,-1,2
 18 164 18 164 44 317 c 0,3,4
 59 406 59 406 111 473.5 c 128,-1,5
 163 541 163 541 257.5 579.5 c 128,-1,6
 352 618 352 618 491 618 c 0,7,8
 546 619 546 619 594.5 617.5 c 128,-1,9
 643 616 643 616 698.5 615 c 128,-1,10
 754 614 754 614 827 614 c 1,11,-1
 811 464 l 1,12,13
 738 464 738 464 660 465 c 128,-1,14
 582 466 582 466 512 465 c 0,15,16
 410 465 410 465 338.5 430.5 c 128,-1,17
 267 396 267 396 254 317 c 0,18,19
 242 237 242 237 284.5 196 c 128,-1,20
 327 155 327 155 421 155 c 0,21,22
 516 155 516 155 583 190 c 128,-1,23
 650 225 650 225 690 281.5 c 128,-1,24
 730 338 730 338 740 402 c 2,25,-1
 801 747 l 2,26,27
 818 839 818 839 770.5 886 c 128,-1,28
 723 933 723 933 611 933 c 0,29,30
 545 933 545 933 492 912 c 128,-1,31
 439 891 439 891 403.5 853 c 128,-1,32
 368 815 368 815 354 763 c 1,33,-1
 142 767 l 1,34,35
 165 868 165 868 233.5 945 c 128,-1,36
 302 1022 302 1022 405.5 1065.5 c 128,-1,37
 509 1109 509 1109 638 1109 c 256,38,39
 767 1109 767 1109 852.5 1063.5 c 128,-1,40
 938 1018 938 1018 974.5 938.5 c 128,-1,41
 1011 859 1011 859 993 752 c 2,42,-1
 913 277 l 1,43,-1
 896 274 l 1,44,45
 860 188 860 188 790.5 123 c 128,-1,46
 721 58 721 58 618.5 21 c 128,-1,47
 516 -16 516 -16 378 -16 c 0,0,1
1199 -24 m 0,48,49
 1060 -24 1060 -24 961 30 c 128,-1,50
 862 84 862 84 812.5 190 c 128,-1,51
 763 296 763 296 768 452 c 0,52,53
 772 596 772 596 817 716.5 c 128,-1,54
 862 837 862 837 941.5 925 c 128,-1,55
 1021 1013 1021 1013 1127 1061.5 c 128,-1,56
 1233 1110 1233 1110 1358 1110 c 0,57,58
 1471 1110 1471 1110 1556.5 1073 c 128,-1,59
 1642 1036 1642 1036 1690.5 966 c 128,-1,60
 1739 896 1739 896 1739 797 c 0,61,62
 1739 702 1739 702 1685.5 637.5 c 128,-1,63
 1632 573 1632 573 1524.5 534.5 c 128,-1,64
 1417 496 1417 496 1255.5 479 c 128,-1,65
 1094 462 1094 462 877 462 c 1,66,-1
 900 611 l 1,67,68
 1086 611 1086 611 1208 621 c 128,-1,69
 1330 631 1330 631 1400.5 654.5 c 128,-1,70
 1471 678 1471 678 1500.5 715.5 c 128,-1,71
 1530 753 1530 753 1530 808 c 0,72,73
 1530 868 1530 868 1481 899.5 c 128,-1,74
 1432 931 1432 931 1348 931 c 0,75,76
 1253 931 1253 931 1177.5 889.5 c 128,-1,77
 1102 848 1102 848 1053 773.5 c 128,-1,78
 1004 699 1004 699 987 599 c 0,79,80
 981 559 981 559 975.5 525.5 c 128,-1,81
 970 492 970 492 966.5 464 c 128,-1,82
 963 436 963 436 963 416 c 0,83,84
 963 287 963 287 1023.5 220.5 c 128,-1,85
 1084 154 1084 154 1205 154 c 0,86,87
 1310 154 1310 154 1388.5 201 c 128,-1,88
 1467 248 1467 248 1502 322 c 1,89,-1
 1709 304 l 1,90,91
 1648 150 1648 150 1515 63 c 128,-1,92
 1382 -24 1382 -24 1199 -24 c 0,48,49
EndSplineSet
EndChar

StartChar: b
Encoding: 98 98 548
Width: 1223
GlyphClass: 2
Flags: W
AnchorPoint: "Anchor-1" 794 1287 basechar 0
AnchorPoint: "Anchor-0" 565 0 basechar 0
LayerCount: 2
Fore
SplineSet
599 -21 m 0,0,1
 511 -21 511 -21 451 6.5 c 128,-1,2
 391 34 391 34 353 79 c 128,-1,3
 315 124 315 124 293 175 c 1,4,-1
 284 175 l 1,5,-1
 254 0 l 1,6,-1
 43 0 l 1,7,-1
 290 1490 l 1,8,-1
 506 1490 l 1,9,-1
 412 922 l 1,10,-1
 420 922 l 1,11,12
 453 971 453 971 500.5 1012 c 128,-1,13
 548 1053 548 1053 612 1078.5 c 128,-1,14
 676 1104 676 1104 760 1104 c 0,15,16
 879 1104 879 1104 966.5 1051 c 128,-1,17
 1054 998 1054 998 1102.5 899.5 c 128,-1,18
 1151 801 1151 801 1151 664 c 0,19,20
 1151 541 1151 541 1114 418.5 c 128,-1,21
 1077 296 1077 296 1006.5 197 c 128,-1,22
 936 98 936 98 833.5 38.5 c 128,-1,23
 731 -21 731 -21 599 -21 c 0,0,1
557 163 m 0,24,25
 649 163 649 163 719.5 207.5 c 128,-1,26
 790 252 790 252 838 325 c 128,-1,27
 886 398 886 398 909.5 485.5 c 128,-1,28
 933 573 933 573 933 660 c 0,29,30
 933 782 933 782 876 851.5 c 128,-1,31
 819 921 819 921 708 921 c 0,32,33
 616 921 616 921 545.5 877.5 c 128,-1,34
 475 834 475 834 426.5 762 c 128,-1,35
 378 690 378 690 353.5 603 c 128,-1,36
 329 516 329 516 329 429 c 0,37,38
 329 307 329 307 388 235 c 128,-1,39
 447 163 447 163 557 163 c 0,24,25
EndSplineSet
Substitution2: "'sups' Superscript in Latin lookup 39 subtable" b.sups
Substitution2: "'subs' Subscript in Latin lookup 38 subtable" b.subs
Substitution2: "'sinf' Scientific Inferiors in Latin lookup 18 subtable" b.subs
AlternateSubs2: "'aalt' Access All Alternates in Latin lookup 1 subtable" b.sups b.subs
EndChar

StartChar: uni0183
Encoding: 387 387 550
Width: 1223
GlyphClass: 2
Flags: W
AnchorPoint: "Anchor-1" 794 1287 basechar 0
AnchorPoint: "Anchor-0" 565 0 basechar 0
LayerCount: 2
Fore
SplineSet
371 1312 m 1,0,-1
 290 1490 l 1,1,-1
 1130 1490 l 1,2,-1
 1100 1312 l 1,3,-1
 371 1312 l 1,0,-1
599 -21 m 0,4,5
 511 -21 511 -21 451 6.5 c 128,-1,6
 391 34 391 34 353 79 c 128,-1,7
 315 124 315 124 293 175 c 1,8,-1
 284 175 l 1,9,-1
 254 0 l 1,10,-1
 43 0 l 1,11,-1
 290 1490 l 1,12,-1
 506 1490 l 1,13,-1
 412 922 l 1,14,-1
 420 922 l 1,15,16
 453 971 453 971 500.5 1012 c 128,-1,17
 548 1053 548 1053 612 1078.5 c 128,-1,18
 676 1104 676 1104 760 1104 c 0,19,20
 879 1104 879 1104 966.5 1051 c 128,-1,21
 1054 998 1054 998 1102.5 899.5 c 128,-1,22
 1151 801 1151 801 1151 664 c 0,23,24
 1151 541 1151 541 1114 418.5 c 128,-1,25
 1077 296 1077 296 1006.5 197 c 128,-1,26
 936 98 936 98 833.5 38.5 c 128,-1,27
 731 -21 731 -21 599 -21 c 0,4,5
557 163 m 0,28,29
 649 163 649 163 719.5 207.5 c 128,-1,30
 790 252 790 252 838 325 c 128,-1,31
 886 398 886 398 909.5 485.5 c 128,-1,32
 933 573 933 573 933 660 c 0,33,34
 933 782 933 782 876 851.5 c 128,-1,35
 819 921 819 921 708 921 c 0,36,37
 616 921 616 921 545.5 877.5 c 128,-1,38
 475 834 475 834 426.5 762 c 128,-1,39
 378 690 378 690 353.5 603 c 128,-1,40
 329 516 329 516 329 429 c 0,41,42
 329 307 329 307 388 235 c 128,-1,43
 447 163 447 163 557 163 c 0,28,29
EndSplineSet
EndChar

StartChar: uni0253
Encoding: 595 595 551
Width: 1220
GlyphClass: 2
Flags: W
AnchorPoint: "Anchor-1" 567 1490 basechar 0
AnchorPoint: "Anchor-0" 553 0 basechar 0
LayerCount: 2
Fore
SplineSet
586 -21 m 0,0,1
 502 -21 502 -21 442.5 6 c 128,-1,2
 383 33 383 33 345.5 76.5 c 128,-1,3
 308 120 308 120 289 167 c 1,4,-1
 278 167 l 1,5,-1
 251 0 l 1,6,-1
 44 0 l 1,7,-1
 191 884 l 1,8,-1
 402 884 l 1,9,-1
 407 916 l 1,10,-1
 415 917 l 1,11,12
 449 963 449 963 497.5 1005 c 128,-1,13
 546 1047 546 1047 612 1073.5 c 128,-1,14
 678 1100 678 1100 763 1100 c 0,15,16
 900 1100 900 1100 994 1032 c 128,-1,17
 1088 964 1088 964 1127 838 c 128,-1,18
 1166 712 1166 712 1138 541 c 0,19,20
 1111 371 1111 371 1032 244.5 c 128,-1,21
 953 118 953 118 838.5 48.5 c 128,-1,22
 724 -21 724 -21 586 -21 c 0,0,1
569 161 m 0,23,24
 660 161 660 161 733 208 c 128,-1,25
 806 255 806 255 855.5 341 c 128,-1,26
 905 427 905 427 923 542 c 0,27,28
 943 657 943 657 922.5 742 c 128,-1,29
 902 827 902 827 844.5 873.5 c 128,-1,30
 787 920 787 920 694 920 c 0,31,32
 602 920 602 920 528 873.5 c 128,-1,33
 454 827 454 827 405 741.5 c 128,-1,34
 356 656 356 656 336 542 c 0,35,36
 317 429 317 429 338.5 342.5 c 128,-1,37
 360 256 360 256 418.5 208.5 c 128,-1,38
 477 161 477 161 569 161 c 0,23,24
191 884 m 1,39,-1
 224 1087 l 1,40,-1
 248 1224 l 2,41,42
 270 1357 270 1357 361 1427 c 128,-1,43
 452 1497 452 1497 607 1497 c 0,44,45
 646 1497 646 1497 676 1495.5 c 128,-1,46
 706 1494 706 1494 727 1492 c 1,47,-1
 698 1317 l 1,48,49
 681 1318 681 1318 655 1318.5 c 128,-1,50
 629 1319 629 1319 611 1319 c 0,51,52
 542 1319 542 1319 507 1296 c 128,-1,53
 472 1273 472 1273 463 1222 c 2,54,-1
 441 1087 l 1,55,-1
 406 884 l 1,56,-1
 191 884 l 1,39,-1
EndSplineSet
EndChar

StartChar: thorn
Encoding: 254 254 555
Width: 1223
Flags: W
LayerCount: 2
Fore
SplineSet
586 -21 m 0,0,1
 501 -21 501 -21 443.5 5.5 c 128,-1,2
 386 32 386 32 350.5 75.5 c 128,-1,3
 315 119 315 119 295 168 c 1,4,-1
 287 168 l 1,5,-1
 190 -418 l 1,6,-1
 -26 -418 l 1,7,-1
 290 1490 l 1,8,-1
 506 1490 l 1,9,-1
 412 921 l 1,10,-1
 420 921 l 1,11,12
 454 967 454 967 503.5 1009 c 128,-1,13
 553 1051 553 1051 620 1077.5 c 128,-1,14
 687 1104 687 1104 772 1104 c 0,15,16
 908 1104 908 1104 1000.5 1036 c 128,-1,17
 1093 968 1093 968 1131.5 842 c 128,-1,18
 1170 716 1170 716 1141 543 c 0,19,20
 1113 371 1113 371 1033.5 244 c 128,-1,21
 954 117 954 117 838 48 c 128,-1,22
 722 -21 722 -21 586 -21 c 0,0,1
571 163 m 0,23,24
 661 163 661 163 733.5 210.5 c 128,-1,25
 806 258 806 258 855 343 c 128,-1,26
 904 428 904 428 923 544 c 0,27,28
 941 658 941 658 921 743 c 128,-1,29
 901 828 901 828 844.5 874.5 c 128,-1,30
 788 921 788 921 696 921 c 256,31,32
 604 921 604 921 531 874 c 128,-1,33
 458 827 458 827 409 742.5 c 128,-1,34
 360 658 360 658 340 544 c 0,35,36
 322 431 322 431 343 345 c 128,-1,37
 364 259 364 259 421.5 211 c 128,-1,38
 479 163 479 163 571 163 c 0,23,24
EndSplineSet
EndChar

StartChar: c
Encoding: 99 99 556
Width: 1138
GlyphClass: 2
Flags: W
AnchorPoint: "Anchor-3" 504 0 basechar 0
AnchorPoint: "Anchor-1" 682 1087 basechar 0
AnchorPoint: "Anchor-0" 505 0 basechar 0
LayerCount: 2
Fore
SplineSet
514 -24 m 0,0,1
 377 -24 377 -24 278.5 32.5 c 128,-1,2
 180 89 180 89 126.5 190.5 c 128,-1,3
 73 292 73 292 73 427 c 0,4,5
 73 556 73 556 114 677.5 c 128,-1,6
 155 799 155 799 233.5 896 c 128,-1,7
 312 993 312 993 423 1049.5 c 128,-1,8
 534 1106 534 1106 675 1106 c 0,9,10
 767 1106 767 1106 842.5 1080.5 c 128,-1,11
 918 1055 918 1055 973.5 1007.5 c 128,-1,12
 1029 960 1029 960 1059.5 894 c 128,-1,13
 1090 828 1090 828 1092 747 c 1,14,-1
 881 726 l 1,15,16
 879 770 879 770 865 805.5 c 128,-1,17
 851 841 851 841 825.5 867.5 c 128,-1,18
 800 894 800 894 761.5 908.5 c 128,-1,19
 723 923 723 923 671 923 c 0,20,21
 579 923 579 923 507.5 879 c 128,-1,22
 436 835 436 835 387.5 762.5 c 128,-1,23
 339 690 339 690 314 602.5 c 128,-1,24
 289 515 289 515 289 427 c 0,25,26
 289 348 289 348 314 288 c 128,-1,27
 339 228 339 228 390 194.5 c 128,-1,28
 441 161 441 161 520 161 c 0,29,30
 574 161 574 161 621 176 c 128,-1,31
 668 191 668 191 706.5 218.5 c 128,-1,32
 745 246 745 246 774 283.5 c 128,-1,33
 803 321 803 321 821 365 c 1,34,-1
 1028 337 l 1,35,36
 1000 256 1000 256 950 190 c 128,-1,37
 900 124 900 124 833 76.5 c 128,-1,38
 766 29 766 29 685 2.5 c 128,-1,39
 604 -24 604 -24 514 -24 c 0,0,1
EndSplineSet
Substitution2: "'sups' Superscript in Latin lookup 39 subtable" c.sups
Substitution2: "'subs' Subscript in Latin lookup 38 subtable" c.subs
Substitution2: "'sinf' Scientific Inferiors in Latin lookup 18 subtable" c.subs
AlternateSubs2: "'aalt' Access All Alternates in Latin lookup 1 subtable" c.sups c.subs
EndChar

StartChar: uni023C
Encoding: 572 572 557
Width: 1138
GlyphClass: 2
Flags: W
AnchorPoint: "Anchor-3" 504 0 basechar 0
AnchorPoint: "Anchor-1" 682 1087 basechar 0
AnchorPoint: "Anchor-0" 505 0 basechar 0
LayerCount: 2
Fore
SplineSet
1 -418 m 1,0,-1
 1018 1490 l 1,1,-1
 1162 1490 l 1,2,-1
 146 -418 l 1,3,-1
 1 -418 l 1,0,-1
514 -24 m 0,4,5
 377 -24 377 -24 278.5 32.5 c 128,-1,6
 180 89 180 89 126.5 190.5 c 128,-1,7
 73 292 73 292 73 427 c 0,8,9
 73 556 73 556 114 677.5 c 128,-1,10
 155 799 155 799 233.5 896 c 128,-1,11
 312 993 312 993 423 1049.5 c 128,-1,12
 534 1106 534 1106 675 1106 c 0,13,14
 767 1106 767 1106 842.5 1080.5 c 128,-1,15
 918 1055 918 1055 973.5 1007.5 c 128,-1,16
 1029 960 1029 960 1059.5 894 c 128,-1,17
 1090 828 1090 828 1092 747 c 1,18,-1
 881 726 l 1,19,20
 879 770 879 770 865 805.5 c 128,-1,21
 851 841 851 841 825.5 867.5 c 128,-1,22
 800 894 800 894 761.5 908.5 c 128,-1,23
 723 923 723 923 671 923 c 0,24,25
 579 923 579 923 507.5 879 c 128,-1,26
 436 835 436 835 387.5 762.5 c 128,-1,27
 339 690 339 690 314 602.5 c 128,-1,28
 289 515 289 515 289 427 c 0,29,30
 289 348 289 348 314 288 c 128,-1,31
 339 228 339 228 390 194.5 c 128,-1,32
 441 161 441 161 520 161 c 0,33,34
 574 161 574 161 621 176 c 128,-1,35
 668 191 668 191 706.5 218.5 c 128,-1,36
 745 246 745 246 774 283.5 c 128,-1,37
 803 321 803 321 821 365 c 1,38,-1
 1028 337 l 1,39,40
 1000 256 1000 256 950 190 c 128,-1,41
 900 124 900 124 833 76.5 c 128,-1,42
 766 29 766 29 685 2.5 c 128,-1,43
 604 -24 604 -24 514 -24 c 0,4,5
EndSplineSet
Ligature2: "'ccmp' Glyph Composition/Decomposition in Latin lookup 6 subtable" c uni0338
EndChar

StartChar: uni0188
Encoding: 392 392 558
Width: 1138
GlyphClass: 2
Flags: W
AnchorPoint: "Anchor-3" 504 0 basechar 0
AnchorPoint: "Anchor-1" 682 1087 basechar 0
AnchorPoint: "Anchor-0" 505 0 basechar 0
LayerCount: 2
Fore
SplineSet
908 736 m 1,0,-1
 910 986 l 1,1,2
 905 1139 905 1139 986.5 1212.5 c 128,-1,3
 1068 1286 1068 1286 1223 1286 c 0,4,5
 1260 1286 1260 1286 1287.5 1284 c 128,-1,6
 1315 1282 1315 1282 1334 1281 c 1,7,-1
 1304 1106 l 1,8,9
 1286 1107 1286 1107 1257 1108 c 128,-1,10
 1228 1109 1228 1109 1210 1109 c 0,11,12
 1152 1109 1152 1109 1125.5 1082.5 c 128,-1,13
 1099 1056 1099 1056 1100 998 c 2,14,-1
 1092 747 l 1,15,-1
 908 736 l 1,0,-1
514 -24 m 0,16,17
 377 -24 377 -24 278.5 32.5 c 128,-1,18
 180 89 180 89 126.5 190.5 c 128,-1,19
 73 292 73 292 73 427 c 0,20,21
 73 556 73 556 114 677.5 c 128,-1,22
 155 799 155 799 233.5 896 c 128,-1,23
 312 993 312 993 423 1049.5 c 128,-1,24
 534 1106 534 1106 675 1106 c 0,25,26
 767 1106 767 1106 842.5 1080.5 c 128,-1,27
 918 1055 918 1055 973.5 1007.5 c 128,-1,28
 1029 960 1029 960 1059.5 894 c 128,-1,29
 1090 828 1090 828 1092 747 c 1,30,-1
 881 726 l 1,31,32
 879 770 879 770 865 805.5 c 128,-1,33
 851 841 851 841 825.5 867.5 c 128,-1,34
 800 894 800 894 761.5 908.5 c 128,-1,35
 723 923 723 923 671 923 c 0,36,37
 579 923 579 923 507.5 879 c 128,-1,38
 436 835 436 835 387.5 762.5 c 128,-1,39
 339 690 339 690 314 602.5 c 128,-1,40
 289 515 289 515 289 427 c 0,41,42
 289 348 289 348 314 288 c 128,-1,43
 339 228 339 228 390 194.5 c 128,-1,44
 441 161 441 161 520 161 c 0,45,46
 574 161 574 161 621 176 c 128,-1,47
 668 191 668 191 706.5 218.5 c 128,-1,48
 745 246 745 246 774 283.5 c 128,-1,49
 803 321 803 321 821 365 c 1,50,-1
 1028 337 l 1,51,52
 1000 256 1000 256 950 190 c 128,-1,53
 900 124 900 124 833 76.5 c 128,-1,54
 766 29 766 29 685 2.5 c 128,-1,55
 604 -24 604 -24 514 -24 c 0,16,17
EndSplineSet
EndChar

StartChar: d
Encoding: 100 100 567
Width: 1223
GlyphClass: 2
Flags: W
AnchorPoint: "Anchor-1" 657 1287 basechar 0
AnchorPoint: "Anchor-0" 490 0 basechar 0
LayerCount: 2
Fore
SplineSet
464 -21 m 0,0,1
 283 -21 283 -21 177.5 97.5 c 128,-1,2
 72 216 72 216 72 418 c 0,3,4
 72 545 72 545 109.5 667.5 c 128,-1,5
 147 790 147 790 218.5 888.5 c 128,-1,6
 290 987 290 987 392.5 1045.5 c 128,-1,7
 495 1104 495 1104 624 1104 c 0,8,9
 714 1104 714 1104 774.5 1076 c 128,-1,10
 835 1048 835 1048 872.5 1004.5 c 128,-1,11
 910 961 910 961 929 913 c 1,12,-1
 935 913 l 1,13,-1
 1030 1490 l 1,14,-1
 1247 1490 l 1,15,-1
 1000 0 l 1,16,-1
 789 0 l 1,17,-1
 816 166 l 1,18,-1
 807 166 l 1,19,20
 772 114 772 114 723 72 c 128,-1,21
 674 30 674 30 610 4.5 c 128,-1,22
 546 -21 546 -21 464 -21 c 0,0,1
515 163 m 0,23,24
 606 163 606 163 676.5 206.5 c 128,-1,25
 747 250 747 250 795.5 322.5 c 128,-1,26
 844 395 844 395 869.5 482.5 c 128,-1,27
 895 570 895 570 895 658 c 0,28,29
 895 779 895 779 836 850 c 128,-1,30
 777 921 777 921 665 921 c 0,31,32
 574 921 574 921 504 877 c 128,-1,33
 434 833 434 833 386.5 761.5 c 128,-1,34
 339 690 339 690 314.5 602.5 c 128,-1,35
 290 515 290 515 290 427 c 0,36,37
 290 304 290 304 348 233.5 c 128,-1,38
 406 163 406 163 515 163 c 0,23,24
EndSplineSet
Substitution2: "'sups' Superscript in Latin lookup 39 subtable" d.sups
Substitution2: "'subs' Subscript in Latin lookup 38 subtable" d.subs
Substitution2: "'sinf' Scientific Inferiors in Latin lookup 18 subtable" d.subs
AlternateSubs2: "'aalt' Access All Alternates in Latin lookup 1 subtable" d.sups d.subs
EndChar

StartChar: drthook
Encoding: 598 598 569
Width: 1223
GlyphClass: 2
Flags: W
AnchorPoint: "Anchor-1" 657 1287 basechar 0
AnchorPoint: "Anchor-0" 490 0 basechar 0
LayerCount: 2
Fore
SplineSet
1024 -423 m 0,0,1
 872 -423 872 -423 806 -354 c 128,-1,2
 740 -285 740 -285 762 -149 c 2,3,-1
 818 189 l 1,4,-1
 1031 189 l 1,5,-1
 975 -147 l 2,6,7
 967 -200 967 -200 993 -222.5 c 128,-1,8
 1019 -245 1019 -245 1086 -245 c 0,9,10
 1105 -245 1105 -245 1131 -244.5 c 128,-1,11
 1157 -244 1157 -244 1175 -243 c 1,12,-1
 1146 -418 l 1,13,14
 1124 -421 1124 -421 1093.5 -422 c 128,-1,15
 1063 -423 1063 -423 1024 -423 c 0,0,1
464 -21 m 0,16,17
 283 -21 283 -21 177.5 97.5 c 128,-1,18
 72 216 72 216 72 418 c 0,19,20
 72 545 72 545 109.5 667.5 c 128,-1,21
 147 790 147 790 218.5 888.5 c 128,-1,22
 290 987 290 987 392.5 1045.5 c 128,-1,23
 495 1104 495 1104 624 1104 c 0,24,25
 714 1104 714 1104 774.5 1076 c 128,-1,26
 835 1048 835 1048 872.5 1004.5 c 128,-1,27
 910 961 910 961 929 913 c 1,28,-1
 935 913 l 1,29,-1
 1030 1490 l 1,30,-1
 1247 1490 l 1,31,-1
 1000 0 l 1,32,-1
 789 0 l 1,33,-1
 816 166 l 1,34,-1
 807 166 l 1,35,36
 772 114 772 114 723 72 c 128,-1,37
 674 30 674 30 610 4.5 c 128,-1,38
 546 -21 546 -21 464 -21 c 0,16,17
515 163 m 0,39,40
 606 163 606 163 676.5 206.5 c 128,-1,41
 747 250 747 250 795.5 322.5 c 128,-1,42
 844 395 844 395 869.5 482.5 c 128,-1,43
 895 570 895 570 895 658 c 0,44,45
 895 779 895 779 836 850 c 128,-1,46
 777 921 777 921 665 921 c 0,47,48
 574 921 574 921 504 877 c 128,-1,49
 434 833 434 833 386.5 761.5 c 128,-1,50
 339 690 339 690 314.5 602.5 c 128,-1,51
 290 515 290 515 290 427 c 0,52,53
 290 304 290 304 348 233.5 c 128,-1,54
 406 163 406 163 515 163 c 0,39,40
EndSplineSet
EndChar

StartChar: uni0257
Encoding: 599 599 570
Width: 1224
GlyphClass: 2
Flags: W
AnchorPoint: "Anchor-4" 1000 0 basechar 0
AnchorPoint: "Anchor-1" 698 1087 basechar 0
AnchorPoint: "Anchor-0" 512 0 basechar 0
LayerCount: 2
Fore
SplineSet
931 884 m 1,0,-1
 964 1087 l 1,1,-1
 987 1224 l 2,2,3
 1009 1357 1009 1357 1100.5 1427 c 128,-1,4
 1192 1497 1192 1497 1347 1497 c 0,5,6
 1386 1497 1386 1497 1416 1495.5 c 128,-1,7
 1446 1494 1446 1494 1467 1492 c 1,8,-1
 1438 1317 l 1,9,10
 1421 1318 1421 1318 1394.5 1318.5 c 128,-1,11
 1368 1319 1368 1319 1350 1319 c 0,12,13
 1282 1319 1282 1319 1246.5 1296 c 128,-1,14
 1211 1273 1211 1273 1203 1222 c 2,15,-1
 1180 1087 l 1,16,-1
 1146 884 l 1,17,-1
 931 884 l 1,0,-1
451 -21 m 0,18,19
 314 -21 314 -21 221 48.5 c 128,-1,20
 128 118 128 118 90.5 244.5 c 128,-1,21
 53 371 53 371 82 543 c 0,22,23
 110 716 110 716 190.5 841.5 c 128,-1,24
 271 967 271 967 387 1035.5 c 128,-1,25
 503 1104 503 1104 638 1104 c 0,26,27
 724 1104 724 1104 782.5 1077.5 c 128,-1,28
 841 1051 841 1051 877 1009 c 128,-1,29
 913 967 913 967 932 921 c 1,30,-1
 939 921 l 1,31,-1
 967 1087 l 1,32,-1
 1180 1087 l 1,33,-1
 1000 0 l 1,34,-1
 790 0 l 1,35,-1
 817 168 l 1,36,-1
 806 168 l 1,37,38
 771 119 771 119 720.5 75.5 c 128,-1,39
 670 32 670 32 603 5.5 c 128,-1,40
 536 -21 536 -21 451 -21 c 0,18,19
528 163 m 0,41,42
 620 163 620 163 693 211 c 128,-1,43
 766 259 766 259 815.5 344.5 c 128,-1,44
 865 430 865 430 884 544 c 0,45,46
 902 658 902 658 881 742.5 c 128,-1,47
 860 827 860 827 802.5 874 c 128,-1,48
 745 921 745 921 653 921 c 0,49,50
 562 921 562 921 489.5 874 c 128,-1,51
 417 827 417 827 368.5 742.5 c 128,-1,52
 320 658 320 658 300 544 c 0,53,54
 282 429 282 429 303 343.5 c 128,-1,55
 324 258 324 258 381 210.5 c 128,-1,56
 438 163 438 163 528 163 c 0,41,42
EndSplineSet
EndChar

StartChar: uni018C
Encoding: 396 396 571
Width: 1223
GlyphClass: 2
Flags: W
AnchorPoint: "Anchor-1" 657 1287 basechar 0
AnchorPoint: "Anchor-0" 490 0 basechar 0
LayerCount: 2
Fore
SplineSet
1106 1312 m 1,0,-1
 377 1312 l 1,1,-1
 406 1490 l 1,2,-1
 1247 1490 l 1,3,-1
 1106 1312 l 1,0,-1
464 -21 m 0,4,5
 283 -21 283 -21 177.5 97.5 c 128,-1,6
 72 216 72 216 72 418 c 0,7,8
 72 545 72 545 109.5 667.5 c 128,-1,9
 147 790 147 790 218.5 888.5 c 128,-1,10
 290 987 290 987 392.5 1045.5 c 128,-1,11
 495 1104 495 1104 624 1104 c 0,12,13
 714 1104 714 1104 774.5 1076 c 128,-1,14
 835 1048 835 1048 872.5 1004.5 c 128,-1,15
 910 961 910 961 929 913 c 1,16,-1
 935 913 l 1,17,-1
 1030 1490 l 1,18,-1
 1247 1490 l 1,19,-1
 1000 0 l 1,20,-1
 789 0 l 1,21,-1
 816 166 l 1,22,-1
 807 166 l 1,23,24
 772 114 772 114 723 72 c 128,-1,25
 674 30 674 30 610 4.5 c 128,-1,26
 546 -21 546 -21 464 -21 c 0,4,5
515 163 m 0,27,28
 606 163 606 163 676.5 206.5 c 128,-1,29
 747 250 747 250 795.5 322.5 c 128,-1,30
 844 395 844 395 869.5 482.5 c 128,-1,31
 895 570 895 570 895 658 c 0,32,33
 895 779 895 779 836 850 c 128,-1,34
 777 921 777 921 665 921 c 0,35,36
 574 921 574 921 504 877 c 128,-1,37
 434 833 434 833 386.5 761.5 c 128,-1,38
 339 690 339 690 314.5 602.5 c 128,-1,39
 290 515 290 515 290 427 c 0,40,41
 290 304 290 304 348 233.5 c 128,-1,42
 406 163 406 163 515 163 c 0,27,28
EndSplineSet
EndChar

StartChar: uni0221
Encoding: 545 545 572
Width: 1543
GlyphClass: 2
Flags: W
AnchorPoint: "Anchor-1" 657 1287 basechar 0
AnchorPoint: "Anchor-0" 490 0 basechar 0
LayerCount: 2
Fore
SplineSet
1056 -418 m 0,0,1
 933 -418 933 -418 866 -371 c 128,-1,2
 799 -324 799 -324 777.5 -248 c 128,-1,3
 756 -172 756 -172 770 -86 c 2,4,-1
 823 234 l 1,5,-1
 1038 234 l 1,6,-1
 980 -120 l 2,7,8
 969 -187 969 -187 1001.5 -221.5 c 128,-1,9
 1034 -256 1034 -256 1085 -256 c 0,10,11
 1132 -256 1132 -256 1167.5 -226.5 c 128,-1,12
 1203 -197 1203 -197 1211 -152 c 0,13,14
 1218 -111 1218 -111 1197.5 -82 c 128,-1,15
 1177 -53 1177 -53 1131 -48 c 0,16,17
 1098 -43 1098 -43 1065.5 -50.5 c 128,-1,18
 1033 -58 1033 -58 999 -76.5 c 128,-1,19
 965 -95 965 -95 925 -125 c 2,20,-1
 599 -391 l 1,21,-1
 500 -255 l 1,22,-1
 788 -22 l 2,23,24
 870 45 870 45 966 82.5 c 128,-1,25
 1062 120 1062 120 1151 120 c 0,26,27
 1290 120 1290 120 1363.5 43.5 c 128,-1,28
 1437 -33 1437 -33 1418 -154 c 0,29,30
 1398 -274 1398 -274 1302 -346 c 128,-1,31
 1206 -418 1206 -418 1056 -418 c 0,0,1
464 -21 m 0,32,33
 283 -21 283 -21 177.5 97.5 c 128,-1,34
 72 216 72 216 72 418 c 0,35,36
 72 545 72 545 109.5 667.5 c 128,-1,37
 147 790 147 790 218.5 888.5 c 128,-1,38
 290 987 290 987 392.5 1045.5 c 128,-1,39
 495 1104 495 1104 624 1104 c 0,40,41
 714 1104 714 1104 774.5 1076 c 128,-1,42
 835 1048 835 1048 872.5 1004.5 c 128,-1,43
 910 961 910 961 929 913 c 1,44,-1
 935 913 l 1,45,-1
 1030 1490 l 1,46,-1
 1247 1490 l 1,47,-1
 1000 0 l 1,48,-1
 789 0 l 1,49,-1
 816 166 l 1,50,-1
 807 166 l 1,51,52
 772 114 772 114 723 72 c 128,-1,53
 674 30 674 30 610 4.5 c 128,-1,54
 546 -21 546 -21 464 -21 c 0,32,33
515 163 m 0,55,56
 606 163 606 163 676.5 206.5 c 128,-1,57
 747 250 747 250 795.5 322.5 c 128,-1,58
 844 395 844 395 869.5 482.5 c 128,-1,59
 895 570 895 570 895 658 c 0,60,61
 895 779 895 779 836 850 c 128,-1,62
 777 921 777 921 665 921 c 0,63,64
 574 921 574 921 504 877 c 128,-1,65
 434 833 434 833 386.5 761.5 c 128,-1,66
 339 690 339 690 314.5 602.5 c 128,-1,67
 290 515 290 515 290 427 c 0,68,69
 290 304 290 304 348 233.5 c 128,-1,70
 406 163 406 163 515 163 c 0,55,56
EndSplineSet
EndChar

StartChar: uni02A3
Encoding: 675 675 580
Width: 2189
GlyphClass: 2
Flags: W
AnchorPoint: "Anchor-1" 657 1287 basechar 0
AnchorPoint: "Anchor-0" 490 0 basechar 0
LayerCount: 2
Fore
SplineSet
1095 0 m 1,0,-1
 1119 147 l 1,1,-1
 1856 921 l 1,2,-1
 1858 932 l 1,3,-1
 1077 932 l 1,4,-1
 1108 1118 l 1,5,-1
 2155 1118 l 1,6,-1
 2130 961 l 1,7,-1
 1417 197 l 1,8,-1
 1415 186 l 1,9,-1
 2020 186 l 1,10,-1
 1990 0 l 1,11,-1
 1095 0 l 1,0,-1
464 -21 m 0,12,13
 283 -21 283 -21 177.5 97.5 c 128,-1,14
 72 216 72 216 72 418 c 0,15,16
 72 545 72 545 109.5 667.5 c 128,-1,17
 147 790 147 790 218.5 888.5 c 128,-1,18
 290 987 290 987 392.5 1045.5 c 128,-1,19
 495 1104 495 1104 624 1104 c 0,20,21
 714 1104 714 1104 774.5 1076 c 128,-1,22
 835 1048 835 1048 872.5 1004.5 c 128,-1,23
 910 961 910 961 929 913 c 1,24,-1
 935 913 l 1,25,-1
 1030 1490 l 1,26,-1
 1247 1490 l 1,27,-1
 1000 0 l 1,28,-1
 789 0 l 1,29,-1
 816 166 l 1,30,-1
 807 166 l 1,31,32
 772 114 772 114 723 72 c 128,-1,33
 674 30 674 30 610 4.5 c 128,-1,34
 546 -21 546 -21 464 -21 c 0,12,13
515 163 m 0,35,36
 606 163 606 163 676.5 206.5 c 128,-1,37
 747 250 747 250 795.5 322.5 c 128,-1,38
 844 395 844 395 869.5 482.5 c 128,-1,39
 895 570 895 570 895 658 c 0,40,41
 895 779 895 779 836 850 c 128,-1,42
 777 921 777 921 665 921 c 0,43,44
 574 921 574 921 504 877 c 128,-1,45
 434 833 434 833 386.5 761.5 c 128,-1,46
 339 690 339 690 314.5 602.5 c 128,-1,47
 290 515 290 515 290 427 c 0,48,49
 290 304 290 304 348 233.5 c 128,-1,50
 406 163 406 163 515 163 c 0,35,36
EndSplineSet
EndChar

StartChar: dyogh
Encoding: 676 676 582
Width: 2027
GlyphClass: 2
Flags: W
AnchorPoint: "Anchor-1" 657 1287 basechar 0
AnchorPoint: "Anchor-0" 490 0 basechar 0
LayerCount: 2
Fore
SplineSet
996 -84 m 1,0,1
 1001 -136 1001 -136 1038 -173 c 128,-1,2
 1075 -210 1075 -210 1134.5 -229.5 c 128,-1,3
 1194 -249 1194 -249 1266 -249 c 0,4,5
 1358 -249 1358 -249 1433.5 -217.5 c 128,-1,6
 1509 -186 1509 -186 1559.5 -126 c 128,-1,7
 1610 -66 1610 -66 1624 17 c 0,8,9
 1637 98 1637 98 1609 160 c 128,-1,10
 1581 222 1581 222 1509 257.5 c 128,-1,11
 1437 293 1437 293 1318 293 c 2,12,-1
 1201 293 l 1,13,-1
 1230 467 l 1,14,-1
 1658 891 l 1,15,-1
 1660 897 l 1,16,-1
 1055 897 l 1,17,-1
 1086 1088 l 1,18,-1
 1966 1088 l 1,19,-1
 1939 927 l 1,20,-1
 1451 454 l 1,21,-1
 1450 447 l 1,22,23
 1555 440 1555 440 1635 404.5 c 128,-1,24
 1715 369 1715 369 1766.5 310.5 c 128,-1,25
 1818 252 1818 252 1838 176 c 128,-1,26
 1858 100 1858 100 1843 11 c 0,27,28
 1822 -119 1822 -119 1736 -219.5 c 128,-1,29
 1650 -320 1650 -320 1520 -377 c 128,-1,30
 1390 -434 1390 -434 1235 -434 c 0,31,32
 1101 -434 1101 -434 998 -391.5 c 128,-1,33
 895 -349 895 -349 836.5 -270 c 128,-1,34
 778 -191 778 -191 776 -84 c 1,35,-1
 996 -84 l 1,0,1
464 -21 m 0,36,37
 283 -21 283 -21 177.5 97.5 c 128,-1,38
 72 216 72 216 72 418 c 0,39,40
 72 545 72 545 109.5 667.5 c 128,-1,41
 147 790 147 790 218.5 888.5 c 128,-1,42
 290 987 290 987 392.5 1045.5 c 128,-1,43
 495 1104 495 1104 624 1104 c 0,44,45
 714 1104 714 1104 774.5 1076 c 128,-1,46
 835 1048 835 1048 872.5 1004.5 c 128,-1,47
 910 961 910 961 929 913 c 1,48,-1
 935 913 l 1,49,-1
 1030 1490 l 1,50,-1
 1247 1490 l 1,51,-1
 1000 0 l 1,52,-1
 789 0 l 1,53,-1
 816 166 l 1,54,-1
 807 166 l 1,55,56
 772 114 772 114 723 72 c 128,-1,57
 674 30 674 30 610 4.5 c 128,-1,58
 546 -21 546 -21 464 -21 c 0,36,37
515 163 m 0,59,60
 606 163 606 163 676.5 206.5 c 128,-1,61
 747 250 747 250 795.5 322.5 c 128,-1,62
 844 395 844 395 869.5 482.5 c 128,-1,63
 895 570 895 570 895 658 c 0,64,65
 895 779 895 779 836 850 c 128,-1,66
 777 921 777 921 665 921 c 0,67,68
 574 921 574 921 504 877 c 128,-1,69
 434 833 434 833 386.5 761.5 c 128,-1,70
 339 690 339 690 314.5 602.5 c 128,-1,71
 290 515 290 515 290 427 c 0,72,73
 290 304 290 304 348 233.5 c 128,-1,74
 406 163 406 163 515 163 c 0,59,60
EndSplineSet
EndChar

StartChar: e
Encoding: 101 101 584
Width: 1146
GlyphClass: 2
Flags: W
AnchorPoint: "Anchor-4" 1028 299 basechar 0
AnchorPoint: "Anchor-3" 511 0 basechar 0
AnchorPoint: "Anchor-1" 685 1087 basechar 0
AnchorPoint: "Anchor-0" 510 0 basechar 0
LayerCount: 2
Fore
SplineSet
517 -24 m 0,0,1
 380 -24 380 -24 280 28 c 128,-1,2
 180 80 180 80 126 183 c 128,-1,3
 72 286 72 286 74 437 c 0,4,5
 76 582 76 582 122.5 704.5 c 128,-1,6
 169 827 169 827 252 918.5 c 128,-1,7
 335 1010 335 1010 445.5 1060 c 128,-1,8
 556 1110 556 1110 684 1110 c 0,9,10
 796 1110 796 1110 881 1073.5 c 128,-1,11
 966 1037 966 1037 1013.5 968.5 c 128,-1,12
 1061 900 1061 900 1061 802 c 0,13,14
 1061 702 1061 702 1007.5 635.5 c 128,-1,15
 954 569 954 569 846.5 529.5 c 128,-1,16
 739 490 739 490 577 473 c 128,-1,17
 415 456 415 456 197 456 c 1,18,-1
 224 612 l 1,19,20
 409 612 409 612 531 622 c 128,-1,21
 653 632 653 632 723 654 c 128,-1,22
 793 676 793 676 822.5 712 c 128,-1,23
 852 748 852 748 852 799 c 0,24,25
 852 861 852 861 802 896 c 128,-1,26
 752 931 752 931 663 931 c 0,27,28
 558 931 558 931 486.5 884.5 c 128,-1,29
 415 838 415 838 370 763.5 c 128,-1,30
 325 689 325 689 305 601.5 c 128,-1,31
 285 514 285 514 284 432 c 0,32,33
 283 356 283 356 304.5 293 c 128,-1,34
 326 230 326 230 380.5 192 c 128,-1,35
 435 154 435 154 531 154 c 0,36,37
 636 154 636 154 712.5 200 c 128,-1,38
 789 246 789 246 825 321 c 1,39,-1
 1028 299 l 1,40,41
 970 153 970 153 836 64.5 c 128,-1,42
 702 -24 702 -24 517 -24 c 0,0,1
EndSplineSet
Substitution2: "'sups' Superscript in Latin lookup 39 subtable" e.sups
Substitution2: "'subs' Subscript in Latin lookup 38 subtable" e.subs
Substitution2: "'sinf' Scientific Inferiors in Latin lookup 18 subtable" e.subs
AlternateSubs2: "'aalt' Access All Alternates in Latin lookup 1 subtable" e.sups e.subs
EndChar

StartChar: uni0247
Encoding: 583 583 586
Width: 1146
GlyphClass: 2
Flags: W
AnchorPoint: "Anchor-4" 1028 299 basechar 0
AnchorPoint: "Anchor-3" 511 0 basechar 0
AnchorPoint: "Anchor-1" 685 1087 basechar 0
AnchorPoint: "Anchor-0" 510 0 basechar 0
LayerCount: 2
Fore
SplineSet
-18 -418 m 1,0,-1
 1031 1490 l 1,1,-1
 1172 1490 l 1,2,-1
 125 -418 l 1,3,-1
 -18 -418 l 1,0,-1
517 -24 m 0,4,5
 380 -24 380 -24 280 28 c 128,-1,6
 180 80 180 80 126 183 c 128,-1,7
 72 286 72 286 74 437 c 0,8,9
 76 582 76 582 122.5 704.5 c 128,-1,10
 169 827 169 827 252 918.5 c 128,-1,11
 335 1010 335 1010 445.5 1060 c 128,-1,12
 556 1110 556 1110 684 1110 c 0,13,14
 796 1110 796 1110 881 1073.5 c 128,-1,15
 966 1037 966 1037 1013.5 968.5 c 128,-1,16
 1061 900 1061 900 1061 802 c 0,17,18
 1061 702 1061 702 1007.5 635.5 c 128,-1,19
 954 569 954 569 846.5 529.5 c 128,-1,20
 739 490 739 490 577 473 c 128,-1,21
 415 456 415 456 197 456 c 1,22,-1
 224 612 l 1,23,24
 409 612 409 612 531 622 c 128,-1,25
 653 632 653 632 723 654 c 128,-1,26
 793 676 793 676 822.5 712 c 128,-1,27
 852 748 852 748 852 799 c 0,28,29
 852 861 852 861 802 896 c 128,-1,30
 752 931 752 931 663 931 c 0,31,32
 558 931 558 931 486.5 884.5 c 128,-1,33
 415 838 415 838 370 763.5 c 128,-1,34
 325 689 325 689 305 601.5 c 128,-1,35
 285 514 285 514 284 432 c 0,36,37
 283 356 283 356 304.5 293 c 128,-1,38
 326 230 326 230 380.5 192 c 128,-1,39
 435 154 435 154 531 154 c 0,40,41
 636 154 636 154 712.5 200 c 128,-1,42
 789 246 789 246 825 321 c 1,43,-1
 1028 299 l 1,44,45
 970 153 970 153 836 64.5 c 128,-1,46
 702 -24 702 -24 517 -24 c 0,4,5
EndSplineSet
EndChar

StartChar: eturn
Encoding: 477 477 615
Width: 1146
GlyphClass: 2
Flags: W
AnchorPoint: "Anchor-4" 118 788 basechar 0
AnchorPoint: "Anchor-3" 635 1087 basechar 0
AnchorPoint: "Anchor-1" 651 1087 basechar 0
AnchorPoint: "Anchor-0" 472 1 basechar 0
LayerCount: 2
Fore
SplineSet
628 1111 m 0,0,1
 766 1111 766 1111 866.5 1059 c 128,-1,2
 967 1007 967 1007 1020.5 904.5 c 128,-1,3
 1074 802 1074 802 1071 650 c 0,4,5
 1069 506 1069 506 1022.5 383 c 128,-1,6
 976 260 976 260 893 169 c 128,-1,7
 810 78 810 78 700 27.5 c 128,-1,8
 590 -23 590 -23 461 -23 c 0,9,10
 350 -23 350 -23 265 13.5 c 128,-1,11
 180 50 180 50 132 119.5 c 128,-1,12
 84 189 84 189 84 285 c 0,13,14
 84 385 84 385 137.5 451.5 c 128,-1,15
 191 518 191 518 299 557.5 c 128,-1,16
 407 597 407 597 568.5 614 c 128,-1,17
 730 631 730 631 948 631 c 1,18,-1
 922 475 l 1,19,20
 736 475 736 475 614 465.5 c 128,-1,21
 492 456 492 456 422 433.5 c 128,-1,22
 352 411 352 411 323 375 c 128,-1,23
 294 339 294 339 294 288 c 0,24,25
 294 228 294 228 343.5 192 c 128,-1,26
 393 156 393 156 482 156 c 0,27,28
 587 156 587 156 659 202.5 c 128,-1,29
 731 249 731 249 775.5 324 c 128,-1,30
 820 399 820 399 840.5 486.5 c 128,-1,31
 861 574 861 574 861 656 c 0,32,33
 862 732 862 732 841 794.5 c 128,-1,34
 820 857 820 857 765.5 895 c 128,-1,35
 711 933 711 933 615 933 c 0,36,37
 510 933 510 933 433.5 887.5 c 128,-1,38
 357 842 357 842 321 767 c 1,39,-1
 118 788 l 1,40,41
 175 935 175 935 309.5 1023 c 128,-1,42
 444 1111 444 1111 628 1111 c 0,0,1
EndSplineSet
EndChar

StartChar: _part.f_base
Encoding: 1114123 -1 616
Width: 736
GlyphClass: 2
Flags: W
AnchorPoint: "Anchor-1" 597 1519 basechar 0
LayerCount: 2
Fore
SplineSet
-55 -434 m 0,0,1
 -78 -434 -78 -434 -96.5 -433 c 128,-1,2
 -115 -432 -115 -432 -133 -430 c 128,-1,3
 -151 -428 -151 -428 -175 -425 c 1,4,-1
 -134 -240 l 1,5,6
 -114 -242 -114 -242 -94 -244 c 128,-1,7
 -74 -246 -74 -246 -53 -246 c 0,8,9
 18 -246 18 -246 53.5 -212.5 c 128,-1,10
 89 -179 89 -179 101 -101 c 2,11,-1
 318 1202 l 2,12,13
 335 1306 335 1306 385 1378 c 128,-1,14
 435 1450 435 1450 515 1487.5 c 128,-1,15
 595 1525 595 1525 700 1525 c 0,16,17
 738 1525 738 1525 773 1522 c 128,-1,18
 808 1519 808 1519 841 1515 c 1,19,-1
 796 1338 l 1,20,21
 777 1340 777 1340 747.5 1341 c 128,-1,22
 718 1342 718 1342 691 1342 c 0,23,24
 620 1342 620 1342 582.5 1306 c 128,-1,25
 545 1270 545 1270 532 1191 c 2,26,-1
 317 -104 l 2,27,28
 299 -212 299 -212 253 -285 c 128,-1,29
 207 -358 207 -358 130.5 -396 c 128,-1,30
 54 -434 54 -434 -55 -434 c 0,0,1
EndSplineSet
EndChar

StartChar: f
Encoding: 102 102 617
Width: 729
GlyphClass: 2
Flags: W
AnchorPoint: "Anchor-1" 610 1519 basechar 0
AnchorPoint: "Anchor-0" 240 0 basechar 0
LayerCount: 2
Fore
SplineSet
762 1087 m 1,0,-1
 733 914 l 1,1,-1
 80 914 l 1,2,-1
 109 1087 l 1,3,-1
 762 1087 l 1,0,-1
-42 -434 m 0,4,5
 -65 -434 -65 -434 -83 -433 c 128,-1,6
 -101 -432 -101 -432 -119.5 -430 c 128,-1,7
 -138 -428 -138 -428 -162 -425 c 1,8,-1
 -121 -240 l 1,9,10
 -100 -242 -100 -242 -80 -244 c 128,-1,11
 -60 -246 -60 -246 -39 -246 c 0,12,13
 32 -246 32 -246 67.5 -212.5 c 128,-1,14
 103 -179 103 -179 115 -101 c 2,15,-1
 331 1202 l 2,16,17
 349 1306 349 1306 399 1378 c 128,-1,18
 449 1450 449 1450 528.5 1487.5 c 128,-1,19
 608 1525 608 1525 714 1525 c 0,20,21
 751 1525 751 1525 786.5 1522 c 128,-1,22
 822 1519 822 1519 854 1515 c 1,23,-1
 810 1338 l 1,24,25
 790 1340 790 1340 761 1341 c 128,-1,26
 732 1342 732 1342 704 1342 c 0,27,28
 634 1342 634 1342 596.5 1306 c 128,-1,29
 559 1270 559 1270 546 1191 c 2,30,-1
 330 -104 l 2,31,32
 313 -212 313 -212 266.5 -285 c 128,-1,33
 220 -358 220 -358 143.5 -396 c 128,-1,34
 67 -434 67 -434 -42 -434 c 0,4,5
EndSplineSet
Substitution2: "'cv12' Character Variants 12 in Latin lookup 65 subtable" f.1
Substitution2: "'salt' Stylistic Alternatives in Latin lookup 46 subtable" f.1
Substitution2: "'sups' Superscript in Latin lookup 39 subtable" f.sups
Substitution2: "'subs' Subscript in Latin lookup 38 subtable" f.subs
Substitution2: "Single Substitution lookup 36 subtable" f.1
Substitution2: "Single Substitution lookup 35 subtable" f.i.1
Substitution2: "Single Substitution lookup 34 subtable" f.i
Substitution2: "'sinf' Scientific Inferiors in Latin lookup 18 subtable" f.subs
AlternateSubs2: "'aalt' Access All Alternates in Latin lookup 1 subtable" f.sups f.subs
EndChar

StartChar: f.1
Encoding: 60941 60941 618
Width: 642
GlyphClass: 2
Flags: W
AnchorPoint: "Anchor-1" 523 1519 basechar 0
AnchorPoint: "Anchor-0" 152 0 basechar 0
LayerCount: 2
Fore
SplineSet
674 1087 m 1,0,-1
 646 914 l 1,1,-1
 300 914 l 1,2,-1
 329 1087 l 1,3,-1
 674 1087 l 1,0,-1
-129 -434 m 0,4,5
 -153 -434 -153 -434 -171 -433 c 128,-1,6
 -189 -432 -189 -432 -207.5 -430 c 128,-1,7
 -226 -428 -226 -428 -249 -425 c 1,8,-1
 -208 -240 l 1,9,10
 -188 -242 -188 -242 -168 -244 c 128,-1,11
 -148 -246 -148 -246 -127 -246 c 0,12,13
 -56 -246 -56 -246 -20.5 -212.5 c 128,-1,14
 15 -179 15 -179 28 -101 c 2,15,-1
 243 1202 l 2,16,17
 261 1306 261 1306 311.5 1378 c 128,-1,18
 362 1450 362 1450 441.5 1487.5 c 128,-1,19
 521 1525 521 1525 626 1525 c 0,20,21
 664 1525 664 1525 699 1522 c 128,-1,22
 734 1519 734 1519 766 1515 c 1,23,-1
 723 1338 l 1,24,25
 703 1340 703 1340 674 1341 c 128,-1,26
 645 1342 645 1342 616 1342 c 0,27,28
 546 1342 546 1342 508.5 1306 c 128,-1,29
 471 1270 471 1270 458 1191 c 2,30,-1
 243 -104 l 2,31,32
 226 -212 226 -212 179.5 -285 c 128,-1,33
 133 -358 133 -358 56.5 -396 c 128,-1,34
 -20 -434 -20 -434 -129 -434 c 0,4,5
EndSplineSet
EndChar

StartChar: f.i
Encoding: 60942 60942 619
Width: 644
GlyphClass: 2
Flags: W
AnchorPoint: "Anchor-1" 582 1519 basechar 0
AnchorPoint: "Anchor-0" 214 0 basechar 0
LayerCount: 2
Fore
SplineSet
-70 -434 m 0,0,1
 -93 -434 -93 -434 -111.5 -433 c 128,-1,2
 -130 -432 -130 -432 -148 -430 c 128,-1,3
 -166 -428 -166 -428 -190 -425 c 1,4,-1
 -149 -240 l 1,5,6
 -129 -242 -129 -242 -109 -244 c 128,-1,7
 -89 -246 -89 -246 -68 -246 c 0,8,9
 3 -246 3 -246 38.5 -212.5 c 128,-1,10
 74 -179 74 -179 86 -101 c 2,11,-1
 303 1202 l 2,12,13
 320 1306 320 1306 370 1378 c 128,-1,14
 420 1450 420 1450 500 1487.5 c 128,-1,15
 580 1525 580 1525 685 1525 c 0,16,17
 704 1525 704 1525 722 1525 c 128,-1,18
 740 1525 740 1525 757 1524 c 1,19,-1
 730 1342 l 1,20,21
 716 1343 716 1343 701.5 1342.5 c 128,-1,22
 687 1342 687 1342 675 1342 c 0,23,24
 604 1342 604 1342 567 1306.5 c 128,-1,25
 530 1271 530 1271 517 1194 c 2,26,-1
 302 -104 l 2,27,28
 284 -212 284 -212 238 -285 c 128,-1,29
 192 -358 192 -358 115.5 -396 c 128,-1,30
 39 -434 39 -434 -70 -434 c 0,0,1
92 911 m 1,31,-1
 120 1087 l 1,32,-1
 953 1087 l 1,33,-1
 925 911 l 1,34,-1
 92 911 l 1,31,-1
EndSplineSet
Substitution2: "Single Substitution lookup 35 subtable" f.i.1
EndChar

StartChar: f.i.1
Encoding: 60943 60943 620
Width: 585
GlyphClass: 2
Flags: W
AnchorPoint: "Anchor-1" 523 1519 basechar 0
AnchorPoint: "Anchor-0" 154 0 basechar 0
LayerCount: 2
Fore
SplineSet
-129 -434 m 0,0,1
 -153 -434 -153 -434 -171 -433 c 128,-1,2
 -189 -432 -189 -432 -207.5 -430 c 128,-1,3
 -226 -428 -226 -428 -249 -425 c 1,4,-1
 -208 -240 l 1,5,6
 -188 -242 -188 -242 -168 -244 c 128,-1,7
 -148 -246 -148 -246 -127 -246 c 0,8,9
 -56 -246 -56 -246 -20.5 -212.5 c 128,-1,10
 15 -179 15 -179 28 -101 c 2,11,-1
 243 1202 l 2,12,13
 261 1306 261 1306 311.5 1378 c 128,-1,14
 362 1450 362 1450 441.5 1487.5 c 128,-1,15
 521 1525 521 1525 626 1525 c 0,16,17
 645 1525 645 1525 662.5 1525 c 128,-1,18
 680 1525 680 1525 698 1524 c 1,19,-1
 671 1342 l 1,20,21
 656 1343 656 1343 642 1342.5 c 128,-1,22
 628 1342 628 1342 615 1342 c 0,23,24
 546 1342 546 1342 508.5 1306.5 c 128,-1,25
 471 1271 471 1271 458 1194 c 2,26,-1
 243 -104 l 2,27,28
 226 -212 226 -212 179.5 -285 c 128,-1,29
 133 -358 133 -358 56 -396 c 128,-1,30
 -21 -434 -21 -434 -129 -434 c 0,0,1
298 911 m 1,31,-1
 327 1087 l 1,32,-1
 895 1087 l 1,33,-1
 865 911 l 1,34,-1
 298 911 l 1,31,-1
EndSplineSet
EndChar

StartChar: g
Encoding: 103 103 628
Width: 1224
GlyphClass: 2
Flags: W
AnchorPoint: "Anchor-1" 679 1087 basechar 0
AnchorPoint: "Anchor-0" 440 -432 basechar 0
LayerCount: 2
Fore
SplineSet
448 -437 m 0,0,1
 316 -437 316 -437 222.5 -400 c 128,-1,2
 129 -363 129 -363 77 -298 c 128,-1,3
 25 -233 25 -233 17 -148 c 1,4,-1
 216 -111 l 1,5,6
 225 -152 225 -152 251.5 -186 c 128,-1,7
 278 -220 278 -220 327 -241 c 128,-1,8
 376 -262 376 -262 451 -262 c 0,9,10
 584 -262 584 -262 675.5 -193.5 c 128,-1,11
 767 -125 767 -125 787 3 c 2,12,-1
 817 185 l 1,13,-1
 807 183 l 1,14,15
 770 134 770 134 722.5 93 c 128,-1,16
 675 52 675 52 612.5 27 c 128,-1,17
 550 2 550 2 467 2 c 0,18,19
 348 2 348 2 259.5 53 c 128,-1,20
 171 104 171 104 122 200 c 128,-1,21
 73 296 73 296 73 428 c 0,22,23
 73 554 73 554 111.5 674 c 128,-1,24
 150 794 150 794 221.5 891.5 c 128,-1,25
 293 989 293 989 395 1046.5 c 128,-1,26
 497 1104 497 1104 625 1104 c 0,27,28
 692 1104 692 1104 742.5 1088.5 c 128,-1,29
 793 1073 793 1073 830 1045 c 128,-1,30
 867 1017 867 1017 891.5 982.5 c 128,-1,31
 916 948 916 948 931 912 c 1,32,-1
 941 914 l 1,33,-1
 969 1087 l 1,34,-1
 1181 1087 l 1,35,-1
 999 -8 l 2,36,37
 974 -161 974 -161 894.5 -255.5 c 128,-1,38
 815 -350 815 -350 699 -393.5 c 128,-1,39
 583 -437 583 -437 448 -437 c 0,0,1
518 184 m 0,40,41
 610 184 610 184 680.5 225.5 c 128,-1,42
 751 267 751 267 798.5 336.5 c 128,-1,43
 846 406 846 406 870.5 490 c 128,-1,44
 895 574 895 574 895 661 c 0,45,46
 895 782 895 782 836.5 852 c 128,-1,47
 778 922 778 922 665 922 c 0,48,49
 576 922 576 922 506 879.5 c 128,-1,50
 436 837 436 837 388 766.5 c 128,-1,51
 340 696 340 696 315.5 610 c 128,-1,52
 291 524 291 524 291 437 c 0,53,54
 291 316 291 316 350 250 c 128,-1,55
 409 184 409 184 518 184 c 0,40,41
EndSplineSet
Substitution2: "'smcp' Lowercase to Small Capitals in Latin lookup 68 subtable" g.sc
Substitution2: "'sups' Superscript in Latin lookup 39 subtable" g.sups
Substitution2: "'subs' Subscript in Latin lookup 38 subtable" g.subs
Substitution2: "'sinf' Scientific Inferiors in Latin lookup 18 subtable" g.subs
AlternateSubs2: "'aalt' Access All Alternates in Latin lookup 1 subtable" g.sc g.sups g.subs
EndChar

StartChar: uni0260
Encoding: 608 608 629
Width: 1224
GlyphClass: 2
Flags: W
AnchorPoint: "Anchor-1" 679 1087 basechar 0
AnchorPoint: "Anchor-0" 440 -432 basechar 0
LayerCount: 2
Fore
SplineSet
931 884 m 1,0,-1
 964 1087 l 1,1,-1
 988 1224 l 2,2,3
 1010 1357 1010 1357 1101 1427 c 128,-1,4
 1192 1497 1192 1497 1347 1497 c 0,5,6
 1386 1497 1386 1497 1416 1495.5 c 128,-1,7
 1446 1494 1446 1494 1467 1492 c 1,8,-1
 1438 1317 l 1,9,10
 1421 1318 1421 1318 1395 1318.5 c 128,-1,11
 1369 1319 1369 1319 1351 1319 c 0,12,13
 1282 1319 1282 1319 1247 1296 c 128,-1,14
 1212 1273 1212 1273 1203 1222 c 2,15,-1
 1181 1087 l 1,16,-1
 1146 884 l 1,17,-1
 931 884 l 1,0,-1
448 -437 m 0,18,19
 316 -437 316 -437 222.5 -400 c 128,-1,20
 129 -363 129 -363 77 -298 c 128,-1,21
 25 -233 25 -233 17 -148 c 1,22,-1
 216 -111 l 1,23,24
 225 -152 225 -152 251.5 -186 c 128,-1,25
 278 -220 278 -220 327 -241 c 128,-1,26
 376 -262 376 -262 451 -262 c 0,27,28
 584 -262 584 -262 675.5 -193.5 c 128,-1,29
 767 -125 767 -125 787 3 c 2,30,-1
 817 185 l 1,31,-1
 807 183 l 1,32,33
 770 134 770 134 722.5 93 c 128,-1,34
 675 52 675 52 612.5 27 c 128,-1,35
 550 2 550 2 467 2 c 0,36,37
 348 2 348 2 259.5 53 c 128,-1,38
 171 104 171 104 122 200 c 128,-1,39
 73 296 73 296 73 428 c 0,40,41
 73 554 73 554 111.5 674 c 128,-1,42
 150 794 150 794 221.5 891.5 c 128,-1,43
 293 989 293 989 395 1046.5 c 128,-1,44
 497 1104 497 1104 625 1104 c 0,45,46
 692 1104 692 1104 742.5 1088.5 c 128,-1,47
 793 1073 793 1073 830 1045 c 128,-1,48
 867 1017 867 1017 891.5 982.5 c 128,-1,49
 916 948 916 948 931 912 c 1,50,-1
 941 914 l 1,51,-1
 969 1087 l 1,52,-1
 1181 1087 l 1,53,-1
 999 -8 l 2,54,55
 974 -161 974 -161 894.5 -255.5 c 128,-1,56
 815 -350 815 -350 699 -393.5 c 128,-1,57
 583 -437 583 -437 448 -437 c 0,18,19
518 184 m 0,58,59
 610 184 610 184 680.5 225.5 c 128,-1,60
 751 267 751 267 798.5 336.5 c 128,-1,61
 846 406 846 406 870.5 490 c 128,-1,62
 895 574 895 574 895 661 c 0,63,64
 895 782 895 782 836.5 852 c 128,-1,65
 778 922 778 922 665 922 c 0,66,67
 576 922 576 922 506 879.5 c 128,-1,68
 436 837 436 837 388 766.5 c 128,-1,69
 340 696 340 696 315.5 610 c 128,-1,70
 291 524 291 524 291 437 c 0,71,72
 291 316 291 316 350 250 c 128,-1,73
 409 184 409 184 518 184 c 0,58,59
EndSplineSet
Substitution2: "'smcp' Lowercase to Small Capitals in Latin lookup 68 subtable" uni0260.sc
Substitution2: "'c2sc' Capitals to Small Capitals in Latin lookup 67 subtable" uni0260.sc
Substitution2: "'aalt' Access All Alternates in Latin lookup 0 subtable" uni0260.sc
EndChar

StartChar: g.sc
Encoding: 610 610 638
Width: 1135
GlyphClass: 2
Flags: W
AnchorPoint: "Anchor-1" 676 1087 basechar 0
AnchorPoint: "Anchor-0" 495 0 basechar 0
LayerCount: 2
Fore
SplineSet
514 -16 m 0,0,1
 378 -16 378 -16 279.5 38.5 c 128,-1,2
 181 93 181 93 127 193.5 c 128,-1,3
 73 294 73 294 73 432 c 0,4,5
 73 563 73 563 116 684 c 128,-1,6
 159 805 159 805 238.5 899.5 c 128,-1,7
 318 994 318 994 428 1048.5 c 128,-1,8
 538 1103 538 1103 673 1103 c 0,9,10
 794 1103 794 1103 889.5 1057.5 c 128,-1,11
 985 1012 985 1012 1039.5 928.5 c 128,-1,12
 1094 845 1094 845 1091 732 c 1,13,-1
 874 732 l 1,14,15
 870 788 870 788 844.5 828.5 c 128,-1,16
 819 869 819 869 774.5 891.5 c 128,-1,17
 730 914 730 914 668 914 c 0,18,19
 577 914 577 914 505.5 872.5 c 128,-1,20
 434 831 434 831 385 761 c 128,-1,21
 336 691 336 691 311 606.5 c 128,-1,22
 286 522 286 522 286 435 c 0,23,24
 286 311 286 311 349 242 c 128,-1,25
 412 173 412 173 525 173 c 0,26,27
 608 173 608 173 675 205 c 128,-1,28
 742 237 742 237 786 293.5 c 128,-1,29
 830 350 830 350 841 423 c 1,30,-1
 888 410 l 1,31,-1
 597 410 l 1,32,-1
 625 575 l 1,33,-1
 1073 575 l 1,34,-1
 1050 432 l 2,35,36
 1027 295 1027 295 951 194.5 c 128,-1,37
 875 94 875 94 762 39 c 128,-1,38
 649 -16 649 -16 514 -16 c 0,0,1
EndSplineSet
EndChar

StartChar: uni0260.sc
Encoding: 60947 60947 639
Width: 1219
GlyphClass: 2
Flags: W
AnchorPoint: "Anchor-1" 676 1087 basechar 0
AnchorPoint: "Anchor-0" 495 0 basechar 0
LayerCount: 2
Fore
SplineSet
945 732 m 1,0,-1
 946 957 l 2,1,2
 944 1047 944 1047 976 1114.5 c 128,-1,3
 1008 1182 1008 1182 1074 1219.5 c 128,-1,4
 1140 1257 1140 1257 1236 1257 c 0,5,6
 1273 1257 1273 1257 1297.5 1255.5 c 128,-1,7
 1322 1254 1322 1254 1344 1251 c 1,8,-1
 1315 1077 l 1,9,10
 1297 1078 1297 1078 1276.5 1078.5 c 128,-1,11
 1256 1079 1256 1079 1240 1079 c 0,12,13
 1170 1079 1170 1079 1139.5 1041 c 128,-1,14
 1109 1003 1109 1003 1112 903 c 1,15,-1
 1091 732 l 1,16,-1
 945 732 l 1,0,-1
514 -16 m 0,17,18
 378 -16 378 -16 279.5 38.5 c 128,-1,19
 181 93 181 93 127 193.5 c 128,-1,20
 73 294 73 294 73 432 c 0,21,22
 73 563 73 563 116 684 c 128,-1,23
 159 805 159 805 238.5 899.5 c 128,-1,24
 318 994 318 994 428 1048.5 c 128,-1,25
 538 1103 538 1103 673 1103 c 0,26,27
 794 1103 794 1103 889.5 1057.5 c 128,-1,28
 985 1012 985 1012 1039.5 928.5 c 128,-1,29
 1094 845 1094 845 1091 732 c 1,30,-1
 874 732 l 1,31,32
 870 788 870 788 844.5 828.5 c 128,-1,33
 819 869 819 869 774.5 891.5 c 128,-1,34
 730 914 730 914 668 914 c 0,35,36
 577 914 577 914 505.5 872.5 c 128,-1,37
 434 831 434 831 385 761 c 128,-1,38
 336 691 336 691 311 606.5 c 128,-1,39
 286 522 286 522 286 435 c 0,40,41
 286 311 286 311 349 242 c 128,-1,42
 412 173 412 173 525 173 c 0,43,44
 608 173 608 173 675 205 c 128,-1,45
 742 237 742 237 786 293.5 c 128,-1,46
 830 350 830 350 841 423 c 1,47,-1
 888 410 l 1,48,-1
 597 410 l 1,49,-1
 625 575 l 1,50,-1
 1073 575 l 1,51,-1
 1050 432 l 2,52,53
 1027 295 1027 295 951 194.5 c 128,-1,54
 875 94 875 94 762 39 c 128,-1,55
 649 -16 649 -16 514 -16 c 0,17,18
EndSplineSet
EndChar

StartChar: h
Encoding: 104 104 640
Width: 1190
GlyphClass: 2
Flags: W
AnchorPoint: "Anchor-3" 154 0 basechar 0
AnchorPoint: "Anchor-1" 398 1490 basechar 0
AnchorPoint: "Anchor-0" 505 0 basechar 0
LayerCount: 2
Fore
SplineSet
365 635 m 2,0,-1
 259 0 l 1,1,-1
 43 0 l 1,2,-1
 290 1490 l 1,3,-1
 505 1490 l 1,4,-1
 394 820 l 1,5,-1
 353 820 l 1,6,7
 403 918 403 918 464 980.5 c 128,-1,8
 525 1043 525 1043 598 1073.5 c 128,-1,9
 671 1104 671 1104 758 1104 c 0,10,11
 870 1104 870 1104 950.5 1056.5 c 128,-1,12
 1031 1009 1031 1009 1067 916 c 128,-1,13
 1103 823 1103 823 1080 684 c 2,14,-1
 967 0 l 1,15,-1
 750 0 l 1,16,-1
 860 658 l 2,17,18
 880 782 880 782 829 848 c 128,-1,19
 778 914 778 914 667 914 c 0,20,21
 595 914 595 914 531.5 883.5 c 128,-1,22
 468 853 468 853 424 791 c 128,-1,23
 380 729 380 729 365 635 c 2,0,-1
EndSplineSet
Substitution2: "'smcp' Lowercase to Small Capitals in Latin lookup 68 subtable" h.sc
Substitution2: "'sups' Superscript in Latin lookup 39 subtable" h.sups
Substitution2: "'subs' Subscript in Latin lookup 38 subtable" h.subs
Substitution2: "'sinf' Scientific Inferiors in Latin lookup 18 subtable" h.subs
AlternateSubs2: "'aalt' Access All Alternates in Latin lookup 1 subtable" h.sups h.subs h.sc
EndChar

StartChar: uni0452
Encoding: 1106 1106 643
Width: 1190
GlyphClass: 2
Flags: W
AnchorPoint: "Anchor-3" 154 0 basechar 0
AnchorPoint: "Anchor-1" 398 1490 basechar 0
AnchorPoint: "Anchor-0" 505 0 basechar 0
LayerCount: 2
Fore
SplineSet
587 -423 m 0,0,1
 549 -423 549 -423 518.5 -422 c 128,-1,2
 488 -421 488 -421 466 -418 c 1,3,-1
 495 -243 l 1,4,5
 512 -244 512 -244 538 -244.5 c 128,-1,6
 564 -245 564 -245 583 -245 c 0,7,8
 653 -245 653 -245 685.5 -221.5 c 128,-1,9
 718 -198 718 -198 726 -147 c 2,10,-1
 750 0 l 1,11,-1
 967 0 l 1,12,-1
 941 -149 l 2,13,14
 918 -285 918 -285 828 -354 c 128,-1,15
 738 -423 738 -423 587 -423 c 0,0,1
365 635 m 2,16,-1
 259 0 l 1,17,-1
 43 0 l 1,18,-1
 290 1490 l 1,19,-1
 505 1490 l 1,20,-1
 394 820 l 1,21,-1
 353 820 l 1,22,23
 403 918 403 918 464 980.5 c 128,-1,24
 525 1043 525 1043 598 1073.5 c 128,-1,25
 671 1104 671 1104 758 1104 c 0,26,27
 870 1104 870 1104 950.5 1056.5 c 128,-1,28
 1031 1009 1031 1009 1067 916 c 128,-1,29
 1103 823 1103 823 1080 684 c 2,30,-1
 967 0 l 1,31,-1
 750 0 l 1,32,-1
 860 658 l 2,33,34
 880 782 880 782 829 848 c 128,-1,35
 778 914 778 914 667 914 c 0,36,37
 595 914 595 914 531.5 883.5 c 128,-1,38
 468 853 468 853 424 791 c 128,-1,39
 380 729 380 729 365 635 c 2,16,-1
97 1205 m 1,40,-1
 123 1361 l 1,41,-1
 798 1361 l 1,42,-1
 772 1205 l 1,43,-1
 97 1205 l 1,40,-1
EndSplineSet
EndChar

StartChar: uni0266
Encoding: 614 614 644
Width: 1190
GlyphClass: 2
Flags: W
AnchorPoint: "Anchor-1" 685 1087 basechar 0
AnchorPoint: "Anchor-0" 505 0 basechar 0
LayerCount: 2
Fore
SplineSet
190 884 m 1,0,-1
 224 1087 l 1,1,-1
 246 1224 l 2,2,3
 268 1357 268 1357 359.5 1427 c 128,-1,4
 451 1497 451 1497 606 1497 c 0,5,6
 645 1497 645 1497 675 1495.5 c 128,-1,7
 705 1494 705 1494 726 1492 c 1,8,-1
 697 1317 l 1,9,10
 680 1318 680 1318 653.5 1318.5 c 128,-1,11
 627 1319 627 1319 609 1319 c 0,12,13
 541 1319 541 1319 505.5 1296 c 128,-1,14
 470 1273 470 1273 462 1222 c 2,15,-1
 439 1087 l 1,16,-1
 405 884 l 1,17,-1
 190 884 l 1,0,-1
363 628 m 2,18,-1
 259 0 l 1,19,-1
 43 0 l 1,20,-1
 223 1087 l 1,21,-1
 432 1087 l 1,22,-1
 390 820 l 1,23,-1
 352 826 l 1,24,25
 426 971 426 971 526.5 1037.5 c 128,-1,26
 627 1104 627 1104 755 1104 c 0,27,28
 870 1104 870 1104 950.5 1055 c 128,-1,29
 1031 1006 1031 1006 1066.5 911 c 128,-1,30
 1102 816 1102 816 1079 677 c 2,31,-1
 967 0 l 1,32,-1
 750 0 l 1,33,-1
 860 665 l 2,34,35
 881 790 881 790 832 852 c 128,-1,36
 783 914 783 914 677 914 c 0,37,38
 601 914 601 914 535.5 881.5 c 128,-1,39
 470 849 470 849 424.5 785.5 c 128,-1,40
 379 722 379 722 363 628 c 2,18,-1
EndSplineSet
EndChar

StartChar: uni0267
Encoding: 615 615 645
Width: 1190
GlyphClass: 2
Flags: W
AnchorPoint: "Anchor-1" 685 1087 basechar 0
AnchorPoint: "Anchor-0" 505 0 basechar 0
LayerCount: 2
Fore
SplineSet
587 -423 m 0,0,1
 549 -423 549 -423 518.5 -422 c 128,-1,2
 488 -421 488 -421 466 -418 c 1,3,-1
 495 -243 l 1,4,5
 512 -244 512 -244 538 -244.5 c 128,-1,6
 564 -245 564 -245 583 -245 c 0,7,8
 653 -245 653 -245 685.5 -221.5 c 128,-1,9
 718 -198 718 -198 726 -147 c 2,10,-1
 750 0 l 1,11,-1
 967 0 l 1,12,-1
 941 -149 l 2,13,14
 918 -285 918 -285 828 -354 c 128,-1,15
 738 -423 738 -423 587 -423 c 0,0,1
363 628 m 2,16,-1
 259 0 l 1,17,-1
 43 0 l 1,18,-1
 223 1087 l 1,19,-1
 432 1087 l 1,20,-1
 390 820 l 1,21,-1
 352 826 l 1,22,23
 426 971 426 971 526.5 1037.5 c 128,-1,24
 627 1104 627 1104 755 1104 c 0,25,26
 870 1104 870 1104 950.5 1055 c 128,-1,27
 1031 1006 1031 1006 1066.5 911 c 128,-1,28
 1102 816 1102 816 1079 677 c 2,29,-1
 967 0 l 1,30,-1
 750 0 l 1,31,-1
 860 665 l 2,32,33
 881 790 881 790 832 852 c 128,-1,34
 783 914 783 914 677 914 c 0,35,36
 601 914 601 914 535.5 881.5 c 128,-1,37
 470 849 470 849 424.5 785.5 c 128,-1,38
 379 722 379 722 363 628 c 2,16,-1
190 884 m 1,39,-1
 224 1087 l 1,40,-1
 246 1224 l 2,41,42
 268 1357 268 1357 359.5 1427 c 128,-1,43
 451 1497 451 1497 606 1497 c 0,44,45
 645 1497 645 1497 675 1495.5 c 128,-1,46
 705 1494 705 1494 726 1492 c 1,47,-1
 697 1317 l 1,48,49
 680 1318 680 1318 653.5 1318.5 c 128,-1,50
 627 1319 627 1319 609 1319 c 0,51,52
 541 1319 541 1319 505.5 1296 c 128,-1,53
 470 1273 470 1273 462 1222 c 2,54,-1
 439 1087 l 1,55,-1
 405 884 l 1,56,-1
 190 884 l 1,39,-1
EndSplineSet
EndChar

StartChar: uni0195
Encoding: 405 405 646
Width: 1936
Flags: W
LayerCount: 2
Fore
SplineSet
44 0 m 1,0,-1
 290 1490 l 1,1,-1
 504 1490 l 1,2,-1
 412 934 l 1,3,-1
 428 934 l 1,4,5
 481 1027 481 1027 570.5 1079.5 c 128,-1,6
 660 1132 660 1132 790 1132 c 0,7,8
 905 1132 905 1132 983 1085 c 128,-1,9
 1061 1038 1061 1038 1093.5 944.5 c 128,-1,10
 1126 851 1126 851 1103 710 c 2,11,-1
 1078 558 l 1,12,-1
 861 558 l 1,13,-1
 881 685 l 2,14,15
 901 808 901 808 849 876 c 128,-1,16
 797 944 797 944 684 944 c 0,17,18
 608 944 608 944 542 911.5 c 128,-1,19
 476 879 476 879 430.5 816.5 c 128,-1,20
 385 754 385 754 370 663 c 2,21,-1
 260 0 l 1,22,-1
 44 0 l 1,0,-1
1163 -20 m 0,23,24
 1045 -20 1045 -20 963.5 30.5 c 128,-1,25
 882 81 882 81 848.5 183 c 128,-1,26
 815 285 815 285 841 440 c 2,27,-1
 861 558 l 1,28,-1
 1078 558 l 1,29,-1
 1059 440 l 2,30,31
 1039 328 1039 328 1060 268.5 c 128,-1,32
 1081 209 1081 209 1122.5 187.5 c 128,-1,33
 1164 166 1164 166 1206 165 c 0,34,35
 1295 166 1295 166 1380 247 c 128,-1,36
 1465 328 1465 328 1537.5 506 c 128,-1,37
 1610 684 1610 684 1658 975 c 2,38,-1
 1682 1118 l 1,39,-1
 1899 1118 l 1,40,-1
 1875 975 l 2,41,42
 1818 628 1818 628 1713.5 408 c 128,-1,43
 1609 188 1609 188 1468.5 84 c 128,-1,44
 1328 -20 1328 -20 1163 -20 c 0,23,24
EndSplineSet
EndChar

StartChar: hturn
Encoding: 613 613 647
Width: 1190
GlyphClass: 2
Flags: W
AnchorPoint: "Anchor-3" 1037 1087 basechar 0
AnchorPoint: "Anchor-1" 687 1087 basechar 0
AnchorPoint: "Anchor-0" 686 1087 basechar 0
LayerCount: 2
Fore
SplineSet
826 452 m 2,0,-1
 931 1087 l 1,1,-1
 1146 1087 l 1,2,-1
 899 -403 l 1,3,-1
 685 -403 l 1,4,-1
 796 268 l 1,5,-1
 838 268 l 1,6,7
 788 171 788 171 727 107.5 c 128,-1,8
 666 44 666 44 593 13.5 c 128,-1,9
 520 -17 520 -17 433 -17 c 0,10,11
 321 -17 321 -17 240 30.5 c 128,-1,12
 159 78 159 78 123.5 172 c 128,-1,13
 88 266 88 266 110 403 c 2,14,-1
 224 1087 l 1,15,-1
 440 1087 l 1,16,-1
 331 430 l 2,17,18
 311 306 311 306 362 239.5 c 128,-1,19
 413 173 413 173 522 173 c 0,20,21
 595 173 595 173 658.5 203.5 c 128,-1,22
 722 234 722 234 766 296.5 c 128,-1,23
 810 359 810 359 826 452 c 2,0,-1
EndSplineSet
EndChar

StartChar: hturnlthook
Encoding: 686 686 648
Width: 1299
Flags: W
LayerCount: 2
Fore
SplineSet
791 -418 m 1,0,-1
 904 268 l 1,1,-1
 946 268 l 1,2,3
 872 123 872 123 767.5 53 c 128,-1,4
 663 -17 663 -17 532 -17 c 0,5,6
 420 -17 420 -17 342 31 c 128,-1,7
 264 79 264 79 230.5 172.5 c 128,-1,8
 197 266 197 266 219 403 c 2,9,-1
 282 784 l 2,10,11
 295 861 295 861 258.5 889 c 128,-1,12
 222 917 222 917 147 917 c 0,13,14
 136 917 136 917 124.5 916.5 c 128,-1,15
 113 916 113 916 100.5 915.5 c 128,-1,16
 88 915 88 915 79 914 c 1,17,-1
 109 1089 l 1,18,19
 132 1093 132 1093 160.5 1093.5 c 128,-1,20
 189 1094 189 1094 223 1094 c 0,21,22
 296 1094 296 1094 352.5 1075.5 c 128,-1,23
 409 1057 409 1057 446.5 1020 c 128,-1,24
 484 983 484 983 498 926 c 128,-1,25
 512 869 512 869 499 791 c 2,26,-1
 440 430 l 2,27,28
 420 307 420 307 470 240 c 128,-1,29
 520 173 520 173 631 173 c 0,30,31
 703 173 703 173 766.5 203.5 c 128,-1,32
 830 234 830 234 874.5 296.5 c 128,-1,33
 919 359 919 359 934 452 c 2,34,-1
 1039 1087 l 1,35,-1
 1255 1087 l 1,36,-1
 1006 -418 l 1,37,-1
 791 -418 l 1,0,-1
EndSplineSet
EndChar

StartChar: hturnhook2
Encoding: 687 687 649
Width: 1300
Flags: W
LayerCount: 2
Fore
SplineSet
1091 -423 m 0,0,1
 945 -423 945 -423 879 -355 c 128,-1,2
 813 -287 813 -287 834 -155 c 2,3,-1
 905 268 l 1,4,-1
 945 268 l 1,5,6
 872 123 872 123 767.5 53 c 128,-1,7
 663 -17 663 -17 532 -17 c 0,8,9
 420 -17 420 -17 342 31 c 128,-1,10
 264 79 264 79 230.5 172.5 c 128,-1,11
 197 266 197 266 219 403 c 2,12,-1
 282 784 l 2,13,14
 295 861 295 861 258.5 889 c 128,-1,15
 222 917 222 917 147 917 c 0,16,17
 136 917 136 917 124.5 916.5 c 128,-1,18
 113 916 113 916 100.5 915.5 c 128,-1,19
 88 915 88 915 79 914 c 1,20,-1
 109 1089 l 1,21,22
 132 1093 132 1093 160.5 1093.5 c 128,-1,23
 189 1094 189 1094 223 1094 c 0,24,25
 296 1094 296 1094 352.5 1075.5 c 128,-1,26
 409 1057 409 1057 446.5 1020 c 128,-1,27
 484 983 484 983 498 926 c 128,-1,28
 512 869 512 869 499 791 c 2,29,-1
 439 430 l 2,30,31
 420 307 420 307 470 240 c 128,-1,32
 520 173 520 173 631 173 c 0,33,34
 703 173 703 173 766.5 203.5 c 128,-1,35
 830 234 830 234 874.5 296.5 c 128,-1,36
 919 359 919 359 934 452 c 2,37,-1
 1039 1087 l 1,38,-1
 1255 1087 l 1,39,-1
 1050 -150 l 2,40,41
 1041 -201 1041 -201 1067 -223.5 c 128,-1,42
 1093 -246 1093 -246 1160 -246 c 0,43,44
 1178 -246 1178 -246 1205.5 -245.5 c 128,-1,45
 1233 -245 1233 -245 1251 -244 c 1,46,-1
 1222 -418 l 1,47,48
 1208 -419 1208 -419 1187 -420.5 c 128,-1,49
 1166 -422 1166 -422 1142 -422.5 c 128,-1,50
 1118 -423 1118 -423 1091 -423 c 0,0,1
EndSplineSet
EndChar

StartChar: dotlessi
Encoding: 305 305 660
Width: 483
GlyphClass: 2
Flags: W
AnchorPoint: "Anchor-4" 260 0 basechar 0
AnchorPoint: "Anchor-1" 333 1087 basechar 0
AnchorPoint: "Anchor-0" 153 0 basechar 0
LayerCount: 2
Fore
SplineSet
44 0 m 1,0,-1
 223 1087 l 1,1,-1
 440 1087 l 1,2,-1
 260 0 l 1,3,-1
 44 0 l 1,0,-1
EndSplineSet
EndChar

StartChar: uni0237
Encoding: 567 567 682
Width: 483
GlyphClass: 2
Flags: W
AnchorPoint: "Anchor-1" 332 1087 basechar 0
AnchorPoint: "Anchor-0" 20 -447 basechar 0
LayerCount: 2
Fore
SplineSet
224 1087 m 1,0,-1
 439 1087 l 1,1,-1
 243 -100 l 2,2,3
 226 -200 226 -200 176.5 -271 c 128,-1,4
 127 -342 127 -342 47 -380 c 128,-1,5
 -33 -418 -33 -418 -140 -418 c 2,6,-1
 -207 -418 l 1,7,-1
 -176 -234 l 1,8,-1
 -128 -234 l 2,9,10
 -58 -234 -58 -234 -20.5 -197.5 c 128,-1,11
 17 -161 17 -161 29 -86 c 2,12,-1
 224 1087 l 1,0,-1
EndSplineSet
EndChar

StartChar: i.sc
Encoding: 60950 60950 689
Width: 647
GlyphClass: 2
Flags: W
AnchorPoint: "Anchor-4" 505 0 basechar 0
AnchorPoint: "Anchor-1" 414 1087 basechar 0
AnchorPoint: "Anchor-0" 234 0 basechar 0
LayerCount: 2
Fore
SplineSet
-38 0 m 1,0,-1
 -9 179 l 1,1,-1
 155 179 l 1,2,-1
 277 909 l 1,3,-1
 113 909 l 1,4,-1
 142 1087 l 1,5,-1
 685 1087 l 1,6,-1
 655 909 l 1,7,-1
 492 909 l 1,8,-1
 371 179 l 1,9,-1
 534 179 l 1,10,-1
 505 0 l 1,11,-1
 -38 0 l 1,0,-1
EndSplineSet
EndChar

StartChar: jcrosstail.ccmp
Encoding: 57423 57423 691
Width: 758
GlyphClass: 2
Flags: W
AnchorPoint: "Anchor-4" 525 0 basechar 0
AnchorPoint: "Anchor-1" 597 1087 basechar 0
AnchorPoint: "Anchor-0" 334 -460 basechar 0
LayerCount: 2
Fore
SplineSet
131 -422 m 0,0,1
 31 -422 31 -422 -32.5 -387 c 128,-1,2
 -96 -352 -96 -352 -122.5 -291 c 128,-1,3
 -149 -230 -149 -230 -137 -154 c 0,4,5
 -124 -70 -124 -70 -73 -9 c 128,-1,6
 -22 52 -22 52 54.5 85.5 c 128,-1,7
 131 119 131 119 220 119 c 2,8,-1
 773 119 l 1,9,-1
 744 -58 l 1,10,-1
 200 -58 l 2,11,12
 151 -59 151 -59 113.5 -86.5 c 128,-1,13
 76 -114 76 -114 69 -159 c 0,14,15
 63 -201 63 -201 87.5 -228 c 128,-1,16
 112 -255 112 -255 156 -255 c 0,17,18
 216 -255 216 -255 248.5 -209.5 c 128,-1,19
 281 -164 281 -164 289 -118 c 2,20,-1
 328 123 l 1,21,-1
 541 123 l 1,22,-1
 507 -84 l 2,23,24
 497 -148 497 -148 467.5 -209 c 128,-1,25
 438 -270 438 -270 391 -318.5 c 128,-1,26
 344 -367 344 -367 279 -394.5 c 128,-1,27
 214 -422 214 -422 131 -422 c 0,0,1
309 0 m 1,28,-1
 489 1087 l 1,29,-1
 705 1087 l 1,30,-1
 525 0 l 1,31,-1
 309 0 l 1,28,-1
EndSplineSet
EndChar

StartChar: k
Encoding: 107 107 698
Width: 1107
GlyphClass: 2
Flags: W
AnchorPoint: "Anchor-1" 399 1490 basechar 0
AnchorPoint: "Anchor-0" 483 0 basechar 0
LayerCount: 2
Fore
SplineSet
303 366 m 1,0,-1
 346 625 l 1,1,-1
 374 625 l 1,2,-1
 897 1087 l 1,3,-1
 1159 1087 l 1,4,-1
 568 562 l 1,5,-1
 533 562 l 1,6,-1
 303 366 l 1,0,-1
43 0 m 1,7,-1
 290 1490 l 1,8,-1
 506 1490 l 1,9,-1
 259 0 l 1,10,-1
 43 0 l 1,7,-1
744 0 m 1,11,-1
 432 514 l 1,12,-1
 606 665 l 1,13,-1
 1010 0 l 1,14,-1
 744 0 l 1,11,-1
EndSplineSet
Substitution2: "'sups' Superscript in Latin lookup 39 subtable" k.sups
Substitution2: "'subs' Subscript in Latin lookup 38 subtable" k.subs
Substitution2: "'sinf' Scientific Inferiors in Latin lookup 18 subtable" k.subs
AlternateSubs2: "'aalt' Access All Alternates in Latin lookup 1 subtable" k.sups k.subs
EndChar

StartChar: uni0199
Encoding: 409 409 699
Width: 1108
GlyphClass: 2
Flags: W
AnchorPoint: "Anchor-1" 333 1087 basechar 0
AnchorPoint: "Anchor-0" 484 0 basechar 0
LayerCount: 2
Fore
SplineSet
191 884 m 1,0,-1
 224 1087 l 1,1,-1
 247 1224 l 2,2,3
 269 1357 269 1357 360.5 1427 c 128,-1,4
 452 1497 452 1497 607 1497 c 0,5,6
 646 1497 646 1497 676 1495.5 c 128,-1,7
 706 1494 706 1494 727 1492 c 1,8,-1
 698 1317 l 1,9,10
 681 1318 681 1318 654.5 1318.5 c 128,-1,11
 628 1319 628 1319 610 1319 c 0,12,13
 542 1319 542 1319 506.5 1296 c 128,-1,14
 471 1273 471 1273 463 1222 c 2,15,-1
 440 1087 l 1,16,-1
 406 884 l 1,17,-1
 191 884 l 1,0,-1
304 366 m 1,18,-1
 347 625 l 1,19,-1
 375 625 l 1,20,-1
 898 1087 l 1,21,-1
 1160 1087 l 1,22,-1
 569 562 l 1,23,-1
 534 562 l 1,24,-1
 304 366 l 1,18,-1
44 0 m 1,25,-1
 224 1087 l 1,26,-1
 440 1087 l 1,27,-1
 260 0 l 1,28,-1
 44 0 l 1,25,-1
745 0 m 1,29,-1
 432 514 l 1,30,-1
 607 665 l 1,31,-1
 1011 0 l 1,32,-1
 745 0 l 1,29,-1
EndSplineSet
EndChar

StartChar: kturn
Encoding: 670 670 705
Width: 1107
GlyphClass: 2
Flags: W
AnchorPoint: "Anchor-1" 649 1087 basechar 0
AnchorPoint: "Anchor-0" 625 1087 basechar 0
LayerCount: 2
Fore
SplineSet
804 721 m 1,0,-1
 761 462 l 1,1,-1
 733 462 l 1,2,-1
 212 0 l 1,3,-1
 -52 0 l 1,4,-1
 539 526 l 1,5,-1
 574 526 l 1,6,-1
 804 721 l 1,0,-1
1064 1087 m 1,7,-1
 817 -403 l 1,8,-1
 601 -403 l 1,9,-1
 848 1087 l 1,10,-1
 1064 1087 l 1,7,-1
363 1087 m 1,11,-1
 676 574 l 1,12,-1
 502 422 l 1,13,-1
 98 1087 l 1,14,-1
 363 1087 l 1,11,-1
EndSplineSet
EndChar

StartChar: k.base
Encoding: 60951 60951 706
Width: 1108
GlyphClass: 2
Flags: W
AnchorPoint: "Anchor-1" 332 1087 basechar 0
AnchorPoint: "Anchor-0" 483 0 basechar 0
LayerCount: 2
Fore
SplineSet
304 366 m 1,0,-1
 347 625 l 1,1,-1
 375 625 l 1,2,-1
 897 1087 l 1,3,-1
 1160 1087 l 1,4,-1
 569 562 l 1,5,-1
 534 562 l 1,6,-1
 304 366 l 1,0,-1
44 0 m 1,7,-1
 224 1087 l 1,8,-1
 440 1087 l 1,9,-1
 260 0 l 1,10,-1
 44 0 l 1,7,-1
745 0 m 1,11,-1
 433 514 l 1,12,-1
 606 665 l 1,13,-1
 1010 0 l 1,14,-1
 745 0 l 1,11,-1
EndSplineSet
EndChar

StartChar: l
Encoding: 1114124 -1 707
Width: 483
GlyphClass: 2
Flags: W
AnchorPoint: "Anchor-1" 399 1490 basechar 0
AnchorPoint: "Anchor-0" 151 0 basechar 0
LayerCount: 2
Fore
SplineSet
506 1490 m 1,0,-1
 259 0 l 1,1,-1
 43 0 l 1,2,-1
 290 1490 l 1,3,-1
 506 1490 l 1,0,-1
EndSplineSet
Substitution2: "'smcp' Lowercase to Small Capitals in Latin lookup 68 subtable" l.sc
Substitution2: "'c2sc' Capitals to Small Capitals in Latin lookup 67 subtable" l.sc
Substitution2: "'cv05' Character Variants 05 in Latin lookup 59 subtable" l.ss02
Substitution2: "'ss04' Style Set 4 in Latin lookup 50 subtable" l.ss02
Substitution2: "'ss02' Style Set 2 in Latin lookup 48 subtable" l.ss02
Substitution2: "'salt' Stylistic Alternatives in Latin lookup 46 subtable" l.ss02
Substitution2: "'sups' Superscript in Latin lookup 39 subtable" l.sups
Substitution2: "'subs' Subscript in Latin lookup 38 subtable" l.subs
Substitution2: "'sinf' Scientific Inferiors in Latin lookup 18 subtable" l.subs
AlternateSubs2: "'aalt' Access All Alternates in Latin lookup 1 subtable" l.sc l.sups l.subs
EndChar

StartChar: lrthook
Encoding: 621 621 711
Width: 483
GlyphClass: 2
Flags: W
AnchorPoint: "Anchor-1" 399 1490 basechar 0
AnchorPoint: "Anchor-0" 151 0 basechar 0
LayerCount: 2
Fore
SplineSet
283 -423 m 0,0,1
 132 -423 132 -423 64 -354 c 128,-1,2
 -4 -285 -4 -285 19 -149 c 2,3,-1
 44 0 l 1,4,-1
 259 0 l 1,5,-1
 235 -147 l 2,6,7
 226 -199 226 -199 251.5 -222 c 128,-1,8
 277 -245 277 -245 346 -245 c 0,9,10
 364 -245 364 -245 390.5 -244.5 c 128,-1,11
 417 -244 417 -244 434 -243 c 1,12,-1
 405 -418 l 1,13,14
 383 -421 383 -421 352 -422 c 128,-1,15
 321 -423 321 -423 283 -423 c 0,0,1
506 1490 m 1,16,-1
 259 0 l 1,17,-1
 43 0 l 1,18,-1
 290 1490 l 1,19,-1
 506 1490 l 1,16,-1
EndSplineSet
EndChar

StartChar: uni026C
Encoding: 1114128 -1 712
Width: 886
Flags: W
LayerCount: 2
Fore
SplineSet
888 584 m 1,0,-1
 345 584 l 2,1,2
 256 584 256 584 191.5 617 c 128,-1,3
 127 650 127 650 97 711 c 128,-1,4
 67 772 67 772 80 855 c 0,5,6
 93 931 93 931 140 993.5 c 128,-1,7
 187 1056 187 1056 264 1094 c 128,-1,8
 341 1132 341 1132 443 1132 c 0,9,10
 525 1132 525 1132 581.5 1107 c 128,-1,11
 638 1082 638 1082 670 1037.5 c 128,-1,12
 702 993 702 993 711.5 933.5 c 128,-1,13
 721 874 721 874 710 806 c 2,14,-1
 652 455 l 1,15,-1
 435 455 l 1,16,-1
 498 842 l 2,17,18
 507 889 507 889 486.5 923.5 c 128,-1,19
 466 958 466 958 409 958 c 0,20,21
 379 958 379 958 353.5 943.5 c 128,-1,22
 328 929 328 929 311 906 c 128,-1,23
 294 883 294 883 289 855 c 0,24,25
 284 818 284 818 309 789 c 128,-1,26
 334 760 334 760 384 760 c 2,27,-1
 917 760 l 1,28,-1
 888 584 l 1,0,-1
824 1490 m 1,29,-1
 577 0 l 1,30,-1
 360 0 l 1,31,-1
 606 1490 l 1,32,-1
 824 1490 l 1,29,-1
EndSplineSet
Substitution2: "'cv05' Character Variants 05 in Latin lookup 59 subtable" uni026C.ss02
Substitution2: "'ss04' Style Set 4 in Latin lookup 50 subtable" uni026C.ss02
Substitution2: "'ss02' Style Set 2 in Latin lookup 48 subtable" uni026C.ss02
Substitution2: "'salt' Stylistic Alternatives in Latin lookup 46 subtable" uni026C.ss02
EndChar

StartChar: uni0234
Encoding: 564 564 713
Width: 803
GlyphClass: 2
Flags: W
AnchorPoint: "Anchor-1" 399 1490 basechar 0
AnchorPoint: "Anchor-0" 151 0 basechar 0
LayerCount: 2
Fore
SplineSet
316 -418 m 0,0,1
 193 -418 193 -418 125.5 -371 c 128,-1,2
 58 -324 58 -324 36.5 -248 c 128,-1,3
 15 -172 15 -172 29 -86 c 2,4,-1
 82 234 l 1,5,-1
 298 234 l 1,6,-1
 239 -120 l 2,7,8
 228 -187 228 -187 260.5 -221.5 c 128,-1,9
 293 -256 293 -256 344 -256 c 0,10,11
 392 -256 392 -256 427 -226.5 c 128,-1,12
 462 -197 462 -197 471 -152 c 0,13,14
 477 -111 477 -111 457 -82 c 128,-1,15
 437 -53 437 -53 390 -48 c 0,16,17
 358 -43 358 -43 325.5 -50.5 c 128,-1,18
 293 -58 293 -58 258.5 -76.5 c 128,-1,19
 224 -95 224 -95 185 -125 c 2,20,-1
 -141 -391 l 1,21,-1
 -241 -255 l 1,22,-1
 47 -22 l 2,23,24
 129 45 129 45 225.5 82.5 c 128,-1,25
 322 120 322 120 410 120 c 0,26,27
 550 120 550 120 623.5 43.5 c 128,-1,28
 697 -33 697 -33 677 -154 c 0,29,30
 658 -274 658 -274 561.5 -346 c 128,-1,31
 465 -418 465 -418 316 -418 c 0,0,1
506 1490 m 1,32,-1
 259 0 l 1,33,-1
 43 0 l 1,34,-1
 290 1490 l 1,35,-1
 506 1490 l 1,32,-1
EndSplineSet
EndChar

StartChar: l.ss02
Encoding: 57424 57424 722
AltUni2: 00006c.ffffffff.0
Width: 543
GlyphClass: 2
Flags: W
AnchorPoint: "Anchor-1" 399 1490 basechar 0
AnchorPoint: "Anchor-0" 214 0 basechar 0
LayerCount: 2
Fore
SplineSet
330 -4 m 0,0,1
 180 -4 180 -4 122 60 c 128,-1,2
 64 124 64 124 87 258 c 2,3,-1
 291 1490 l 1,4,-1
 507 1490 l 1,5,-1
 308 291 l 2,6,7
 297 226 297 226 312.5 201 c 128,-1,8
 328 176 328 176 385 176 c 0,9,10
 402 176 402 176 416 177 c 128,-1,11
 430 178 430 178 440 180 c 1,12,-1
 431 6 l 1,13,14
 411 2 411 2 384.5 -1 c 128,-1,15
 358 -4 358 -4 330 -4 c 0,0,1
EndSplineSet
EndChar

StartChar: uni026C.ss02
Encoding: 57428 57428 726
AltUni2: 00026c.ffffffff.0
Width: 875
GlyphClass: 2
Flags: W
AnchorPoint: "Anchor-1" 705 1490 basechar 0
AnchorPoint: "Anchor-0" 521 0 basechar 0
LayerCount: 2
Fore
SplineSet
380 587 m 2,0,1
 207 587 207 587 129 663.5 c 128,-1,2
 51 740 51 740 72 869 c 0,3,4
 86 950 86 950 129.5 1011.5 c 128,-1,5
 173 1073 173 1073 238 1108.5 c 128,-1,6
 303 1144 303 1144 378 1144 c 0,7,8
 464 1144 464 1144 507 1100.5 c 128,-1,9
 550 1057 550 1057 560 984 c 128,-1,10
 570 911 570 911 555 820 c 2,11,-1
 547 772 l 1,12,-1
 478 772 l 1,13,-1
 492 855 l 2,14,15
 500 901 500 901 476.5 936 c 128,-1,16
 453 971 453 971 395 971 c 0,17,18
 352 971 352 971 318.5 940.5 c 128,-1,19
 285 910 285 910 277 867 c 0,20,21
 271 826 271 826 297 791.5 c 128,-1,22
 323 757 323 757 372 757 c 2,23,-1
 854 759 l 1,24,-1
 826 587 l 1,25,-1
 380 587 l 2,0,1
636 -4 m 0,26,27
 487 -4 487 -4 429 60 c 128,-1,28
 371 124 371 124 393 258 c 2,29,-1
 598 1490 l 1,30,-1
 814 1490 l 1,31,-1
 614 291 l 2,32,33
 603 226 603 226 618.5 201 c 128,-1,34
 634 176 634 176 691 176 c 0,35,36
 709 176 709 176 723 177 c 128,-1,37
 737 178 737 178 746 180 c 1,38,-1
 737 6 l 1,39,40
 718 2 718 2 691 -1 c 128,-1,41
 664 -4 664 -4 636 -4 c 0,26,27
EndSplineSet
EndChar

StartChar: l.sc
Encoding: 60952 60952 736
Width: 813
GlyphClass: 2
Flags: W
AnchorPoint: "Anchor-1" 291 1087 basechar 0
AnchorPoint: "Anchor-0" 348 0 basechar 0
LayerCount: 2
Fore
SplineSet
4 0 m 1,0,-1
 184 1087 l 1,1,-1
 399 1087 l 1,2,-1
 248 182 l 1,3,-1
 734 182 l 1,4,-1
 704 0 l 1,5,-1
 4 0 l 1,0,-1
EndSplineSet
EndChar

StartChar: m
Encoding: 109 109 737
Width: 1784
GlyphClass: 2
Flags: W
AnchorPoint: "Anchor-1" 982 1087 basechar 0
AnchorPoint: "Anchor-0" 802 0 basechar 0
LayerCount: 2
Fore
SplineSet
43 0 m 1,0,-1
 223 1087 l 1,1,-1
 431 1087 l 1,2,-1
 394 846 l 1,3,-1
 375 852 l 1,4,5
 416 941 416 941 475 997 c 128,-1,6
 534 1053 534 1053 602 1080 c 128,-1,7
 670 1107 670 1107 739 1107 c 0,8,9
 824 1107 824 1107 885 1071.5 c 128,-1,10
 946 1036 946 1036 979 975 c 128,-1,11
 1012 914 1012 914 1014 835 c 1,12,-1
 985 849 l 1,13,14
 1020 930 1020 930 1079.5 988 c 128,-1,15
 1139 1046 1139 1046 1216.5 1076.5 c 128,-1,16
 1294 1107 1294 1107 1378 1107 c 0,17,18
 1480 1107 1480 1107 1555.5 1062.5 c 128,-1,19
 1631 1018 1631 1018 1666 931 c 128,-1,20
 1701 844 1701 844 1679 717 c 2,21,-1
 1560 0 l 1,22,-1
 1345 0 l 1,23,-1
 1462 712 l 2,24,25
 1475 788 1475 788 1455 833 c 128,-1,26
 1435 878 1435 878 1393.5 898 c 128,-1,27
 1352 918 1352 918 1299 918 c 0,28,29
 1225 918 1225 918 1166 886.5 c 128,-1,30
 1107 855 1107 855 1070 801.5 c 128,-1,31
 1033 748 1033 748 1021 681 c 2,32,-1
 909 0 l 1,33,-1
 696 0 l 1,34,-1
 816 727 l 2,35,36
 832 818 832 818 785 868 c 128,-1,37
 738 918 738 918 655 918 c 0,38,39
 591 918 591 918 530 887.5 c 128,-1,40
 469 857 469 857 425.5 799 c 128,-1,41
 382 741 382 741 369 659 c 2,42,-1
 259 0 l 1,43,-1
 43 0 l 1,0,-1
EndSplineSet
Substitution2: "'smcp' Lowercase to Small Capitals in Latin lookup 68 subtable" m.sc
Substitution2: "'c2sc' Capitals to Small Capitals in Latin lookup 67 subtable" m.sc
Substitution2: "'sups' Superscript in Latin lookup 39 subtable" m.sups
Substitution2: "'subs' Subscript in Latin lookup 38 subtable" m.subs
Substitution2: "'sinf' Scientific Inferiors in Latin lookup 18 subtable" m.subs
AlternateSubs2: "'aalt' Access All Alternates in Latin lookup 1 subtable" m.sups m.subs m.sc
EndChar

StartChar: uni0271
Encoding: 625 625 738
Width: 1784
GlyphClass: 2
Flags: W
AnchorPoint: "Anchor-1" 982 1087 basechar 0
AnchorPoint: "Anchor-0" 802 0 basechar 0
LayerCount: 2
Fore
SplineSet
1182 -423 m 0,0,1
 1143 -423 1143 -423 1112.5 -422 c 128,-1,2
 1082 -421 1082 -421 1061 -418 c 1,3,-1
 1089 -243 l 1,4,5
 1106 -244 1106 -244 1132.5 -244.5 c 128,-1,6
 1159 -245 1159 -245 1177 -245 c 0,7,8
 1248 -245 1248 -245 1280 -221.5 c 128,-1,9
 1312 -198 1312 -198 1320 -147 c 2,10,-1
 1345 0 l 1,11,-1
 1560 0 l 1,12,-1
 1536 -149 l 2,13,14
 1513 -285 1513 -285 1423 -354 c 128,-1,15
 1333 -423 1333 -423 1182 -423 c 0,0,1
43 0 m 1,16,-1
 223 1087 l 1,17,-1
 431 1087 l 1,18,-1
 394 846 l 1,19,-1
 375 852 l 1,20,21
 416 941 416 941 475 997 c 128,-1,22
 534 1053 534 1053 602 1080 c 128,-1,23
 670 1107 670 1107 739 1107 c 0,24,25
 824 1107 824 1107 885 1071.5 c 128,-1,26
 946 1036 946 1036 979 975 c 128,-1,27
 1012 914 1012 914 1014 835 c 1,28,-1
 985 849 l 1,29,30
 1020 930 1020 930 1079.5 988 c 128,-1,31
 1139 1046 1139 1046 1216.5 1076.5 c 128,-1,32
 1294 1107 1294 1107 1378 1107 c 0,33,34
 1480 1107 1480 1107 1555.5 1062.5 c 128,-1,35
 1631 1018 1631 1018 1666 931 c 128,-1,36
 1701 844 1701 844 1679 717 c 2,37,-1
 1560 0 l 1,38,-1
 1345 0 l 1,39,-1
 1462 712 l 2,40,41
 1475 788 1475 788 1455 833 c 128,-1,42
 1435 878 1435 878 1393.5 898 c 128,-1,43
 1352 918 1352 918 1299 918 c 0,44,45
 1225 918 1225 918 1166 886.5 c 128,-1,46
 1107 855 1107 855 1070 801.5 c 128,-1,47
 1033 748 1033 748 1021 681 c 2,48,-1
 909 0 l 1,49,-1
 696 0 l 1,50,-1
 816 727 l 2,51,52
 832 818 832 818 785 868 c 128,-1,53
 738 918 738 918 655 918 c 0,54,55
 591 918 591 918 530 887.5 c 128,-1,56
 469 857 469 857 425.5 799 c 128,-1,57
 382 741 382 741 369 659 c 2,58,-1
 259 0 l 1,59,-1
 43 0 l 1,16,-1
EndSplineSet
EndChar

StartChar: mturn
Encoding: 623 623 739
Width: 1784
GlyphClass: 2
Flags: W
AnchorPoint: "Anchor-1" 980 1087 basechar 0
AnchorPoint: "Anchor-0" 800 0 basechar 0
LayerCount: 2
Fore
SplineSet
1740 1087 m 1,0,-1
 1560 0 l 1,1,-1
 1354 0 l 1,2,-1
 1389 241 l 1,3,-1
 1409 235 l 1,4,5
 1368 148 1368 148 1309.5 91 c 128,-1,6
 1251 34 1251 34 1183 7 c 128,-1,7
 1115 -20 1115 -20 1045 -20 c 0,8,9
 960 -20 960 -20 899.5 15.5 c 128,-1,10
 839 51 839 51 806 113 c 128,-1,11
 773 175 773 175 770 252 c 1,12,-1
 799 239 l 1,13,14
 765 158 765 158 704.5 100 c 128,-1,15
 644 42 644 42 567.5 11 c 128,-1,16
 491 -20 491 -20 406 -20 c 0,17,18
 304 -20 304 -20 229 25 c 128,-1,19
 154 70 154 70 119.5 157 c 128,-1,20
 85 244 85 244 105 370 c 2,21,-1
 223 1087 l 1,22,-1
 440 1087 l 1,23,-1
 322 375 l 2,24,25
 309 300 309 300 329 255 c 128,-1,26
 349 210 349 210 390.5 189.5 c 128,-1,27
 432 169 432 169 486 169 c 0,28,29
 560 169 560 169 618.5 200.5 c 128,-1,30
 677 232 677 232 714.5 286 c 128,-1,31
 752 340 752 340 764 406 c 2,32,-1
 876 1087 l 1,33,-1
 1089 1087 l 1,34,-1
 968 362 l 2,35,36
 953 270 953 270 999.5 219.5 c 128,-1,37
 1046 169 1046 169 1129 169 c 0,38,39
 1194 169 1194 169 1254.5 200 c 128,-1,40
 1315 231 1315 231 1359 288.5 c 128,-1,41
 1403 346 1403 346 1416 429 c 2,42,-1
 1525 1087 l 1,43,-1
 1740 1087 l 1,0,-1
EndSplineSet
EndChar

StartChar: mturndescend
Encoding: 624 624 740
Width: 1784
GlyphClass: 2
Flags: W
AnchorPoint: "Anchor-1" 980 1087 basechar 0
AnchorPoint: "Anchor-0" 800 0 basechar 0
LayerCount: 2
Fore
SplineSet
1278 -418 m 1,0,-1
 1347 0 l 1,1,-1
 1555 0 l 1,2,-1
 1486 -418 l 1,3,-1
 1278 -418 l 1,0,-1
1740 1087 m 1,4,-1
 1560 0 l 1,5,-1
 1354 0 l 1,6,-1
 1389 241 l 1,7,-1
 1409 235 l 1,8,9
 1368 148 1368 148 1309.5 91 c 128,-1,10
 1251 34 1251 34 1183 7 c 128,-1,11
 1115 -20 1115 -20 1045 -20 c 0,12,13
 960 -20 960 -20 899.5 15.5 c 128,-1,14
 839 51 839 51 806 113 c 128,-1,15
 773 175 773 175 770 252 c 1,16,-1
 799 239 l 1,17,18
 765 158 765 158 704.5 100 c 128,-1,19
 644 42 644 42 567.5 11 c 128,-1,20
 491 -20 491 -20 406 -20 c 0,21,22
 304 -20 304 -20 229 25 c 128,-1,23
 154 70 154 70 119.5 157 c 128,-1,24
 85 244 85 244 105 370 c 2,25,-1
 223 1087 l 1,26,-1
 440 1087 l 1,27,-1
 322 375 l 2,28,29
 309 300 309 300 329 255 c 128,-1,30
 349 210 349 210 390.5 189.5 c 128,-1,31
 432 169 432 169 486 169 c 0,32,33
 560 169 560 169 618.5 200.5 c 128,-1,34
 677 232 677 232 714.5 286 c 128,-1,35
 752 340 752 340 764 406 c 2,36,-1
 876 1087 l 1,37,-1
 1089 1087 l 1,38,-1
 968 362 l 2,39,40
 953 270 953 270 999.5 219.5 c 128,-1,41
 1046 169 1046 169 1129 169 c 0,42,43
 1194 169 1194 169 1254.5 200 c 128,-1,44
 1315 231 1315 231 1359 288.5 c 128,-1,45
 1403 346 1403 346 1416 429 c 2,46,-1
 1525 1087 l 1,47,-1
 1740 1087 l 1,4,-1
EndSplineSet
EndChar

StartChar: n
Encoding: 110 110 744
Width: 1190
GlyphClass: 2
Flags: W
AnchorPoint: "Anchor-1" 685 1087 basechar 0
AnchorPoint: "Anchor-0" 505 0 basechar 0
LayerCount: 2
Fore
SplineSet
363 628 m 2,0,-1
 259 0 l 1,1,-1
 43 0 l 1,2,-1
 223 1087 l 1,3,-1
 432 1087 l 1,4,-1
 390 820 l 1,5,-1
 352 826 l 1,6,7
 426 971 426 971 526.5 1037.5 c 128,-1,8
 627 1104 627 1104 755 1104 c 0,9,10
 870 1104 870 1104 950.5 1055 c 128,-1,11
 1031 1006 1031 1006 1066.5 911 c 128,-1,12
 1102 816 1102 816 1079 677 c 2,13,-1
 967 0 l 1,14,-1
 750 0 l 1,15,-1
 860 665 l 2,16,17
 881 790 881 790 832 852 c 128,-1,18
 783 914 783 914 677 914 c 0,19,20
 601 914 601 914 535.5 881.5 c 128,-1,21
 470 849 470 849 424.5 785.5 c 128,-1,22
 379 722 379 722 363 628 c 2,0,-1
EndSplineSet
Substitution2: "'smcp' Lowercase to Small Capitals in Latin lookup 68 subtable" n.sc
Substitution2: "'c2sc' Capitals to Small Capitals in Latin lookup 67 subtable" n.sc
Substitution2: "'sups' Superscript in Latin lookup 39 subtable" n.sups
Substitution2: "'subs' Subscript in Latin lookup 38 subtable" n.subs
Substitution2: "'numr' Numerators in Latin lookup 19 subtable" n.numr
Substitution2: "'sinf' Scientific Inferiors in Latin lookup 18 subtable" n.subs
AlternateSubs2: "'aalt' Access All Alternates in Latin lookup 1 subtable" n.sc n.numr n.sups n.subs
EndChar

StartChar: nrthook
Encoding: 627 627 746
Width: 1190
GlyphClass: 2
Flags: W
AnchorPoint: "Anchor-1" 685 1087 basechar 0
AnchorPoint: "Anchor-0" 505 0 basechar 0
LayerCount: 2
Fore
SplineSet
989 -423 m 0,0,1
 838 -423 838 -423 771 -354 c 128,-1,2
 704 -285 704 -285 725 -149 c 2,3,-1
 750 0 l 1,4,-1
 967 0 l 1,5,-1
 941 -147 l 2,6,7
 933 -199 933 -199 958.5 -222 c 128,-1,8
 984 -245 984 -245 1053 -245 c 0,9,10
 1071 -245 1071 -245 1097 -244.5 c 128,-1,11
 1123 -244 1123 -244 1141 -243 c 1,12,-1
 1112 -418 l 1,13,14
 1090 -421 1090 -421 1059 -422 c 128,-1,15
 1028 -423 1028 -423 989 -423 c 0,0,1
363 628 m 2,16,-1
 259 0 l 1,17,-1
 43 0 l 1,18,-1
 223 1087 l 1,19,-1
 432 1087 l 1,20,-1
 390 820 l 1,21,-1
 352 826 l 1,22,23
 426 971 426 971 526.5 1037.5 c 128,-1,24
 627 1104 627 1104 755 1104 c 0,25,26
 870 1104 870 1104 950.5 1055 c 128,-1,27
 1031 1006 1031 1006 1066.5 911 c 128,-1,28
 1102 816 1102 816 1079 677 c 2,29,-1
 967 0 l 1,30,-1
 750 0 l 1,31,-1
 860 665 l 2,32,33
 881 790 881 790 832 852 c 128,-1,34
 783 914 783 914 677 914 c 0,35,36
 601 914 601 914 535.5 881.5 c 128,-1,37
 470 849 470 849 424.5 785.5 c 128,-1,38
 379 722 379 722 363 628 c 2,16,-1
EndSplineSet
EndChar

StartChar: eng
Encoding: 331 331 747
Width: 1190
GlyphClass: 2
Flags: W
AnchorPoint: "Anchor-1" 685 1087 basechar 0
AnchorPoint: "Anchor-0" 505 0 basechar 0
LayerCount: 2
Fore
SplineSet
465 -418 m 1,0,-1
 496 -233 l 1,1,2
 514 -235 514 -235 542.5 -236 c 128,-1,3
 571 -237 571 -237 588 -237 c 0,4,5
 656 -237 656 -237 687 -214 c 128,-1,6
 718 -191 718 -191 727 -139 c 2,7,-1
 750 0 l 1,8,-1
 967 0 l 1,9,-1
 941 -149 l 2,10,11
 918 -285 918 -285 827.5 -354 c 128,-1,12
 737 -423 737 -423 586 -423 c 0,13,14
 547 -423 547 -423 517 -422 c 128,-1,15
 487 -421 487 -421 465 -418 c 1,0,-1
363 628 m 2,16,-1
 259 0 l 1,17,-1
 43 0 l 1,18,-1
 223 1087 l 1,19,-1
 432 1087 l 1,20,-1
 390 820 l 1,21,-1
 352 826 l 1,22,23
 426 971 426 971 526.5 1037.5 c 128,-1,24
 627 1104 627 1104 755 1104 c 0,25,26
 870 1104 870 1104 950.5 1055 c 128,-1,27
 1031 1006 1031 1006 1066.5 911 c 128,-1,28
 1102 816 1102 816 1079 677 c 2,29,-1
 967 0 l 1,30,-1
 750 0 l 1,31,-1
 860 665 l 2,32,33
 881 790 881 790 832 852 c 128,-1,34
 783 914 783 914 677 914 c 0,35,36
 601 914 601 914 535.5 881.5 c 128,-1,37
 470 849 470 849 424.5 785.5 c 128,-1,38
 379 722 379 722 363 628 c 2,16,-1
EndSplineSet
EndChar

StartChar: uni0235
Encoding: 565 565 748
Width: 1510
GlyphClass: 2
Flags: W
AnchorPoint: "Anchor-1" 685 1087 basechar 0
AnchorPoint: "Anchor-0" 505 0 basechar 0
LayerCount: 2
Fore
SplineSet
1022 -418 m 0,0,1
 900 -418 900 -418 832.5 -371 c 128,-1,2
 765 -324 765 -324 744 -248 c 128,-1,3
 723 -172 723 -172 737 -86 c 2,4,-1
 788 234 l 1,5,-1
 1005 234 l 1,6,-1
 946 -120 l 2,7,8
 935 -187 935 -187 967.5 -221.5 c 128,-1,9
 1000 -256 1000 -256 1052 -256 c 0,10,11
 1099 -256 1099 -256 1134.5 -226.5 c 128,-1,12
 1170 -197 1170 -197 1177 -152 c 0,13,14
 1185 -111 1185 -111 1164 -82 c 128,-1,15
 1143 -53 1143 -53 1097 -48 c 0,16,17
 1064 -43 1064 -43 1031.5 -50.5 c 128,-1,18
 999 -58 999 -58 965 -76.5 c 128,-1,19
 931 -95 931 -95 892 -125 c 2,20,-1
 565 -391 l 1,21,-1
 466 -255 l 1,22,-1
 755 -22 l 2,23,24
 835 45 835 45 931.5 82.5 c 128,-1,25
 1028 120 1028 120 1118 120 c 0,26,27
 1256 120 1256 120 1330 43.5 c 128,-1,28
 1404 -33 1404 -33 1384 -154 c 0,29,30
 1365 -274 1365 -274 1268.5 -346 c 128,-1,31
 1172 -418 1172 -418 1022 -418 c 0,0,1
363 628 m 2,32,-1
 259 0 l 1,33,-1
 43 0 l 1,34,-1
 223 1087 l 1,35,-1
 432 1087 l 1,36,-1
 390 820 l 1,37,-1
 352 826 l 1,38,39
 426 971 426 971 526.5 1037.5 c 128,-1,40
 627 1104 627 1104 755 1104 c 0,41,42
 870 1104 870 1104 950.5 1055 c 128,-1,43
 1031 1006 1031 1006 1066.5 911 c 128,-1,44
 1102 816 1102 816 1079 677 c 2,45,-1
 967 0 l 1,46,-1
 750 0 l 1,47,-1
 860 665 l 2,48,49
 881 790 881 790 832 852 c 128,-1,50
 783 914 783 914 677 914 c 0,51,52
 601 914 601 914 535.5 881.5 c 128,-1,53
 470 849 470 849 424.5 785.5 c 128,-1,54
 379 722 379 722 363 628 c 2,32,-1
EndSplineSet
EndChar

StartChar: nlfthook
Encoding: 626 626 749
Width: 1190
GlyphClass: 2
Flags: W
AnchorPoint: "Anchor-1" 685 1087 basechar 0
AnchorPoint: "Anchor-0" 505 0 basechar 0
LayerCount: 2
Fore
SplineSet
-119 -423 m 0,0,1
 -157 -423 -157 -423 -188 -422 c 128,-1,2
 -219 -421 -219 -421 -241 -418 c 1,3,-1
 -211 -243 l 1,4,5
 -195 -244 -195 -244 -168.5 -244.5 c 128,-1,6
 -142 -245 -142 -245 -124 -245 c 0,7,8
 -53 -245 -53 -245 -21 -221.5 c 128,-1,9
 11 -198 11 -198 19 -147 c 2,10,-1
 43 0 l 1,11,-1
 260 0 l 1,12,-1
 234 -149 l 2,13,14
 212 -285 212 -285 122 -354 c 128,-1,15
 32 -423 32 -423 -119 -423 c 0,0,1
363 628 m 2,16,-1
 259 0 l 1,17,-1
 43 0 l 1,18,-1
 223 1087 l 1,19,-1
 432 1087 l 1,20,-1
 390 820 l 1,21,-1
 352 826 l 1,22,23
 426 971 426 971 526.5 1037.5 c 128,-1,24
 627 1104 627 1104 755 1104 c 0,25,26
 870 1104 870 1104 950.5 1055 c 128,-1,27
 1031 1006 1031 1006 1066.5 911 c 128,-1,28
 1102 816 1102 816 1079 677 c 2,29,-1
 967 0 l 1,30,-1
 750 0 l 1,31,-1
 860 665 l 2,32,33
 881 790 881 790 832 852 c 128,-1,34
 783 914 783 914 677 914 c 0,35,36
 601 914 601 914 535.5 881.5 c 128,-1,37
 470 849 470 849 424.5 785.5 c 128,-1,38
 379 722 379 722 363 628 c 2,16,-1
EndSplineSet
EndChar

StartChar: n.sc
Encoding: 60953 60953 760
Width: 1256
GlyphClass: 2
Flags: W
AnchorPoint: "Anchor-1" 718 1087 basechar 0
AnchorPoint: "Anchor-0" 538 0 basechar 0
LayerCount: 2
Fore
SplineSet
44 0 m 1,0,-1
 224 1087 l 1,1,-1
 474 1087 l 1,2,-1
 750 514 l 2,3,4
 795 419 795 419 828 337.5 c 128,-1,5
 861 256 861 256 889 179 c 1,6,-1
 853 179 l 1,7,8
 862 234 862 234 870 287.5 c 128,-1,9
 878 341 878 341 886.5 397 c 128,-1,10
 895 453 895 453 905 514 c 2,11,-1
 1000 1087 l 1,12,-1
 1212 1087 l 1,13,-1
 1032 0 l 1,14,-1
 786 0 l 1,15,-1
 509 575 l 2,16,17
 465 669 465 669 431.5 749.5 c 128,-1,18
 398 830 398 830 369 911 c 1,19,-1
 403 911 l 1,20,21
 396 859 396 859 388 805.5 c 128,-1,22
 380 752 380 752 371.5 694.5 c 128,-1,23
 363 637 363 637 351 575 c 2,24,-1
 257 0 l 1,25,-1
 44 0 l 1,0,-1
EndSplineSet
EndChar

StartChar: o
Encoding: 111 111 761
Width: 1191
GlyphClass: 2
Flags: W
AnchorPoint: "Anchor-4" 1110 540 basechar 0
AnchorPoint: "Anchor-1" 686 1087 basechar 0
AnchorPoint: "Anchor-0" 506 0 basechar 0
LayerCount: 2
Fore
SplineSet
515 -24 m 256,0,1
 377 -24 377 -24 278.5 32.5 c 128,-1,2
 180 89 180 89 126.5 191 c 128,-1,3
 73 293 73 293 73 429 c 0,4,5
 73 560 73 560 115 681.5 c 128,-1,6
 157 803 157 803 236 898.5 c 128,-1,7
 315 994 315 994 427 1050 c 128,-1,8
 539 1106 539 1106 676 1106 c 0,9,10
 814 1106 814 1106 913 1049.5 c 128,-1,11
 1012 993 1012 993 1065 891 c 128,-1,12
 1118 789 1118 789 1118 652 c 0,13,14
 1118 520 1118 520 1076 399 c 128,-1,15
 1034 278 1034 278 955 182.5 c 128,-1,16
 876 87 876 87 764.5 31.5 c 128,-1,17
 653 -24 653 -24 515 -24 c 256,0,1
522 161 m 0,18,19
 616 161 616 161 687 205 c 128,-1,20
 758 249 758 249 806 322 c 128,-1,21
 854 395 854 395 878 482 c 128,-1,22
 902 569 902 569 902 654 c 0,23,24
 902 734 902 734 876 794.5 c 128,-1,25
 850 855 850 855 798 888.5 c 128,-1,26
 746 922 746 922 668 922 c 0,27,28
 576 922 576 922 505 878 c 128,-1,29
 434 834 434 834 386 761.5 c 128,-1,30
 338 689 338 689 313.5 601.5 c 128,-1,31
 289 514 289 514 289 427 c 0,32,33
 289 307 289 307 347 234 c 128,-1,34
 405 161 405 161 522 161 c 0,18,19
EndSplineSet
Substitution2: "Single Substitution lookup 44 subtable" ordmasculine
Substitution2: "'sups' Superscript in Latin lookup 39 subtable" o.sups
Substitution2: "'subs' Subscript in Latin lookup 38 subtable" o.subs
Substitution2: "'sinf' Scientific Inferiors in Latin lookup 18 subtable" o.subs
AlternateSubs2: "'aalt' Access All Alternates in Latin lookup 1 subtable" ordmasculine o.sups o.subs
EndChar

StartChar: ohorn
Encoding: 417 417 765
Width: 1189
GlyphClass: 2
Flags: W
AnchorPoint: "Anchor-4" 1110 540 basechar 0
AnchorPoint: "Anchor-1" 686 1087 basechar 0
AnchorPoint: "Anchor-0" 506 0 basechar 0
LayerCount: 2
Fore
SplineSet
662 958 m 1,0,-1
 687 1106 l 1,1,2
 732 1105 732 1105 767 1102.5 c 128,-1,3
 802 1100 802 1100 837 1097.5 c 128,-1,4
 872 1095 872 1095 913.5 1092.5 c 128,-1,5
 955 1090 955 1090 1011 1090 c 0,6,7
 1032 1090 1032 1090 1035 1111 c 2,8,-1
 1069 1311 l 1,9,-1
 1262 1311 l 1,10,-1
 1230 1126 l 2,11,12
 1220 1066 1220 1066 1191 1027.5 c 128,-1,13
 1162 989 1162 989 1117 970.5 c 128,-1,14
 1072 952 1072 952 1012 952 c 0,15,16
 926 952 926 952 838 955 c 128,-1,17
 750 958 750 958 662 958 c 1,0,-1
515 -24 m 256,18,19
 377 -24 377 -24 278.5 32.5 c 128,-1,20
 180 89 180 89 126.5 191 c 128,-1,21
 73 293 73 293 73 429 c 0,22,23
 73 560 73 560 115 681.5 c 128,-1,24
 157 803 157 803 236 898.5 c 128,-1,25
 315 994 315 994 427 1050 c 128,-1,26
 539 1106 539 1106 676 1106 c 0,27,28
 814 1106 814 1106 913 1049.5 c 128,-1,29
 1012 993 1012 993 1065 891 c 128,-1,30
 1118 789 1118 789 1118 652 c 0,31,32
 1118 520 1118 520 1076 399 c 128,-1,33
 1034 278 1034 278 955 182.5 c 128,-1,34
 876 87 876 87 764.5 31.5 c 128,-1,35
 653 -24 653 -24 515 -24 c 256,18,19
522 161 m 0,36,37
 616 161 616 161 687 205 c 128,-1,38
 758 249 758 249 806 322 c 128,-1,39
 854 395 854 395 878 482 c 128,-1,40
 902 569 902 569 902 654 c 0,41,42
 902 734 902 734 876 794.5 c 128,-1,43
 850 855 850 855 798 888.5 c 128,-1,44
 746 922 746 922 668 922 c 0,45,46
 576 922 576 922 505 878 c 128,-1,47
 434 834 434 834 386 761.5 c 128,-1,48
 338 689 338 689 313.5 601.5 c 128,-1,49
 289 514 289 514 289 427 c 0,50,51
 289 307 289 307 347 234 c 128,-1,52
 405 161 405 161 522 161 c 0,36,37
EndSplineSet
EndChar

StartChar: uni1EE1
Encoding: 7905 7905 795
Width: 1189
GlyphClass: 2
Flags: W
AnchorPoint: "Anchor-4" 1110 540 basechar 0
AnchorPoint: "Anchor-1" 752 1498 basechar 0
AnchorPoint: "Anchor-0" 506 0 basechar 0
LayerCount: 2
Fore
SplineSet
515 -24 m 256,0,1
 377 -24 377 -24 278.5 32.5 c 128,-1,2
 180 89 180 89 126.5 191 c 128,-1,3
 73 293 73 293 73 429 c 0,4,5
 73 560 73 560 115 681.5 c 128,-1,6
 157 803 157 803 236 898.5 c 128,-1,7
 315 994 315 994 427 1050 c 128,-1,8
 539 1106 539 1106 676 1106 c 0,9,10
 814 1106 814 1106 913 1049.5 c 128,-1,11
 1012 993 1012 993 1065 891 c 128,-1,12
 1118 789 1118 789 1118 652 c 0,13,14
 1118 520 1118 520 1076 399 c 128,-1,15
 1034 278 1034 278 955 182.5 c 128,-1,16
 876 87 876 87 764.5 31.5 c 128,-1,17
 653 -24 653 -24 515 -24 c 256,0,1
522 161 m 0,18,19
 616 161 616 161 687 205 c 128,-1,20
 758 249 758 249 806 322 c 128,-1,21
 854 395 854 395 878 482 c 128,-1,22
 902 569 902 569 902 654 c 0,23,24
 902 734 902 734 876 794.5 c 128,-1,25
 850 855 850 855 798 888.5 c 128,-1,26
 746 922 746 922 668 922 c 0,27,28
 576 922 576 922 505 878 c 128,-1,29
 434 834 434 834 386 761.5 c 128,-1,30
 338 689 338 689 313.5 601.5 c 128,-1,31
 289 514 289 514 289 427 c 0,32,33
 289 307 289 307 347 234 c 128,-1,34
 405 161 405 161 522 161 c 0,18,19
662 958 m 1,35,-1
 687 1106 l 1,36,37
 732 1105 732 1105 767 1102.5 c 128,-1,38
 802 1100 802 1100 837 1097.5 c 128,-1,39
 872 1095 872 1095 913.5 1092.5 c 128,-1,40
 955 1090 955 1090 1011 1090 c 0,41,42
 1032 1090 1032 1090 1035 1111 c 2,43,-1
 1069 1311 l 1,44,-1
 1262 1311 l 1,45,-1
 1230 1126 l 2,46,47
 1220 1066 1220 1066 1191 1027.5 c 128,-1,48
 1162 989 1162 989 1117 970.5 c 128,-1,49
 1072 952 1072 952 1012 952 c 0,50,51
 926 952 926 952 838 955 c 128,-1,52
 750 958 750 958 662 958 c 1,35,-1
843 1282 m 0,53,54
 805 1282 805 1282 773.5 1294.5 c 128,-1,55
 742 1307 742 1307 715 1323.5 c 128,-1,56
 688 1340 688 1340 665 1352.5 c 128,-1,57
 642 1365 642 1365 624 1365 c 0,58,59
 598 1365 598 1365 581 1340.5 c 128,-1,60
 564 1316 564 1316 558 1286 c 1,61,-1
 430 1286 l 1,62,63
 449 1381 449 1381 500 1439 c 128,-1,64
 551 1497 551 1497 628 1497 c 0,65,66
 667 1497 667 1497 697 1484 c 128,-1,67
 727 1471 727 1471 752 1454.5 c 128,-1,68
 777 1438 777 1438 799.5 1425 c 128,-1,69
 822 1412 822 1412 846 1412 c 0,70,71
 872 1412 872 1412 887.5 1431.5 c 128,-1,72
 903 1451 903 1451 914 1493 c 1,73,-1
 1039 1493 l 1,74,75
 1019 1394 1019 1394 967 1338 c 128,-1,76
 915 1282 915 1282 843 1282 c 0,53,54
EndSplineSet
Ligature2: "'ccmp' Glyph Composition/Decomposition in Latin lookup 6 subtable" ohorn tildecomb
EndChar

StartChar: obar
Encoding: 629 629 808
Width: 1191
GlyphClass: 2
Flags: W
AnchorPoint: "Anchor-4" 1110 540 basechar 0
AnchorPoint: "Anchor-1" 686 1087 basechar 0
AnchorPoint: "Anchor-0" 506 0 basechar 0
LayerCount: 2
Fore
SplineSet
989 618 m 1,0,-1
 964 469 l 1,1,-1
 201 469 l 1,2,-1
 227 618 l 1,3,-1
 989 618 l 1,0,-1
515 -24 m 256,4,5
 377 -24 377 -24 278.5 32.5 c 128,-1,6
 180 89 180 89 126.5 191 c 128,-1,7
 73 293 73 293 73 429 c 0,8,9
 73 560 73 560 115 681.5 c 128,-1,10
 157 803 157 803 236 898.5 c 128,-1,11
 315 994 315 994 427 1050 c 128,-1,12
 539 1106 539 1106 676 1106 c 0,13,14
 814 1106 814 1106 913 1049.5 c 128,-1,15
 1012 993 1012 993 1065 891 c 128,-1,16
 1118 789 1118 789 1118 652 c 0,17,18
 1118 520 1118 520 1076 399 c 128,-1,19
 1034 278 1034 278 955 182.5 c 128,-1,20
 876 87 876 87 764.5 31.5 c 128,-1,21
 653 -24 653 -24 515 -24 c 256,4,5
522 161 m 0,22,23
 616 161 616 161 687 205 c 128,-1,24
 758 249 758 249 806 322 c 128,-1,25
 854 395 854 395 878 482 c 128,-1,26
 902 569 902 569 902 654 c 0,27,28
 902 734 902 734 876 794.5 c 128,-1,29
 850 855 850 855 798 888.5 c 128,-1,30
 746 922 746 922 668 922 c 0,31,32
 576 922 576 922 505 878 c 128,-1,33
 434 834 434 834 386 761.5 c 128,-1,34
 338 689 338 689 313.5 601.5 c 128,-1,35
 289 514 289 514 289 427 c 0,36,37
 289 307 289 307 347 234 c 128,-1,38
 405 161 405 161 522 161 c 0,22,23
EndSplineSet
EndChar

StartChar: oe.sc
Encoding: 60954 60954 812
Width: 1522
GlyphClass: 2
Flags: W
AnchorPoint: "Anchor-4" 1380 0 basechar 0
AnchorPoint: "Anchor-3" 1008 0 basechar 0
AnchorPoint: "Anchor-1" 1186 1087 basechar 0
AnchorPoint: "Anchor-0" 1006 0 basechar 0
LayerCount: 2
Fore
SplineSet
631 0 m 1,0,-1
 811 1087 l 1,1,-1
 1559 1087 l 1,2,-1
 1529 905 l 1,3,-1
 996 905 l 1,4,-1
 953 639 l 1,5,-1
 1445 639 l 1,6,-1
 1415 461 l 1,7,-1
 922 461 l 1,8,-1
 876 182 l 1,9,-1
 1409 182 l 1,10,-1
 1380 0 l 1,11,-1
 631 0 l 1,0,-1
506 0 m 2,12,13
 351 0 351 0 246 65 c 128,-1,14
 141 130 141 130 97.5 251.5 c 128,-1,15
 54 373 54 373 82 544 c 0,16,17
 109 712 109 712 193 833.5 c 128,-1,18
 277 955 277 955 402 1020.5 c 128,-1,19
 527 1086 527 1086 683 1087 c 2,20,-1
 911 1087 l 1,21,-1
 882 908 l 1,22,-1
 659 908 l 2,23,24
 564 908 564 908 489 867 c 128,-1,25
 414 826 414 826 364.5 745.5 c 128,-1,26
 315 665 315 665 294 544 c 0,27,28
 275 424 275 424 297 343 c 128,-1,29
 319 262 319 262 381.5 221 c 128,-1,30
 444 180 444 180 542 180 c 2,31,-1
 759 180 l 1,32,-1
 728 0 l 1,33,-1
 506 0 l 2,12,13
EndSplineSet
EndChar

StartChar: p
Encoding: 112 112 814
Width: 1223
GlyphClass: 2
Flags: W
AnchorPoint: "Anchor-1" 750 1087 basechar 0
AnchorPoint: "Anchor-0" 81 -416 basechar 0
LayerCount: 2
Fore
SplineSet
-26 -418 m 1,0,-1
 223 1087 l 1,1,-1
 434 1087 l 1,2,-1
 407 921 l 1,3,-1
 412 921 l 1,4,5
 445 971 445 971 494.5 1012.5 c 128,-1,6
 544 1054 544 1054 610 1079 c 128,-1,7
 676 1104 676 1104 760 1104 c 0,8,9
 879 1104 879 1104 966.5 1051 c 128,-1,10
 1054 998 1054 998 1102.5 900 c 128,-1,11
 1151 802 1151 802 1151 666 c 0,12,13
 1151 542 1151 542 1114 419.5 c 128,-1,14
 1077 297 1077 297 1006 197.5 c 128,-1,15
 935 98 935 98 832.5 38.5 c 128,-1,16
 730 -21 730 -21 598 -21 c 0,17,18
 510 -21 510 -21 450.5 8 c 128,-1,19
 391 37 391 37 353.5 81.5 c 128,-1,20
 316 126 316 126 297 175 c 1,21,-1
 288 175 l 1,22,-1
 190 -418 l 1,23,-1
 -26 -418 l 1,0,-1
557 163 m 0,24,25
 649 163 649 163 719.5 207.5 c 128,-1,26
 790 252 790 252 838 325 c 128,-1,27
 886 398 886 398 909.5 485.5 c 128,-1,28
 933 573 933 573 933 660 c 0,29,30
 933 782 933 782 876 851.5 c 128,-1,31
 819 921 819 921 708 921 c 0,32,33
 616 921 616 921 545.5 877.5 c 128,-1,34
 475 834 475 834 426.5 762 c 128,-1,35
 378 690 378 690 353.5 603 c 128,-1,36
 329 516 329 516 329 429 c 0,37,38
 329 307 329 307 388 235 c 128,-1,39
 447 163 447 163 557 163 c 0,24,25
EndSplineSet
Substitution2: "'sups' Superscript in Latin lookup 39 subtable" p.sups
Substitution2: "'subs' Subscript in Latin lookup 38 subtable" p.subs
Substitution2: "'sinf' Scientific Inferiors in Latin lookup 18 subtable" p.subs
AlternateSubs2: "'aalt' Access All Alternates in Latin lookup 1 subtable" p.sups p.subs
EndChar

StartChar: uni048F
Encoding: 1167 1167 815
Width: 1220
GlyphClass: 2
Flags: W
AnchorPoint: "Anchor-1" 752 1087 basechar 0
AnchorPoint: "Anchor-0" 83 -416 basechar 0
LayerCount: 2
Fore
SplineSet
745 416 m 1,0,-1
 1034 10 l 1,1,-1
 902 -93 l 1,2,-1
 615 313 l 1,3,-1
 745 416 l 1,0,-1
-24 -418 m 1,4,-1
 225 1087 l 1,5,-1
 436 1087 l 1,6,-1
 409 921 l 1,7,-1
 414 921 l 1,8,9
 447 971 447 971 496.5 1012.5 c 128,-1,10
 546 1054 546 1054 612 1079 c 128,-1,11
 678 1104 678 1104 761 1104 c 0,12,13
 881 1104 881 1104 968.5 1051 c 128,-1,14
 1056 998 1056 998 1104.5 900 c 128,-1,15
 1153 802 1153 802 1153 666 c 0,16,17
 1153 542 1153 542 1116 419.5 c 128,-1,18
 1079 297 1079 297 1008 197.5 c 128,-1,19
 937 98 937 98 834.5 38.5 c 128,-1,20
 732 -21 732 -21 600 -21 c 0,21,22
 512 -21 512 -21 452 8 c 128,-1,23
 392 37 392 37 354.5 81.5 c 128,-1,24
 317 126 317 126 298 175 c 1,25,-1
 290 175 l 1,26,-1
 192 -418 l 1,27,-1
 -24 -418 l 1,4,-1
559 163 m 0,28,29
 651 163 651 163 721.5 207.5 c 128,-1,30
 792 252 792 252 840 325 c 128,-1,31
 888 398 888 398 911.5 485.5 c 128,-1,32
 935 573 935 573 935 660 c 0,33,34
 935 782 935 782 877.5 851.5 c 128,-1,35
 820 921 820 921 710 921 c 0,36,37
 618 921 618 921 547 877.5 c 128,-1,38
 476 834 476 834 428 762 c 128,-1,39
 380 690 380 690 355.5 603 c 128,-1,40
 331 516 331 516 331 429 c 0,41,42
 331 307 331 307 390 235 c 128,-1,43
 449 163 449 163 559 163 c 0,28,29
EndSplineSet
EndChar

StartChar: uni01A5
Encoding: 421 421 816
Width: 1223
GlyphClass: 2
Flags: W
AnchorPoint: "Anchor-1" 750 1087 basechar 0
AnchorPoint: "Anchor-0" 81 -416 basechar 0
LayerCount: 2
Fore
SplineSet
190 884 m 1,0,-1
 224 1087 l 1,1,-1
 246 1224 l 2,2,3
 268 1357 268 1357 359.5 1427 c 128,-1,4
 451 1497 451 1497 606 1497 c 0,5,6
 645 1497 645 1497 675 1495.5 c 128,-1,7
 705 1494 705 1494 726 1492 c 1,8,-1
 697 1317 l 1,9,10
 680 1318 680 1318 653.5 1318.5 c 128,-1,11
 627 1319 627 1319 609 1319 c 0,12,13
 541 1319 541 1319 505.5 1296 c 128,-1,14
 470 1273 470 1273 462 1222 c 2,15,-1
 439 1087 l 1,16,-1
 405 884 l 1,17,-1
 190 884 l 1,0,-1
-26 -418 m 1,18,-1
 223 1087 l 1,19,-1
 434 1087 l 1,20,-1
 407 921 l 1,21,-1
 412 921 l 1,22,23
 445 971 445 971 494.5 1012.5 c 128,-1,24
 544 1054 544 1054 610 1079 c 128,-1,25
 676 1104 676 1104 760 1104 c 0,26,27
 879 1104 879 1104 966.5 1051 c 128,-1,28
 1054 998 1054 998 1102.5 900 c 128,-1,29
 1151 802 1151 802 1151 666 c 0,30,31
 1151 542 1151 542 1114 419.5 c 128,-1,32
 1077 297 1077 297 1006 197.5 c 128,-1,33
 935 98 935 98 832.5 38.5 c 128,-1,34
 730 -21 730 -21 598 -21 c 0,35,36
 510 -21 510 -21 450.5 8 c 128,-1,37
 391 37 391 37 353.5 81.5 c 128,-1,38
 316 126 316 126 297 175 c 1,39,-1
 288 175 l 1,40,-1
 190 -418 l 1,41,-1
 -26 -418 l 1,18,-1
557 163 m 0,42,43
 649 163 649 163 719.5 207.5 c 128,-1,44
 790 252 790 252 838 325 c 128,-1,45
 886 398 886 398 909.5 485.5 c 128,-1,46
 933 573 933 573 933 660 c 0,47,48
 933 782 933 782 876 851.5 c 128,-1,49
 819 921 819 921 708 921 c 0,50,51
 616 921 616 921 545.5 877.5 c 128,-1,52
 475 834 475 834 426.5 762 c 128,-1,53
 378 690 378 690 353.5 603 c 128,-1,54
 329 516 329 516 329 429 c 0,55,56
 329 307 329 307 388 235 c 128,-1,57
 447 163 447 163 557 163 c 0,42,43
EndSplineSet
EndChar

StartChar: q
Encoding: 113 113 820
Width: 1223
GlyphClass: 2
Flags: W
AnchorPoint: "Anchor-1" 702 1087 basechar 0
AnchorPoint: "Anchor-0" 823 -416 basechar 0
LayerCount: 2
Fore
SplineSet
931 -418 m 1,0,-1
 714 -418 l 1,1,-1
 811 163 l 1,2,-1
 802 163 l 1,3,4
 767 112 767 112 719 70.5 c 128,-1,5
 671 29 671 29 608 4 c 128,-1,6
 545 -21 545 -21 464 -21 c 0,7,8
 343 -21 343 -21 255 32.5 c 128,-1,9
 167 86 167 86 119.5 184 c 128,-1,10
 72 282 72 282 72 418 c 0,11,12
 72 545 72 545 109.5 667.5 c 128,-1,13
 147 790 147 790 218.5 888.5 c 128,-1,14
 290 987 290 987 392.5 1045.5 c 128,-1,15
 495 1104 495 1104 624 1104 c 0,16,17
 714 1104 714 1104 774.5 1076 c 128,-1,18
 835 1048 835 1048 874 1003.5 c 128,-1,19
 913 959 913 959 934 911 c 1,20,-1
 940 911 l 1,21,-1
 969 1087 l 1,22,-1
 1180 1087 l 1,23,-1
 931 -418 l 1,0,-1
515 163 m 0,24,25
 606 163 606 163 676.5 206.5 c 128,-1,26
 747 250 747 250 795.5 322.5 c 128,-1,27
 844 395 844 395 869.5 482.5 c 128,-1,28
 895 570 895 570 895 658 c 0,29,30
 895 779 895 779 836 850 c 128,-1,31
 777 921 777 921 665 921 c 0,32,33
 574 921 574 921 504 877 c 128,-1,34
 434 833 434 833 386.5 761.5 c 128,-1,35
 339 690 339 690 314.5 602.5 c 128,-1,36
 290 515 290 515 290 427 c 0,37,38
 290 304 290 304 348 233.5 c 128,-1,39
 406 163 406 163 515 163 c 0,24,25
EndSplineSet
Substitution2: "'sups' Superscript in Latin lookup 39 subtable" q.sups
Substitution2: "'subs' Subscript in Latin lookup 38 subtable" q.subs
Substitution2: "'sinf' Scientific Inferiors in Latin lookup 18 subtable" q.subs
AlternateSubs2: "'aalt' Access All Alternates in Latin lookup 1 subtable" q.sups q.subs
EndChar

StartChar: uni02A0
Encoding: 672 672 821
Width: 1223
GlyphClass: 2
Flags: W
AnchorPoint: "Anchor-1" 702 1087 basechar 0
AnchorPoint: "Anchor-0" 823 -416 basechar 0
LayerCount: 2
Fore
SplineSet
930 884 m 1,0,-1
 964 1087 l 1,1,-1
 986 1224 l 2,2,3
 1008 1357 1008 1357 1100 1427 c 128,-1,4
 1192 1497 1192 1497 1346 1497 c 0,5,6
 1385 1497 1385 1497 1415 1495.5 c 128,-1,7
 1445 1494 1445 1494 1467 1492 c 1,8,-1
 1438 1317 l 1,9,10
 1420 1318 1420 1318 1394 1318.5 c 128,-1,11
 1368 1319 1368 1319 1349 1319 c 0,12,13
 1281 1319 1281 1319 1246 1296 c 128,-1,14
 1211 1273 1211 1273 1203 1222 c 2,15,-1
 1180 1087 l 1,16,-1
 1146 884 l 1,17,-1
 930 884 l 1,0,-1
931 -418 m 1,18,-1
 714 -418 l 1,19,-1
 811 163 l 1,20,-1
 802 163 l 1,21,22
 767 112 767 112 719 70.5 c 128,-1,23
 671 29 671 29 608 4 c 128,-1,24
 545 -21 545 -21 464 -21 c 0,25,26
 343 -21 343 -21 255 32.5 c 128,-1,27
 167 86 167 86 119.5 184 c 128,-1,28
 72 282 72 282 72 418 c 0,29,30
 72 545 72 545 109.5 667.5 c 128,-1,31
 147 790 147 790 218.5 888.5 c 128,-1,32
 290 987 290 987 392.5 1045.5 c 128,-1,33
 495 1104 495 1104 624 1104 c 0,34,35
 714 1104 714 1104 774.5 1076 c 128,-1,36
 835 1048 835 1048 874 1003.5 c 128,-1,37
 913 959 913 959 934 911 c 1,38,-1
 940 911 l 1,39,-1
 969 1087 l 1,40,-1
 1180 1087 l 1,41,-1
 931 -418 l 1,18,-1
515 163 m 0,42,43
 606 163 606 163 676.5 206.5 c 128,-1,44
 747 250 747 250 795.5 322.5 c 128,-1,45
 844 395 844 395 869.5 482.5 c 128,-1,46
 895 570 895 570 895 658 c 0,47,48
 895 779 895 779 836 850 c 128,-1,49
 777 921 777 921 665 921 c 0,50,51
 574 921 574 921 504 877 c 128,-1,52
 434 833 434 833 386.5 761.5 c 128,-1,53
 339 690 339 690 314.5 602.5 c 128,-1,54
 290 515 290 515 290 427 c 0,55,56
 290 304 290 304 348 233.5 c 128,-1,57
 406 163 406 163 515 163 c 0,42,43
EndSplineSet
EndChar

StartChar: qrthook
Encoding: 587 587 822
Width: 1224
GlyphClass: 2
Flags: W
AnchorPoint: "Anchor-4" 1000 0 basechar 0
AnchorPoint: "Anchor-1" 698 1087 basechar 0
AnchorPoint: "Anchor-0" 512 0 basechar 0
LayerCount: 2
Fore
SplineSet
1024 -423 m 0,0,1
 872 -423 872 -423 806 -354 c 128,-1,2
 740 -285 740 -285 762 -149 c 2,3,-1
 818 189 l 1,4,-1
 1032 189 l 1,5,-1
 976 -147 l 2,6,7
 967 -200 967 -200 993 -222.5 c 128,-1,8
 1019 -245 1019 -245 1087 -245 c 0,9,10
 1105 -245 1105 -245 1131 -244.5 c 128,-1,11
 1157 -244 1157 -244 1175 -243 c 1,12,-1
 1147 -418 l 1,13,14
 1124 -421 1124 -421 1093.5 -422 c 128,-1,15
 1063 -423 1063 -423 1024 -423 c 0,0,1
451 -21 m 0,16,17
 314 -21 314 -21 221 48.5 c 128,-1,18
 128 118 128 118 90.5 244.5 c 128,-1,19
 53 371 53 371 82 543 c 0,20,21
 110 716 110 716 190.5 841.5 c 128,-1,22
 271 967 271 967 387 1035.5 c 128,-1,23
 503 1104 503 1104 638 1104 c 0,24,25
 724 1104 724 1104 782.5 1077.5 c 128,-1,26
 841 1051 841 1051 877 1009 c 128,-1,27
 913 967 913 967 932 921 c 1,28,-1
 939 921 l 1,29,-1
 967 1087 l 1,30,-1
 1180 1087 l 1,31,-1
 1000 0 l 1,32,-1
 790 0 l 1,33,-1
 817 168 l 1,34,-1
 806 168 l 1,35,36
 771 119 771 119 720.5 75.5 c 128,-1,37
 670 32 670 32 603 5.5 c 128,-1,38
 536 -21 536 -21 451 -21 c 0,16,17
528 163 m 0,39,40
 620 163 620 163 693 211 c 128,-1,41
 766 259 766 259 815.5 344.5 c 128,-1,42
 865 430 865 430 884 544 c 0,43,44
 902 658 902 658 881 742.5 c 128,-1,45
 860 827 860 827 802.5 874 c 128,-1,46
 745 921 745 921 653 921 c 0,47,48
 562 921 562 921 489.5 874 c 128,-1,49
 417 827 417 827 368.5 742.5 c 128,-1,50
 320 658 320 658 300 544 c 0,51,52
 282 429 282 429 303 343.5 c 128,-1,53
 324 258 324 258 381 210.5 c 128,-1,54
 438 163 438 163 528 163 c 0,39,40
EndSplineSet
EndChar

StartChar: r
Encoding: 114 114 823
Width: 744
GlyphClass: 2
Flags: W
AnchorPoint: "Anchor-1" 502 1087 basechar 0
AnchorPoint: "Anchor-0" 151 0 basechar 0
LayerCount: 2
Fore
SplineSet
44 0 m 1,0,-1
 224 1087 l 1,1,-1
 432 1087 l 1,2,-1
 403 912 l 1,3,-1
 411 912 l 1,4,5
 455 1001 455 1001 533.5 1051 c 128,-1,6
 612 1101 612 1101 711 1101 c 0,7,8
 734 1101 734 1101 757.5 1099.5 c 128,-1,9
 781 1098 781 1098 795 1097 c 1,10,-1
 762 893 l 1,11,12
 748 896 748 896 716.5 900 c 128,-1,13
 685 904 685 904 650 904 c 0,14,15
 583 904 583 904 523 874.5 c 128,-1,16
 463 845 463 845 422.5 788.5 c 128,-1,17
 382 732 382 732 368 651 c 2,18,-1
 260 0 l 1,19,-1
 44 0 l 1,0,-1
EndSplineSet
Substitution2: "'smcp' Lowercase to Small Capitals in Latin lookup 68 subtable" r.sc
Substitution2: "'c2sc' Capitals to Small Capitals in Latin lookup 67 subtable" r.sc
Substitution2: "'sups' Superscript in Latin lookup 39 subtable" r.sups
Substitution2: "'subs' Subscript in Latin lookup 38 subtable" r.subs
Substitution2: "'sinf' Scientific Inferiors in Latin lookup 18 subtable" r.subs
AlternateSubs2: "'aalt' Access All Alternates in Latin lookup 1 subtable" r.sc r.sups r.subs
EndChar

StartChar: rrthook
Encoding: 57437 57437 824
Width: 744
GlyphClass: 2
Flags: W
AnchorPoint: "Anchor-1" 502 1087 basechar 0
AnchorPoint: "Anchor-0" 151 0 basechar 0
LayerCount: 2
Fore
SplineSet
283 -423 m 0,0,1
 132 -423 132 -423 64.5 -354 c 128,-1,2
 -3 -285 -3 -285 19 -149 c 2,3,-1
 44 0 l 1,4,-1
 260 0 l 1,5,-1
 235 -147 l 2,6,7
 226 -199 226 -199 251.5 -222 c 128,-1,8
 277 -245 277 -245 346 -245 c 0,9,10
 364 -245 364 -245 390.5 -244.5 c 128,-1,11
 417 -244 417 -244 434 -243 c 1,12,-1
 406 -418 l 1,13,14
 383 -421 383 -421 352.5 -422 c 128,-1,15
 322 -423 322 -423 283 -423 c 0,0,1
44 0 m 1,16,-1
 224 1087 l 1,17,-1
 432 1087 l 1,18,-1
 403 912 l 1,19,-1
 411 912 l 1,20,21
 455 1001 455 1001 533.5 1051 c 128,-1,22
 612 1101 612 1101 711 1101 c 0,23,24
 734 1101 734 1101 757.5 1099.5 c 128,-1,25
 781 1098 781 1098 795 1097 c 1,26,-1
 762 893 l 1,27,28
 748 896 748 896 716.5 900 c 128,-1,29
 685 904 685 904 650 904 c 0,30,31
 583 904 583 904 523 874.5 c 128,-1,32
 463 845 463 845 422.5 788.5 c 128,-1,33
 382 732 382 732 368 651 c 2,34,-1
 260 0 l 1,35,-1
 44 0 l 1,16,-1
EndSplineSet
EndChar

StartChar: rturn
Encoding: 633 633 826
Width: 744
GlyphClass: 2
Flags: W
AnchorPoint: "Anchor-1" 591 1087 basechar 0
AnchorPoint: "Anchor-0" 303 0 basechar 0
LayerCount: 2
Fore
SplineSet
701 1087 m 1,0,-1
 521 0 l 1,1,-1
 313 0 l 1,2,-1
 342 175 l 1,3,-1
 334 175 l 1,4,5
 289 87 289 87 211 36.5 c 128,-1,6
 133 -14 133 -14 33 -14 c 0,7,8
 11 -14 11 -14 -12 -12 c 128,-1,9
 -35 -10 -35 -10 -50 -9 c 1,10,-1
 -17 194 l 1,11,12
 -3 192 -3 192 28.5 187.5 c 128,-1,13
 60 183 60 183 95 183 c 0,14,15
 163 183 163 183 222 213 c 128,-1,16
 281 243 281 243 322.5 299.5 c 128,-1,17
 364 356 364 356 377 436 c 2,18,-1
 485 1087 l 1,19,-1
 701 1087 l 1,0,-1
EndSplineSet
EndChar

StartChar: rturnrthook
Encoding: 635 635 827
Width: 744
GlyphClass: 2
Flags: W
AnchorPoint: "Anchor-1" 591 1087 basechar 0
AnchorPoint: "Anchor-0" 303 0 basechar 0
LayerCount: 2
Fore
SplineSet
533 -423 m 0,0,1
 387 -423 387 -423 324.5 -355.5 c 128,-1,2
 262 -288 262 -288 283 -155 c 2,3,-1
 309 0 l 1,4,-1
 516 0 l 1,5,-1
 492 -150 l 2,6,7
 484 -200 484 -200 508 -223 c 128,-1,8
 532 -246 532 -246 601 -246 c 0,9,10
 620 -246 620 -246 647 -245.5 c 128,-1,11
 674 -245 674 -245 691 -244 c 1,12,-1
 662 -418 l 1,13,14
 648 -419 648 -419 627.5 -420.5 c 128,-1,15
 607 -422 607 -422 583 -422.5 c 128,-1,16
 559 -423 559 -423 533 -423 c 0,0,1
701 1087 m 1,17,-1
 521 0 l 1,18,-1
 313 0 l 1,19,-1
 342 175 l 1,20,-1
 334 175 l 1,21,22
 289 87 289 87 211 36.5 c 128,-1,23
 133 -14 133 -14 33 -14 c 0,24,25
 11 -14 11 -14 -12 -12 c 128,-1,26
 -35 -10 -35 -10 -50 -9 c 1,27,-1
 -17 194 l 1,28,29
 -3 192 -3 192 28.5 187.5 c 128,-1,30
 60 183 60 183 95 183 c 0,31,32
 163 183 163 183 222 213 c 128,-1,33
 281 243 281 243 322.5 299.5 c 128,-1,34
 364 356 364 356 377 436 c 2,35,-1
 485 1087 l 1,36,-1
 701 1087 l 1,17,-1
EndSplineSet
EndChar

StartChar: rfishhookrev
Encoding: 639 639 828
Width: 711
Flags: W
LayerCount: 2
Fore
SplineSet
271 0 m 1,0,-1
 386 692 l 2,1,2
 400 777 400 777 379 822.5 c 128,-1,3
 358 868 358 868 313 885.5 c 128,-1,4
 268 903 268 903 210 903 c 0,5,6
 174 903 174 903 146 902 c 128,-1,7
 118 901 118 901 99 899 c 1,8,-1
 132 1092 l 1,9,10
 142 1093 142 1093 159.5 1094.5 c 128,-1,11
 177 1096 177 1096 202.5 1097 c 128,-1,12
 228 1098 228 1098 258 1098 c 0,13,14
 338 1098 338 1098 408 1077 c 128,-1,15
 478 1056 478 1056 528.5 1009.5 c 128,-1,16
 579 963 579 963 600 887 c 128,-1,17
 621 811 621 811 602 701 c 2,18,-1
 486 0 l 1,19,-1
 271 0 l 1,0,-1
EndSplineSet
EndChar

StartChar: uni027E
Encoding: 638 638 829
Width: 710
Flags: W
LayerCount: 2
Fore
SplineSet
43 0 m 1,0,-1
 159 701 l 2,1,2
 184 847 184 847 256 934.5 c 128,-1,3
 328 1022 328 1022 428 1060 c 128,-1,4
 528 1098 528 1098 636 1098 c 0,5,6
 665 1098 665 1098 690.5 1097 c 128,-1,7
 716 1096 716 1096 733.5 1094.5 c 128,-1,8
 751 1093 751 1093 760 1092 c 1,9,-1
 728 899 l 1,10,11
 710 901 710 901 683 902 c 128,-1,12
 656 903 656 903 620 903 c 0,13,14
 561 903 561 903 510.5 885 c 128,-1,15
 460 867 460 867 424 821.5 c 128,-1,16
 388 776 388 776 374 692 c 2,17,-1
 259 0 l 1,18,-1
 43 0 l 1,0,-1
EndSplineSet
EndChar

StartChar: rdescend
Encoding: 57438 57438 830
Width: 745
GlyphClass: 2
Flags: W
AnchorPoint: "Anchor-1" 503 1087 basechar 0
AnchorPoint: "Anchor-0" 152 0 basechar 0
LayerCount: 2
Fore
SplineSet
-26 -418 m 1,0,-1
 45 0 l 1,1,-1
 257 0 l 1,2,-1
 187 -418 l 1,3,-1
 -26 -418 l 1,0,-1
46 0 m 1,4,-1
 226 1087 l 1,5,-1
 433 1087 l 1,6,-1
 404 912 l 1,7,-1
 412 912 l 1,8,9
 456 1001 456 1001 534.5 1051 c 128,-1,10
 613 1101 613 1101 712 1101 c 0,11,12
 735 1101 735 1101 758.5 1099.5 c 128,-1,13
 782 1098 782 1098 796 1097 c 1,14,-1
 763 893 l 1,15,16
 749 896 749 896 717.5 900 c 128,-1,17
 686 904 686 904 651 904 c 0,18,19
 584 904 584 904 524 874.5 c 128,-1,20
 464 845 464 845 423.5 788.5 c 128,-1,21
 383 732 383 732 369 651 c 2,22,-1
 261 0 l 1,23,-1
 46 0 l 1,4,-1
EndSplineSet
EndChar

StartChar: r.sc
Encoding: 60955 60955 840
Width: 1019
GlyphClass: 2
Flags: W
AnchorPoint: "Anchor-1" 612 1087 basechar 0
AnchorPoint: "Anchor-0" 448 0 basechar 0
LayerCount: 2
Fore
SplineSet
44 0 m 1,0,-1
 224 1087 l 1,1,-1
 649 1087 l 2,2,3
 772 1087 772 1087 853 1044 c 128,-1,4
 934 1001 934 1001 968.5 922 c 128,-1,5
 1003 843 1003 843 985 734 c 0,6,7
 967 627 967 627 905.5 549.5 c 128,-1,8
 844 472 844 472 747.5 430 c 128,-1,9
 651 388 651 388 525 388 c 2,10,-1
 235 388 l 1,11,-1
 264 564 l 1,12,-1
 539 564 l 2,13,14
 635 564 635 564 695 608 c 128,-1,15
 755 652 755 652 769 736 c 0,16,17
 783 818 783 818 738.5 863 c 128,-1,18
 694 908 694 908 596 908 c 2,19,-1
 410 908 l 1,20,-1
 259 0 l 1,21,-1
 44 0 l 1,0,-1
663 0 m 1,22,-1
 487 492 l 1,23,-1
 712 492 l 1,24,-1
 894 0 l 1,25,-1
 663 0 l 1,22,-1
EndSplineSet
EndChar

StartChar: rinv.sc
Encoding: 60956 60956 841
Width: 1126
Flags: W
LayerCount: 2
Fore
SplineSet
44 0 m 1,0,-1
 224 1087 l 1,1,-1
 434 1087 l 1,2,-1
 285 180 l 1,3,-1
 529 180 l 2,4,5
 656 180 656 180 719.5 224 c 128,-1,6
 783 268 783 268 798 354 c 256,7,8
 813 440 813 440 762 483 c 128,-1,9
 711 526 711 526 583 526 c 2,10,-1
 252 526 l 1,11,-1
 280 694 l 1,12,-1
 631 694 l 2,13,14
 844 694 844 694 941 603 c 128,-1,15
 1038 512 1038 512 1012 353 c 0,16,17
 994 244 994 244 931 165 c 128,-1,18
 868 86 868 86 765.5 43 c 128,-1,19
 663 0 663 0 522 0 c 2,20,-1
 44 0 l 1,0,-1
552 597 m 1,21,-1
 939 1087 l 1,22,-1
 1181 1087 l 1,23,-1
 787 597 l 1,24,-1
 552 597 l 1,21,-1
EndSplineSet
EndChar

StartChar: s
Encoding: 115 115 842
Width: 1053
GlyphClass: 2
Flags: W
AnchorPoint: "Anchor-3" 440 0 basechar 0
AnchorPoint: "Anchor-1" 618 1087 basechar 0
AnchorPoint: "Anchor-0" 438 0 basechar 0
LayerCount: 2
Fore
SplineSet
447 -24 m 0,0,1
 330 -24 330 -24 240.5 11 c 128,-1,2
 151 46 151 46 99.5 112.5 c 128,-1,3
 48 179 48 179 44 276 c 0,4,5
 44 284 44 284 44 291 c 128,-1,6
 44 298 44 298 44 306 c 1,7,-1
 253 320 l 1,8,9
 254 233 254 233 304.5 191 c 128,-1,10
 355 149 355 149 452 149 c 0,11,12
 521 149 521 149 579.5 170.5 c 128,-1,13
 638 192 638 192 674.5 230.5 c 128,-1,14
 711 269 711 269 715 318 c 0,15,16
 718 363 718 363 686 392 c 128,-1,17
 654 421 654 421 587 436 c 2,18,-1
 412 477 l 2,19,20
 275 509 275 509 208.5 581 c 128,-1,21
 142 653 142 653 150 764 c 0,22,23
 156 867 156 867 220 944.5 c 128,-1,24
 284 1022 284 1022 386.5 1064 c 128,-1,25
 489 1106 489 1106 611 1106 c 0,26,27
 781 1106 781 1106 878 1032 c 128,-1,28
 975 958 975 958 987 833 c 0,29,30
 988 823 988 823 988.5 812 c 128,-1,31
 989 801 989 801 988 790 c 1,32,-1
 788 776 l 1,33,34
 788 847 788 847 743.5 891.5 c 128,-1,35
 699 936 699 936 608 936 c 0,36,37
 544 936 544 936 489.5 914 c 128,-1,38
 435 892 435 892 402.5 854 c 128,-1,39
 370 816 370 816 366 769 c 256,40,41
 362 722 362 722 394.5 694 c 128,-1,42
 427 666 427 666 501 648 c 2,43,-1
 674 608 l 2,44,45
 813 577 813 577 878 507 c 128,-1,46
 943 437 943 437 935 331 c 0,47,48
 930 250 930 250 890.5 184.5 c 128,-1,49
 851 119 851 119 783.5 72.5 c 128,-1,50
 716 26 716 26 630.5 1 c 128,-1,51
 545 -24 545 -24 447 -24 c 0,0,1
EndSplineSet
Substitution2: "'sups' Superscript in Latin lookup 39 subtable" s.sups
Substitution2: "'subs' Subscript in Latin lookup 38 subtable" s.subs
Substitution2: "'sinf' Scientific Inferiors in Latin lookup 18 subtable" s.subs
AlternateSubs2: "'aalt' Access All Alternates in Latin lookup 1 subtable" s.sups s.subs
EndChar

